G04 EAGLE Gerber RS-274X export*
G75*
%MOMM*%
%FSLAX34Y34*%
%LPD*%
%IN*%
%IPPOS*%
%AMOC8*
5,1,8,0,0,1.08239X$1,22.5*%
G01*
%ADD10C,0.254000*%


D10*
X15240Y128270D02*
X15612Y118472D01*
X16837Y108743D01*
X18905Y99158D01*
X21801Y89790D01*
X25502Y80710D01*
X29981Y71987D01*
X35202Y63688D01*
X41127Y55875D01*
X47711Y48609D01*
X54902Y41944D01*
X62648Y35931D01*
X70888Y30616D01*
X79559Y26039D01*
X88597Y22235D01*
X97932Y19234D01*
X107492Y17058D01*
X117207Y15723D01*
X127000Y15240D01*
X887730Y15240D01*
X897528Y15612D01*
X907257Y16837D01*
X916842Y18905D01*
X926210Y21801D01*
X935290Y25502D01*
X944013Y29981D01*
X952312Y35202D01*
X960125Y41127D01*
X967391Y47711D01*
X974056Y54902D01*
X980069Y62648D01*
X985384Y70888D01*
X989961Y79559D01*
X993765Y88597D01*
X996766Y97932D01*
X998942Y107492D01*
X1000277Y117207D01*
X1000760Y127000D01*
X1000760Y887730D01*
X1000330Y897581D01*
X999043Y907357D01*
X996909Y916984D01*
X993943Y926389D01*
X990170Y935499D01*
X985617Y944245D01*
X980319Y952561D01*
X974316Y960384D01*
X967654Y967654D01*
X960384Y974316D01*
X952561Y980319D01*
X944245Y985617D01*
X935499Y990170D01*
X926389Y993943D01*
X916984Y996909D01*
X907357Y999043D01*
X897581Y1000330D01*
X887730Y1000760D01*
X851408Y1000760D01*
X840613Y1011555D01*
X784987Y1011555D01*
X774192Y1000760D01*
X241808Y1000760D01*
X231013Y1011555D01*
X175387Y1011555D01*
X164592Y1000760D01*
X127000Y1000760D01*
X117207Y1000277D01*
X107492Y998942D01*
X97932Y996766D01*
X88597Y993765D01*
X79559Y989961D01*
X70888Y985384D01*
X62648Y980069D01*
X54902Y974056D01*
X47711Y967391D01*
X41127Y960125D01*
X35202Y952312D01*
X29981Y944013D01*
X25502Y935290D01*
X21801Y926210D01*
X18905Y916842D01*
X16837Y907257D01*
X15612Y897528D01*
X15240Y887730D01*
X15240Y128270D01*
X140970Y469900D02*
X171450Y469900D01*
X171450Y546100D01*
X140970Y546100D01*
X140970Y469900D01*
X844550Y473710D02*
X875030Y473710D01*
X875030Y542290D01*
X844550Y542290D01*
X844550Y473710D01*
X240030Y888551D02*
X239960Y887656D01*
X239819Y886768D01*
X239609Y885895D01*
X239332Y885041D01*
X238988Y884211D01*
X238580Y883411D01*
X238111Y882645D01*
X237583Y881918D01*
X237000Y881235D01*
X236365Y880600D01*
X235682Y880017D01*
X234955Y879489D01*
X234189Y879020D01*
X233389Y878612D01*
X232559Y878268D01*
X231705Y877991D01*
X230832Y877781D01*
X229945Y877640D01*
X229049Y877570D01*
X228151Y877570D01*
X227256Y877640D01*
X226368Y877781D01*
X225495Y877991D01*
X224641Y878268D01*
X223811Y878612D01*
X223011Y879020D01*
X222245Y879489D01*
X221518Y880017D01*
X220835Y880600D01*
X220200Y881235D01*
X219617Y881918D01*
X219089Y882645D01*
X218620Y883411D01*
X218212Y884211D01*
X217868Y885041D01*
X217591Y885895D01*
X217381Y886768D01*
X217240Y887656D01*
X217170Y888551D01*
X217170Y889449D01*
X217240Y890345D01*
X217381Y891232D01*
X217591Y892105D01*
X217868Y892959D01*
X218212Y893789D01*
X218620Y894589D01*
X219089Y895355D01*
X219617Y896082D01*
X220200Y896765D01*
X220835Y897400D01*
X221518Y897983D01*
X222245Y898511D01*
X223011Y898980D01*
X223811Y899388D01*
X224641Y899732D01*
X225495Y900009D01*
X226368Y900219D01*
X227256Y900360D01*
X228151Y900430D01*
X229049Y900430D01*
X229945Y900360D01*
X230832Y900219D01*
X231705Y900009D01*
X232559Y899732D01*
X233389Y899388D01*
X234189Y898980D01*
X234955Y898511D01*
X235682Y897983D01*
X236365Y897400D01*
X237000Y896765D01*
X237583Y896082D01*
X238111Y895355D01*
X238580Y894589D01*
X238988Y893789D01*
X239332Y892959D01*
X239609Y892105D01*
X239819Y891232D01*
X239960Y890345D01*
X240030Y889449D01*
X240030Y888551D01*
X798830Y887776D02*
X798760Y886881D01*
X798619Y885994D01*
X798409Y885120D01*
X798132Y884266D01*
X797788Y883436D01*
X797380Y882636D01*
X796911Y881870D01*
X796383Y881144D01*
X795800Y880461D01*
X795165Y879826D01*
X794482Y879242D01*
X793755Y878714D01*
X792989Y878245D01*
X792189Y877837D01*
X791359Y877494D01*
X790505Y877216D01*
X789632Y877006D01*
X788745Y876866D01*
X787849Y876795D01*
X786951Y876795D01*
X786056Y876866D01*
X785168Y877006D01*
X784295Y877216D01*
X783441Y877494D01*
X782611Y877837D01*
X781811Y878245D01*
X781045Y878714D01*
X780318Y879242D01*
X779635Y879826D01*
X779000Y880461D01*
X778417Y881144D01*
X777889Y881870D01*
X777420Y882636D01*
X777012Y883436D01*
X776668Y884266D01*
X776391Y885120D01*
X776181Y885994D01*
X776040Y886881D01*
X775970Y887776D01*
X775970Y888674D01*
X776040Y889570D01*
X776181Y890457D01*
X776391Y891330D01*
X776668Y892184D01*
X777012Y893014D01*
X777420Y893815D01*
X777889Y894580D01*
X778417Y895307D01*
X779000Y895990D01*
X779635Y896625D01*
X780318Y897208D01*
X781045Y897736D01*
X781811Y898206D01*
X782611Y898613D01*
X783441Y898957D01*
X784295Y899235D01*
X785168Y899444D01*
X786056Y899585D01*
X786951Y899655D01*
X787849Y899655D01*
X788745Y899585D01*
X789632Y899444D01*
X790505Y899235D01*
X791359Y898957D01*
X792189Y898613D01*
X792989Y898206D01*
X793755Y897736D01*
X794482Y897208D01*
X795165Y896625D01*
X795800Y895990D01*
X796383Y895307D01*
X796911Y894580D01*
X797380Y893815D01*
X797788Y893014D01*
X798132Y892184D01*
X798409Y891330D01*
X798619Y890457D01*
X798760Y889570D01*
X798830Y888674D01*
X798830Y887776D01*
X798830Y126551D02*
X798760Y125656D01*
X798619Y124768D01*
X798409Y123895D01*
X798132Y123041D01*
X797788Y122211D01*
X797380Y121411D01*
X796911Y120645D01*
X796383Y119918D01*
X795800Y119235D01*
X795165Y118600D01*
X794482Y118017D01*
X793755Y117489D01*
X792989Y117020D01*
X792189Y116612D01*
X791359Y116268D01*
X790505Y115991D01*
X789632Y115781D01*
X788745Y115640D01*
X787849Y115570D01*
X786951Y115570D01*
X786056Y115640D01*
X785168Y115781D01*
X784295Y115991D01*
X783441Y116268D01*
X782611Y116612D01*
X781811Y117020D01*
X781045Y117489D01*
X780318Y118017D01*
X779635Y118600D01*
X779000Y119235D01*
X778417Y119918D01*
X777889Y120645D01*
X777420Y121411D01*
X777012Y122211D01*
X776668Y123041D01*
X776391Y123895D01*
X776181Y124768D01*
X776040Y125656D01*
X775970Y126551D01*
X775970Y127449D01*
X776040Y128345D01*
X776181Y129232D01*
X776391Y130105D01*
X776668Y130959D01*
X777012Y131789D01*
X777420Y132589D01*
X777889Y133355D01*
X778417Y134082D01*
X779000Y134765D01*
X779635Y135400D01*
X780318Y135983D01*
X781045Y136511D01*
X781811Y136980D01*
X782611Y137388D01*
X783441Y137732D01*
X784295Y138009D01*
X785168Y138219D01*
X786056Y138360D01*
X786951Y138430D01*
X787849Y138430D01*
X788745Y138360D01*
X789632Y138219D01*
X790505Y138009D01*
X791359Y137732D01*
X792189Y137388D01*
X792989Y136980D01*
X793755Y136511D01*
X794482Y135983D01*
X795165Y135400D01*
X795800Y134765D01*
X796383Y134082D01*
X796911Y133355D01*
X797380Y132589D01*
X797788Y131789D01*
X798132Y130959D01*
X798409Y130105D01*
X798619Y129232D01*
X798760Y128345D01*
X798830Y127449D01*
X798830Y126551D01*
X240030Y126551D02*
X239960Y125656D01*
X239819Y124768D01*
X239609Y123895D01*
X239332Y123041D01*
X238988Y122211D01*
X238580Y121411D01*
X238111Y120645D01*
X237583Y119918D01*
X237000Y119235D01*
X236365Y118600D01*
X235682Y118017D01*
X234955Y117489D01*
X234189Y117020D01*
X233389Y116612D01*
X232559Y116268D01*
X231705Y115991D01*
X230832Y115781D01*
X229945Y115640D01*
X229049Y115570D01*
X228151Y115570D01*
X227256Y115640D01*
X226368Y115781D01*
X225495Y115991D01*
X224641Y116268D01*
X223811Y116612D01*
X223011Y117020D01*
X222245Y117489D01*
X221518Y118017D01*
X220835Y118600D01*
X220200Y119235D01*
X219617Y119918D01*
X219089Y120645D01*
X218620Y121411D01*
X218212Y122211D01*
X217868Y123041D01*
X217591Y123895D01*
X217381Y124768D01*
X217240Y125656D01*
X217170Y126551D01*
X217170Y127449D01*
X217240Y128345D01*
X217381Y129232D01*
X217591Y130105D01*
X217868Y130959D01*
X218212Y131789D01*
X218620Y132589D01*
X219089Y133355D01*
X219617Y134082D01*
X220200Y134765D01*
X220835Y135400D01*
X221518Y135983D01*
X222245Y136511D01*
X223011Y136980D01*
X223811Y137388D01*
X224641Y137732D01*
X225495Y138009D01*
X226368Y138219D01*
X227256Y138360D01*
X228151Y138430D01*
X229049Y138430D01*
X229945Y138360D01*
X230832Y138219D01*
X231705Y138009D01*
X232559Y137732D01*
X233389Y137388D01*
X234189Y136980D01*
X234955Y136511D01*
X235682Y135983D01*
X236365Y135400D01*
X237000Y134765D01*
X237583Y134082D01*
X238111Y133355D01*
X238580Y132589D01*
X238988Y131789D01*
X239332Y130959D01*
X239609Y130105D01*
X239819Y129232D01*
X239960Y128345D01*
X240030Y127449D01*
X240030Y126551D01*
X224790Y974073D02*
X224711Y972770D01*
X224554Y971475D01*
X224319Y970192D01*
X224007Y968925D01*
X223618Y967679D01*
X223156Y966459D01*
X222620Y965269D01*
X222014Y964114D01*
X221339Y962997D01*
X220598Y961924D01*
X219793Y960897D01*
X218928Y959920D01*
X218005Y958997D01*
X217029Y958132D01*
X216001Y957327D01*
X214928Y956586D01*
X213811Y955911D01*
X212656Y955305D01*
X211466Y954769D01*
X210246Y954307D01*
X209000Y953919D01*
X207733Y953606D01*
X206450Y953371D01*
X205155Y953214D01*
X203852Y953135D01*
X202548Y953135D01*
X201245Y953214D01*
X199950Y953371D01*
X198667Y953606D01*
X197400Y953919D01*
X196154Y954307D01*
X194934Y954769D01*
X193744Y955305D01*
X192589Y955911D01*
X191472Y956586D01*
X190399Y957327D01*
X189372Y958132D01*
X188395Y958997D01*
X187472Y959920D01*
X186607Y960897D01*
X185802Y961924D01*
X185061Y962997D01*
X184386Y964114D01*
X183780Y965269D01*
X183244Y966459D01*
X182782Y967679D01*
X182394Y968925D01*
X182081Y970192D01*
X181846Y971475D01*
X181689Y972770D01*
X181610Y974073D01*
X181610Y975377D01*
X181689Y976680D01*
X181846Y977975D01*
X182081Y979258D01*
X182394Y980525D01*
X182782Y981771D01*
X183244Y982991D01*
X183780Y984181D01*
X184386Y985336D01*
X185061Y986453D01*
X185802Y987526D01*
X186607Y988554D01*
X187472Y989530D01*
X188395Y990453D01*
X189372Y991318D01*
X190399Y992123D01*
X191472Y992864D01*
X192589Y993539D01*
X193744Y994145D01*
X194934Y994681D01*
X196154Y995143D01*
X197400Y995532D01*
X198667Y995844D01*
X199950Y996079D01*
X201245Y996236D01*
X202548Y996315D01*
X203852Y996315D01*
X205155Y996236D01*
X206450Y996079D01*
X207733Y995844D01*
X209000Y995532D01*
X210246Y995143D01*
X211466Y994681D01*
X212656Y994145D01*
X213811Y993539D01*
X214928Y992864D01*
X216001Y992123D01*
X217029Y991318D01*
X218005Y990453D01*
X218928Y989530D01*
X219793Y988554D01*
X220598Y987526D01*
X221339Y986453D01*
X222014Y985336D01*
X222620Y984181D01*
X223156Y982991D01*
X223618Y981771D01*
X224007Y980525D01*
X224319Y979258D01*
X224554Y977975D01*
X224711Y976680D01*
X224790Y975377D01*
X224790Y974073D01*
X834390Y974073D02*
X834311Y972770D01*
X834154Y971475D01*
X833919Y970192D01*
X833607Y968925D01*
X833218Y967679D01*
X832756Y966459D01*
X832220Y965269D01*
X831614Y964114D01*
X830939Y962997D01*
X830198Y961924D01*
X829393Y960897D01*
X828528Y959920D01*
X827605Y958997D01*
X826629Y958132D01*
X825601Y957327D01*
X824528Y956586D01*
X823411Y955911D01*
X822256Y955305D01*
X821066Y954769D01*
X819846Y954307D01*
X818600Y953919D01*
X817333Y953606D01*
X816050Y953371D01*
X814755Y953214D01*
X813452Y953135D01*
X812148Y953135D01*
X810845Y953214D01*
X809550Y953371D01*
X808267Y953606D01*
X807000Y953919D01*
X805754Y954307D01*
X804534Y954769D01*
X803344Y955305D01*
X802189Y955911D01*
X801072Y956586D01*
X799999Y957327D01*
X798972Y958132D01*
X797995Y958997D01*
X797072Y959920D01*
X796207Y960897D01*
X795402Y961924D01*
X794661Y962997D01*
X793986Y964114D01*
X793380Y965269D01*
X792844Y966459D01*
X792382Y967679D01*
X791994Y968925D01*
X791681Y970192D01*
X791446Y971475D01*
X791289Y972770D01*
X791210Y974073D01*
X791210Y975377D01*
X791289Y976680D01*
X791446Y977975D01*
X791681Y979258D01*
X791994Y980525D01*
X792382Y981771D01*
X792844Y982991D01*
X793380Y984181D01*
X793986Y985336D01*
X794661Y986453D01*
X795402Y987526D01*
X796207Y988554D01*
X797072Y989530D01*
X797995Y990453D01*
X798972Y991318D01*
X799999Y992123D01*
X801072Y992864D01*
X802189Y993539D01*
X803344Y994145D01*
X804534Y994681D01*
X805754Y995143D01*
X807000Y995532D01*
X808267Y995844D01*
X809550Y996079D01*
X810845Y996236D01*
X812148Y996315D01*
X813452Y996315D01*
X814755Y996236D01*
X816050Y996079D01*
X817333Y995844D01*
X818600Y995532D01*
X819846Y995143D01*
X821066Y994681D01*
X822256Y994145D01*
X823411Y993539D01*
X824528Y992864D01*
X825601Y992123D01*
X826629Y991318D01*
X827605Y990453D01*
X828528Y989530D01*
X829393Y988554D01*
X830198Y987526D01*
X830939Y986453D01*
X831614Y985336D01*
X832220Y984181D01*
X832756Y982991D01*
X833218Y981771D01*
X833607Y980525D01*
X833919Y979258D01*
X834154Y977975D01*
X834311Y976680D01*
X834390Y975377D01*
X834390Y974073D01*
X33805Y773000D02*
X33220Y773077D01*
X32650Y773230D01*
X32105Y773455D01*
X31595Y773750D01*
X31127Y774109D01*
X30709Y774527D01*
X30350Y774995D01*
X30055Y775505D01*
X29830Y776050D01*
X29677Y776620D01*
X29600Y777205D01*
X29600Y777795D01*
X29677Y778380D01*
X29830Y778950D01*
X30055Y779495D01*
X30350Y780005D01*
X30709Y780473D01*
X31127Y780891D01*
X31595Y781250D01*
X32105Y781545D01*
X32650Y781770D01*
X33220Y781923D01*
X33805Y782000D01*
X34395Y782000D01*
X34980Y781923D01*
X35550Y781770D01*
X36095Y781545D01*
X36605Y781250D01*
X37073Y780891D01*
X37491Y780473D01*
X37850Y780005D01*
X38145Y779495D01*
X38370Y778950D01*
X38523Y778380D01*
X38600Y777795D01*
X38600Y777205D01*
X38523Y776620D01*
X38370Y776050D01*
X38145Y775505D01*
X37850Y774995D01*
X37491Y774527D01*
X37073Y774109D01*
X36605Y773750D01*
X36095Y773455D01*
X35550Y773230D01*
X34980Y773077D01*
X34395Y773000D01*
X33805Y773000D01*
X33805Y743000D02*
X33220Y743077D01*
X32650Y743230D01*
X32105Y743455D01*
X31595Y743750D01*
X31127Y744109D01*
X30709Y744527D01*
X30350Y744995D01*
X30055Y745505D01*
X29830Y746050D01*
X29677Y746620D01*
X29600Y747205D01*
X29600Y747795D01*
X29677Y748380D01*
X29830Y748950D01*
X30055Y749495D01*
X30350Y750005D01*
X30709Y750473D01*
X31127Y750891D01*
X31595Y751250D01*
X32105Y751545D01*
X32650Y751770D01*
X33220Y751923D01*
X33805Y752000D01*
X34395Y752000D01*
X34980Y751923D01*
X35550Y751770D01*
X36095Y751545D01*
X36605Y751250D01*
X37073Y750891D01*
X37491Y750473D01*
X37850Y750005D01*
X38145Y749495D01*
X38370Y748950D01*
X38523Y748380D01*
X38600Y747795D01*
X38600Y747205D01*
X38523Y746620D01*
X38370Y746050D01*
X38145Y745505D01*
X37850Y744995D01*
X37491Y744527D01*
X37073Y744109D01*
X36605Y743750D01*
X36095Y743455D01*
X35550Y743230D01*
X34980Y743077D01*
X34395Y743000D01*
X33805Y743000D01*
X32670Y340886D02*
X32085Y340963D01*
X31515Y341116D01*
X30970Y341342D01*
X30459Y341637D01*
X29991Y341996D01*
X29574Y342413D01*
X29215Y342881D01*
X28920Y343392D01*
X28694Y343937D01*
X28542Y344507D01*
X28465Y345091D01*
X28465Y345681D01*
X28542Y346266D01*
X28694Y346836D01*
X28920Y347381D01*
X29215Y347892D01*
X29574Y348360D01*
X29991Y348777D01*
X30459Y349136D01*
X30970Y349431D01*
X31515Y349657D01*
X32085Y349809D01*
X32670Y349886D01*
X33260Y349886D01*
X33844Y349809D01*
X34414Y349657D01*
X34959Y349431D01*
X35470Y349136D01*
X35938Y348777D01*
X36355Y348360D01*
X36714Y347892D01*
X37009Y347381D01*
X37235Y346836D01*
X37388Y346266D01*
X37465Y345681D01*
X37465Y345091D01*
X37388Y344507D01*
X37235Y343937D01*
X37009Y343392D01*
X36714Y342881D01*
X36355Y342413D01*
X35938Y341996D01*
X35470Y341637D01*
X34959Y341342D01*
X34414Y341116D01*
X33844Y340963D01*
X33260Y340886D01*
X32670Y340886D01*
X32670Y383386D02*
X32085Y383463D01*
X31515Y383616D01*
X30970Y383842D01*
X30459Y384137D01*
X29991Y384496D01*
X29574Y384913D01*
X29215Y385381D01*
X28920Y385892D01*
X28694Y386437D01*
X28542Y387007D01*
X28465Y387591D01*
X28465Y388181D01*
X28542Y388766D01*
X28694Y389336D01*
X28920Y389881D01*
X29215Y390392D01*
X29574Y390860D01*
X29991Y391277D01*
X30459Y391636D01*
X30970Y391931D01*
X31515Y392157D01*
X32085Y392309D01*
X32670Y392386D01*
X33260Y392386D01*
X33844Y392309D01*
X34414Y392157D01*
X34959Y391931D01*
X35470Y391636D01*
X35938Y391277D01*
X36355Y390860D01*
X36714Y390392D01*
X37009Y389881D01*
X37235Y389336D01*
X37388Y388766D01*
X37465Y388181D01*
X37465Y387591D01*
X37388Y387007D01*
X37235Y386437D01*
X37009Y385892D01*
X36714Y385381D01*
X36355Y384913D01*
X35938Y384496D01*
X35470Y384137D01*
X34959Y383842D01*
X34414Y383616D01*
X33844Y383463D01*
X33260Y383386D01*
X32670Y383386D01*
M02*
