G04 EAGLE Gerber RS-274X export*
G75*
%MOMM*%
%FSLAX34Y34*%
%LPD*%
%INSilkscreen Bottom*%
%IPPOS*%
%AMOC8*
5,1,8,0,0,1.08239X$1,22.5*%
G01*
%ADD10C,0.670559*%
%ADD11C,0.203200*%
%ADD12R,0.390000X0.078000*%
%ADD13R,0.312000X0.078000*%
%ADD14R,1.326000X0.078000*%
%ADD15R,1.248000X0.078000*%
%ADD16R,1.014000X0.078000*%
%ADD17R,0.858000X0.078000*%
%ADD18R,0.468000X0.078000*%
%ADD19R,1.638000X0.078000*%
%ADD20R,0.546000X0.078000*%
%ADD21R,1.716000X0.078000*%
%ADD22R,1.404000X0.078000*%
%ADD23R,0.624000X0.078000*%
%ADD24R,0.234000X0.078000*%
%ADD25R,1.794000X0.078000*%
%ADD26R,0.702000X0.078000*%
%ADD27R,0.780000X0.078000*%
%ADD28R,0.936000X0.078000*%
%ADD29R,1.092000X0.078000*%
%ADD30R,0.156000X0.078000*%
%ADD31R,1.170000X0.078000*%
%ADD32R,1.560000X0.078000*%
%ADD33R,0.078000X0.078000*%
%ADD34R,1.482000X0.078000*%
%ADD35C,0.101600*%
%ADD36C,0.127000*%
%ADD37C,0.152400*%

G36*
X892848Y704796D02*
X892848Y704796D01*
X892882Y704795D01*
X898051Y705164D01*
X898083Y705172D01*
X898159Y705180D01*
X903223Y706281D01*
X903253Y706293D01*
X903327Y706312D01*
X908183Y708123D01*
X908211Y708139D01*
X908282Y708168D01*
X912830Y710652D01*
X912856Y710672D01*
X912921Y710710D01*
X917070Y713816D01*
X917093Y713840D01*
X917152Y713887D01*
X920817Y717552D01*
X920836Y717578D01*
X920888Y717634D01*
X923993Y721782D01*
X924008Y721811D01*
X924052Y721874D01*
X926536Y726422D01*
X926547Y726453D01*
X926581Y726521D01*
X928392Y731377D01*
X928398Y731409D01*
X928423Y731481D01*
X929524Y736545D01*
X929526Y736577D01*
X929540Y736652D01*
X929909Y741822D01*
X929907Y741842D01*
X929911Y741876D01*
X929911Y779442D01*
X929908Y779462D01*
X929910Y779482D01*
X929888Y779583D01*
X929871Y779685D01*
X929862Y779703D01*
X929858Y779722D01*
X929805Y779811D01*
X929756Y779903D01*
X929742Y779916D01*
X929732Y779933D01*
X929653Y780001D01*
X929578Y780072D01*
X929560Y780080D01*
X929545Y780093D01*
X929449Y780132D01*
X929355Y780176D01*
X929335Y780178D01*
X929317Y780185D01*
X929150Y780204D01*
X857039Y780204D01*
X857020Y780200D01*
X857000Y780203D01*
X856899Y780181D01*
X856797Y780164D01*
X856779Y780155D01*
X856760Y780150D01*
X856671Y780097D01*
X856579Y780049D01*
X856566Y780034D01*
X856548Y780024D01*
X856481Y779945D01*
X856410Y779870D01*
X856402Y779852D01*
X856389Y779837D01*
X856350Y779741D01*
X856306Y779647D01*
X856304Y779628D01*
X856297Y779609D01*
X856278Y779442D01*
X856278Y748927D01*
X856269Y748922D01*
X856202Y748843D01*
X856130Y748768D01*
X856122Y748750D01*
X856109Y748735D01*
X856070Y748639D01*
X856027Y748545D01*
X856025Y748525D01*
X856017Y748507D01*
X856012Y748456D01*
X855987Y748424D01*
X855927Y748362D01*
X855911Y748328D01*
X855888Y748298D01*
X855825Y748143D01*
X855774Y747965D01*
X855771Y747943D01*
X855763Y747923D01*
X855745Y747756D01*
X855745Y738663D01*
X855748Y738643D01*
X855747Y738608D01*
X856084Y733897D01*
X856091Y733865D01*
X856099Y733789D01*
X857103Y729173D01*
X857115Y729143D01*
X857134Y729069D01*
X858785Y724643D01*
X858801Y724614D01*
X858830Y724544D01*
X861094Y720398D01*
X861114Y720372D01*
X861153Y720307D01*
X863983Y716525D01*
X864007Y716502D01*
X864008Y716501D01*
X864020Y716482D01*
X864032Y716471D01*
X864055Y716443D01*
X867395Y713102D01*
X867421Y713083D01*
X867477Y713031D01*
X871259Y710200D01*
X871288Y710185D01*
X871350Y710142D01*
X875496Y707878D01*
X875527Y707867D01*
X875595Y707833D01*
X880021Y706182D01*
X880053Y706175D01*
X880125Y706151D01*
X882786Y705572D01*
X884741Y705147D01*
X884774Y705145D01*
X884849Y705132D01*
X889561Y704795D01*
X889581Y704796D01*
X889615Y704793D01*
X892828Y704793D01*
X892848Y704796D01*
G37*
G36*
X839876Y637397D02*
X839876Y637397D01*
X839911Y637396D01*
X844622Y637733D01*
X844654Y637740D01*
X844730Y637748D01*
X849346Y638752D01*
X849376Y638764D01*
X849450Y638783D01*
X853876Y640434D01*
X853905Y640450D01*
X853975Y640479D01*
X858121Y642743D01*
X858147Y642763D01*
X858212Y642801D01*
X861994Y645632D01*
X862017Y645656D01*
X862076Y645704D01*
X865417Y649044D01*
X865436Y649070D01*
X865488Y649126D01*
X868319Y652908D01*
X868334Y652937D01*
X868336Y652940D01*
X868348Y652952D01*
X868354Y652965D01*
X868377Y652999D01*
X870641Y657145D01*
X870652Y657176D01*
X870686Y657244D01*
X872337Y661670D01*
X872344Y661702D01*
X872368Y661774D01*
X873372Y666390D01*
X873374Y666423D01*
X873387Y666498D01*
X873724Y671210D01*
X873723Y671230D01*
X873726Y671264D01*
X873726Y674477D01*
X873723Y674497D01*
X873724Y674531D01*
X873355Y679700D01*
X873347Y679732D01*
X873339Y679808D01*
X872238Y684872D01*
X872226Y684902D01*
X872207Y684976D01*
X870396Y689832D01*
X870380Y689860D01*
X870351Y689930D01*
X867867Y694479D01*
X867847Y694505D01*
X867809Y694570D01*
X864703Y698719D01*
X864679Y698742D01*
X864632Y698801D01*
X860967Y702466D01*
X860941Y702485D01*
X860885Y702537D01*
X856737Y705642D01*
X856708Y705657D01*
X856645Y705701D01*
X852097Y708185D01*
X852066Y708196D01*
X851998Y708230D01*
X847142Y710041D01*
X847110Y710047D01*
X847038Y710071D01*
X845274Y710455D01*
X841974Y711173D01*
X841942Y711175D01*
X841867Y711189D01*
X836697Y711558D01*
X836677Y711556D01*
X836643Y711560D01*
X799077Y711560D01*
X799057Y711557D01*
X799037Y711559D01*
X798936Y711537D01*
X798834Y711520D01*
X798816Y711511D01*
X798797Y711507D01*
X798708Y711454D01*
X798616Y711405D01*
X798603Y711391D01*
X798586Y711381D01*
X798518Y711302D01*
X798447Y711227D01*
X798439Y711209D01*
X798426Y711194D01*
X798387Y711098D01*
X798343Y711004D01*
X798341Y710984D01*
X798334Y710966D01*
X798315Y710799D01*
X798315Y638688D01*
X798319Y638669D01*
X798316Y638649D01*
X798338Y638548D01*
X798355Y638446D01*
X798364Y638428D01*
X798369Y638409D01*
X798422Y638319D01*
X798470Y638228D01*
X798485Y638215D01*
X798495Y638197D01*
X798574Y638130D01*
X798649Y638059D01*
X798667Y638050D01*
X798682Y638037D01*
X798778Y637999D01*
X798872Y637955D01*
X798891Y637953D01*
X798910Y637946D01*
X799077Y637927D01*
X829592Y637927D01*
X829597Y637918D01*
X829676Y637851D01*
X829751Y637779D01*
X829769Y637771D01*
X829784Y637758D01*
X829880Y637719D01*
X829974Y637676D01*
X829994Y637674D01*
X830012Y637666D01*
X830063Y637661D01*
X830095Y637636D01*
X830157Y637576D01*
X830191Y637560D01*
X830221Y637537D01*
X830376Y637474D01*
X830554Y637423D01*
X830576Y637420D01*
X830596Y637412D01*
X830763Y637394D01*
X839856Y637394D01*
X839876Y637397D01*
G37*
G36*
X925893Y569889D02*
X925893Y569889D01*
X925913Y569887D01*
X926014Y569909D01*
X926116Y569926D01*
X926134Y569935D01*
X926153Y569939D01*
X926242Y569992D01*
X926334Y570041D01*
X926347Y570055D01*
X926364Y570065D01*
X926432Y570144D01*
X926503Y570219D01*
X926511Y570237D01*
X926524Y570252D01*
X926563Y570348D01*
X926607Y570442D01*
X926609Y570462D01*
X926616Y570480D01*
X926635Y570647D01*
X926635Y601162D01*
X926644Y601168D01*
X926711Y601246D01*
X926782Y601321D01*
X926791Y601339D01*
X926804Y601354D01*
X926842Y601451D01*
X926886Y601544D01*
X926888Y601564D01*
X926896Y601583D01*
X926901Y601633D01*
X926926Y601665D01*
X926986Y601728D01*
X927001Y601762D01*
X927024Y601791D01*
X927088Y601947D01*
X927139Y602124D01*
X927141Y602146D01*
X927150Y602167D01*
X927168Y602334D01*
X927168Y611427D01*
X927165Y611447D01*
X927166Y611481D01*
X926829Y616193D01*
X926822Y616225D01*
X926814Y616300D01*
X925810Y620916D01*
X925797Y620947D01*
X925779Y621021D01*
X924128Y625447D01*
X924112Y625475D01*
X924083Y625545D01*
X921819Y629692D01*
X921799Y629717D01*
X921760Y629783D01*
X918929Y633565D01*
X918906Y633587D01*
X918858Y633647D01*
X915518Y636987D01*
X915491Y637006D01*
X915436Y637058D01*
X911654Y639889D01*
X911625Y639904D01*
X911563Y639948D01*
X907417Y642212D01*
X907386Y642223D01*
X907318Y642257D01*
X902892Y643908D01*
X902860Y643914D01*
X902788Y643938D01*
X900344Y644470D01*
X898172Y644942D01*
X898139Y644944D01*
X898064Y644958D01*
X893352Y645295D01*
X893332Y645293D01*
X893298Y645297D01*
X890085Y645297D01*
X890065Y645294D01*
X890031Y645295D01*
X884861Y644925D01*
X884829Y644918D01*
X884754Y644910D01*
X879690Y643808D01*
X879660Y643796D01*
X879586Y643778D01*
X874730Y641967D01*
X874702Y641950D01*
X874631Y641921D01*
X870083Y639438D01*
X870057Y639418D01*
X869991Y639379D01*
X865843Y636273D01*
X865820Y636250D01*
X865761Y636202D01*
X862096Y632538D01*
X862077Y632511D01*
X862025Y632456D01*
X858919Y628307D01*
X858904Y628278D01*
X858861Y628216D01*
X856377Y623667D01*
X856366Y623636D01*
X856332Y623568D01*
X854521Y618713D01*
X854515Y618681D01*
X854490Y618609D01*
X853389Y613545D01*
X853387Y613512D01*
X853373Y613437D01*
X853004Y608268D01*
X853005Y608248D01*
X853002Y608214D01*
X853002Y570647D01*
X853005Y570627D01*
X853003Y570608D01*
X853025Y570506D01*
X853041Y570404D01*
X853051Y570387D01*
X853055Y570367D01*
X853108Y570278D01*
X853156Y570187D01*
X853171Y570173D01*
X853181Y570156D01*
X853260Y570089D01*
X853335Y570018D01*
X853353Y570009D01*
X853368Y569996D01*
X853464Y569957D01*
X853558Y569914D01*
X853578Y569912D01*
X853596Y569904D01*
X853763Y569886D01*
X925873Y569886D01*
X925893Y569889D01*
G37*
G36*
X981859Y636561D02*
X981859Y636561D01*
X981879Y636559D01*
X981980Y636581D01*
X982082Y636597D01*
X982099Y636607D01*
X982119Y636611D01*
X982208Y636664D01*
X982299Y636712D01*
X982313Y636727D01*
X982330Y636737D01*
X982397Y636816D01*
X982469Y636891D01*
X982477Y636909D01*
X982490Y636924D01*
X982529Y637020D01*
X982572Y637114D01*
X982574Y637134D01*
X982582Y637152D01*
X982600Y637319D01*
X982600Y709429D01*
X982597Y709449D01*
X982599Y709469D01*
X982577Y709570D01*
X982561Y709672D01*
X982551Y709690D01*
X982547Y709709D01*
X982494Y709798D01*
X982446Y709890D01*
X982431Y709903D01*
X982421Y709920D01*
X982342Y709988D01*
X982267Y710059D01*
X982249Y710067D01*
X982234Y710080D01*
X982138Y710119D01*
X982044Y710163D01*
X982024Y710165D01*
X982006Y710172D01*
X981839Y710191D01*
X951324Y710191D01*
X951319Y710200D01*
X951240Y710267D01*
X951165Y710338D01*
X951147Y710347D01*
X951132Y710360D01*
X951035Y710398D01*
X950942Y710442D01*
X950922Y710444D01*
X950904Y710452D01*
X950853Y710457D01*
X950821Y710482D01*
X950758Y710542D01*
X950724Y710557D01*
X950695Y710580D01*
X950540Y710644D01*
X950362Y710695D01*
X950340Y710697D01*
X950319Y710706D01*
X950153Y710724D01*
X941059Y710724D01*
X941039Y710721D01*
X941005Y710722D01*
X936293Y710385D01*
X936261Y710378D01*
X936186Y710370D01*
X931570Y709366D01*
X931539Y709353D01*
X931466Y709335D01*
X927039Y707684D01*
X927011Y707668D01*
X926941Y707639D01*
X922795Y705375D01*
X922769Y705355D01*
X922703Y705316D01*
X918922Y702485D01*
X918899Y702462D01*
X918839Y702414D01*
X915499Y699074D01*
X915480Y699047D01*
X915428Y698992D01*
X912597Y695210D01*
X912582Y695181D01*
X912538Y695119D01*
X910274Y690973D01*
X910264Y690942D01*
X910229Y690874D01*
X908578Y686448D01*
X908572Y686416D01*
X908548Y686344D01*
X907544Y681728D01*
X907542Y681695D01*
X907528Y681620D01*
X907191Y676908D01*
X907193Y676888D01*
X907189Y676854D01*
X907189Y673641D01*
X907193Y673621D01*
X907191Y673587D01*
X907561Y668417D01*
X907569Y668385D01*
X907576Y668310D01*
X908678Y663246D01*
X908690Y663216D01*
X908709Y663142D01*
X910520Y658286D01*
X910536Y658258D01*
X910565Y658187D01*
X913048Y653639D01*
X913069Y653613D01*
X913107Y653547D01*
X916213Y649399D01*
X916236Y649376D01*
X916284Y649317D01*
X919948Y645652D01*
X919975Y645633D01*
X920030Y645581D01*
X924179Y642475D01*
X924208Y642460D01*
X924271Y642417D01*
X928819Y639933D01*
X928850Y639922D01*
X928918Y639888D01*
X933773Y638077D01*
X933806Y638071D01*
X933878Y638046D01*
X937137Y637337D01*
X938942Y636945D01*
X938974Y636943D01*
X939049Y636929D01*
X944218Y636560D01*
X944238Y636561D01*
X944273Y636558D01*
X981839Y636558D01*
X981859Y636561D01*
G37*
D10*
X847546Y276224D02*
X847565Y277782D01*
X847622Y279340D01*
X847718Y280895D01*
X847852Y282448D01*
X848024Y283997D01*
X848233Y285541D01*
X848481Y287080D01*
X848766Y288612D01*
X849089Y290137D01*
X849449Y291653D01*
X849846Y293160D01*
X850280Y294657D01*
X850751Y296143D01*
X851258Y297617D01*
X851801Y299077D01*
X852380Y300524D01*
X852994Y301957D01*
X853643Y303374D01*
X854326Y304774D01*
X855044Y306158D01*
X855795Y307523D01*
X856580Y308870D01*
X857398Y310196D01*
X858248Y311503D01*
X859129Y312788D01*
X860042Y314051D01*
X860986Y315291D01*
X861960Y316508D01*
X862963Y317700D01*
X863996Y318868D01*
X865056Y320010D01*
X866145Y321125D01*
X867260Y322214D01*
X868402Y323274D01*
X869570Y324307D01*
X870762Y325310D01*
X871979Y326284D01*
X873219Y327228D01*
X874482Y328141D01*
X875767Y329022D01*
X877074Y329872D01*
X878400Y330690D01*
X879747Y331475D01*
X881112Y332226D01*
X882496Y332944D01*
X883896Y333627D01*
X885313Y334276D01*
X886746Y334890D01*
X888193Y335469D01*
X889653Y336012D01*
X891127Y336519D01*
X892613Y336990D01*
X894110Y337424D01*
X895617Y337821D01*
X897133Y338181D01*
X898658Y338504D01*
X900190Y338789D01*
X901729Y339037D01*
X903273Y339246D01*
X904822Y339418D01*
X906375Y339552D01*
X907930Y339648D01*
X909488Y339705D01*
X911046Y339724D01*
X912604Y339705D01*
X914162Y339648D01*
X915717Y339552D01*
X917270Y339418D01*
X918819Y339246D01*
X920363Y339037D01*
X921902Y338789D01*
X923434Y338504D01*
X924959Y338181D01*
X926475Y337821D01*
X927982Y337424D01*
X929479Y336990D01*
X930965Y336519D01*
X932439Y336012D01*
X933899Y335469D01*
X935346Y334890D01*
X936779Y334276D01*
X938196Y333627D01*
X939596Y332944D01*
X940980Y332226D01*
X942345Y331475D01*
X943692Y330690D01*
X945018Y329872D01*
X946325Y329022D01*
X947610Y328141D01*
X948873Y327228D01*
X950113Y326284D01*
X951330Y325310D01*
X952522Y324307D01*
X953690Y323274D01*
X954832Y322214D01*
X955947Y321125D01*
X957036Y320010D01*
X958096Y318868D01*
X959129Y317700D01*
X960132Y316508D01*
X961106Y315291D01*
X962050Y314051D01*
X962963Y312788D01*
X963844Y311503D01*
X964694Y310196D01*
X965512Y308870D01*
X966297Y307523D01*
X967048Y306158D01*
X967766Y304774D01*
X968449Y303374D01*
X969098Y301957D01*
X969712Y300524D01*
X970291Y299077D01*
X970834Y297617D01*
X971341Y296143D01*
X971812Y294657D01*
X972246Y293160D01*
X972643Y291653D01*
X973003Y290137D01*
X973326Y288612D01*
X973611Y287080D01*
X973859Y285541D01*
X974068Y283997D01*
X974240Y282448D01*
X974374Y280895D01*
X974470Y279340D01*
X974527Y277782D01*
X974546Y276224D01*
X974527Y274666D01*
X974470Y273108D01*
X974374Y271553D01*
X974240Y270000D01*
X974068Y268451D01*
X973859Y266907D01*
X973611Y265368D01*
X973326Y263836D01*
X973003Y262311D01*
X972643Y260795D01*
X972246Y259288D01*
X971812Y257791D01*
X971341Y256305D01*
X970834Y254831D01*
X970291Y253371D01*
X969712Y251924D01*
X969098Y250491D01*
X968449Y249074D01*
X967766Y247674D01*
X967048Y246290D01*
X966297Y244925D01*
X965512Y243578D01*
X964694Y242252D01*
X963844Y240945D01*
X962963Y239660D01*
X962050Y238397D01*
X961106Y237157D01*
X960132Y235940D01*
X959129Y234748D01*
X958096Y233580D01*
X957036Y232438D01*
X955947Y231323D01*
X954832Y230234D01*
X953690Y229174D01*
X952522Y228141D01*
X951330Y227138D01*
X950113Y226164D01*
X948873Y225220D01*
X947610Y224307D01*
X946325Y223426D01*
X945018Y222576D01*
X943692Y221758D01*
X942345Y220973D01*
X940980Y220222D01*
X939596Y219504D01*
X938196Y218821D01*
X936779Y218172D01*
X935346Y217558D01*
X933899Y216979D01*
X932439Y216436D01*
X930965Y215929D01*
X929479Y215458D01*
X927982Y215024D01*
X926475Y214627D01*
X924959Y214267D01*
X923434Y213944D01*
X921902Y213659D01*
X920363Y213411D01*
X918819Y213202D01*
X917270Y213030D01*
X915717Y212896D01*
X914162Y212800D01*
X912604Y212743D01*
X911046Y212724D01*
X909488Y212743D01*
X907930Y212800D01*
X906375Y212896D01*
X904822Y213030D01*
X903273Y213202D01*
X901729Y213411D01*
X900190Y213659D01*
X898658Y213944D01*
X897133Y214267D01*
X895617Y214627D01*
X894110Y215024D01*
X892613Y215458D01*
X891127Y215929D01*
X889653Y216436D01*
X888193Y216979D01*
X886746Y217558D01*
X885313Y218172D01*
X883896Y218821D01*
X882496Y219504D01*
X881112Y220222D01*
X879747Y220973D01*
X878400Y221758D01*
X877074Y222576D01*
X875767Y223426D01*
X874482Y224307D01*
X873219Y225220D01*
X871979Y226164D01*
X870762Y227138D01*
X869570Y228141D01*
X868402Y229174D01*
X867260Y230234D01*
X866145Y231323D01*
X865056Y232438D01*
X863996Y233580D01*
X862963Y234748D01*
X861960Y235940D01*
X860986Y237157D01*
X860042Y238397D01*
X859129Y239660D01*
X858248Y240945D01*
X857398Y242252D01*
X856580Y243578D01*
X855795Y244925D01*
X855044Y246290D01*
X854326Y247674D01*
X853643Y249074D01*
X852994Y250491D01*
X852380Y251924D01*
X851801Y253371D01*
X851258Y254831D01*
X850751Y256305D01*
X850280Y257791D01*
X849846Y259288D01*
X849449Y260795D01*
X849089Y262311D01*
X848766Y263836D01*
X848481Y265368D01*
X848233Y266907D01*
X848024Y268451D01*
X847852Y270000D01*
X847718Y271553D01*
X847622Y273108D01*
X847565Y274666D01*
X847546Y276224D01*
D11*
X53665Y781299D02*
X46665Y781299D01*
X53665Y781300D02*
X53796Y781302D01*
X53927Y781308D01*
X54057Y781318D01*
X54187Y781331D01*
X54317Y781349D01*
X54446Y781370D01*
X54574Y781396D01*
X54702Y781425D01*
X54829Y781458D01*
X54954Y781494D01*
X55079Y781535D01*
X55202Y781579D01*
X55324Y781627D01*
X55444Y781678D01*
X55563Y781733D01*
X55680Y781792D01*
X55795Y781854D01*
X55908Y781919D01*
X56020Y781988D01*
X56129Y782060D01*
X56236Y782135D01*
X56341Y782214D01*
X56443Y782295D01*
X56543Y782380D01*
X56640Y782468D01*
X56735Y782558D01*
X56827Y782651D01*
X56916Y782747D01*
X57002Y782846D01*
X57085Y782947D01*
X57165Y783050D01*
X57242Y783156D01*
X57315Y783264D01*
X57386Y783375D01*
X57453Y783487D01*
X57517Y783601D01*
X57577Y783717D01*
X57634Y783835D01*
X57687Y783955D01*
X57737Y784076D01*
X57783Y784199D01*
X57825Y784322D01*
X57863Y784447D01*
X57898Y784574D01*
X57929Y784701D01*
X57957Y784829D01*
X57980Y784957D01*
X57999Y785087D01*
X58015Y785217D01*
X58027Y785347D01*
X58035Y785478D01*
X58039Y785609D01*
X58039Y785739D01*
X58035Y785870D01*
X58027Y786001D01*
X58015Y786131D01*
X57999Y786261D01*
X57980Y786391D01*
X57957Y786519D01*
X57929Y786647D01*
X57898Y786774D01*
X57863Y786901D01*
X57825Y787026D01*
X57783Y787149D01*
X57737Y787272D01*
X57687Y787393D01*
X57634Y787513D01*
X57577Y787631D01*
X57517Y787747D01*
X57453Y787861D01*
X57386Y787973D01*
X57315Y788084D01*
X57242Y788192D01*
X57165Y788298D01*
X57085Y788401D01*
X57002Y788502D01*
X56916Y788601D01*
X56827Y788697D01*
X56735Y788790D01*
X56640Y788880D01*
X56543Y788968D01*
X56443Y789053D01*
X56341Y789134D01*
X56236Y789213D01*
X56129Y789288D01*
X56020Y789360D01*
X55908Y789429D01*
X55795Y789494D01*
X55680Y789556D01*
X55563Y789615D01*
X55444Y789670D01*
X55324Y789721D01*
X55202Y789769D01*
X55079Y789813D01*
X54954Y789854D01*
X54829Y789890D01*
X54702Y789923D01*
X54574Y789952D01*
X54446Y789978D01*
X54317Y789999D01*
X54187Y790017D01*
X54057Y790030D01*
X53927Y790040D01*
X53796Y790046D01*
X53665Y790048D01*
X46665Y790048D01*
X46534Y790046D01*
X46403Y790040D01*
X46273Y790030D01*
X46143Y790017D01*
X46013Y789999D01*
X45884Y789978D01*
X45756Y789952D01*
X45628Y789923D01*
X45501Y789890D01*
X45376Y789854D01*
X45251Y789813D01*
X45128Y789769D01*
X45006Y789721D01*
X44886Y789670D01*
X44767Y789615D01*
X44650Y789556D01*
X44535Y789494D01*
X44422Y789429D01*
X44310Y789360D01*
X44201Y789288D01*
X44094Y789213D01*
X43989Y789134D01*
X43887Y789053D01*
X43787Y788968D01*
X43690Y788880D01*
X43595Y788790D01*
X43503Y788697D01*
X43414Y788601D01*
X43328Y788502D01*
X43245Y788401D01*
X43165Y788298D01*
X43088Y788192D01*
X43015Y788084D01*
X42944Y787973D01*
X42877Y787861D01*
X42813Y787747D01*
X42753Y787631D01*
X42696Y787513D01*
X42643Y787393D01*
X42593Y787272D01*
X42547Y787149D01*
X42505Y787026D01*
X42467Y786901D01*
X42432Y786774D01*
X42401Y786647D01*
X42373Y786519D01*
X42350Y786391D01*
X42331Y786261D01*
X42315Y786131D01*
X42303Y786001D01*
X42295Y785870D01*
X42291Y785739D01*
X42291Y785609D01*
X42295Y785478D01*
X42303Y785347D01*
X42315Y785217D01*
X42331Y785087D01*
X42350Y784957D01*
X42373Y784829D01*
X42401Y784701D01*
X42432Y784574D01*
X42467Y784447D01*
X42505Y784322D01*
X42547Y784199D01*
X42593Y784076D01*
X42643Y783955D01*
X42696Y783835D01*
X42753Y783717D01*
X42813Y783601D01*
X42877Y783487D01*
X42944Y783375D01*
X43015Y783264D01*
X43088Y783156D01*
X43165Y783050D01*
X43245Y782947D01*
X43328Y782846D01*
X43414Y782747D01*
X43503Y782651D01*
X43595Y782558D01*
X43690Y782468D01*
X43787Y782380D01*
X43887Y782295D01*
X43989Y782214D01*
X44094Y782135D01*
X44201Y782060D01*
X44310Y781988D01*
X44422Y781919D01*
X44535Y781854D01*
X44650Y781792D01*
X44767Y781733D01*
X44886Y781678D01*
X45006Y781627D01*
X45128Y781579D01*
X45251Y781535D01*
X45376Y781494D01*
X45501Y781458D01*
X45628Y781425D01*
X45756Y781396D01*
X45884Y781370D01*
X46013Y781349D01*
X46143Y781331D01*
X46273Y781318D01*
X46403Y781308D01*
X46534Y781302D01*
X46665Y781300D01*
X42291Y797452D02*
X58039Y797452D01*
X42291Y806201D01*
X58039Y806201D01*
X53665Y711883D02*
X46665Y711883D01*
X53665Y711883D02*
X53796Y711885D01*
X53927Y711891D01*
X54057Y711901D01*
X54187Y711914D01*
X54317Y711932D01*
X54446Y711953D01*
X54574Y711979D01*
X54702Y712008D01*
X54829Y712041D01*
X54954Y712077D01*
X55079Y712118D01*
X55202Y712162D01*
X55324Y712210D01*
X55444Y712261D01*
X55563Y712316D01*
X55680Y712375D01*
X55795Y712437D01*
X55908Y712502D01*
X56020Y712571D01*
X56129Y712643D01*
X56236Y712718D01*
X56341Y712797D01*
X56443Y712878D01*
X56543Y712963D01*
X56640Y713051D01*
X56735Y713141D01*
X56827Y713234D01*
X56916Y713330D01*
X57002Y713429D01*
X57085Y713530D01*
X57165Y713633D01*
X57242Y713739D01*
X57315Y713847D01*
X57386Y713958D01*
X57453Y714070D01*
X57517Y714184D01*
X57577Y714300D01*
X57634Y714418D01*
X57687Y714538D01*
X57737Y714659D01*
X57783Y714782D01*
X57825Y714905D01*
X57863Y715030D01*
X57898Y715157D01*
X57929Y715284D01*
X57957Y715412D01*
X57980Y715540D01*
X57999Y715670D01*
X58015Y715800D01*
X58027Y715930D01*
X58035Y716061D01*
X58039Y716192D01*
X58039Y716322D01*
X58035Y716453D01*
X58027Y716584D01*
X58015Y716714D01*
X57999Y716844D01*
X57980Y716974D01*
X57957Y717102D01*
X57929Y717230D01*
X57898Y717357D01*
X57863Y717484D01*
X57825Y717609D01*
X57783Y717732D01*
X57737Y717855D01*
X57687Y717976D01*
X57634Y718096D01*
X57577Y718214D01*
X57517Y718330D01*
X57453Y718444D01*
X57386Y718556D01*
X57315Y718667D01*
X57242Y718775D01*
X57165Y718881D01*
X57085Y718984D01*
X57002Y719085D01*
X56916Y719184D01*
X56827Y719280D01*
X56735Y719373D01*
X56640Y719463D01*
X56543Y719551D01*
X56443Y719636D01*
X56341Y719717D01*
X56236Y719796D01*
X56129Y719871D01*
X56020Y719943D01*
X55908Y720012D01*
X55795Y720077D01*
X55680Y720139D01*
X55563Y720198D01*
X55444Y720253D01*
X55324Y720304D01*
X55202Y720352D01*
X55079Y720396D01*
X54954Y720437D01*
X54829Y720473D01*
X54702Y720506D01*
X54574Y720535D01*
X54446Y720561D01*
X54317Y720582D01*
X54187Y720600D01*
X54057Y720613D01*
X53927Y720623D01*
X53796Y720629D01*
X53665Y720631D01*
X53665Y720632D02*
X46665Y720632D01*
X46665Y720631D02*
X46534Y720629D01*
X46403Y720623D01*
X46273Y720613D01*
X46143Y720600D01*
X46013Y720582D01*
X45884Y720561D01*
X45756Y720535D01*
X45628Y720506D01*
X45501Y720473D01*
X45376Y720437D01*
X45251Y720396D01*
X45128Y720352D01*
X45006Y720304D01*
X44886Y720253D01*
X44767Y720198D01*
X44650Y720139D01*
X44535Y720077D01*
X44422Y720012D01*
X44310Y719943D01*
X44201Y719871D01*
X44094Y719796D01*
X43989Y719717D01*
X43887Y719636D01*
X43787Y719551D01*
X43690Y719463D01*
X43595Y719373D01*
X43503Y719280D01*
X43414Y719184D01*
X43328Y719085D01*
X43245Y718984D01*
X43165Y718881D01*
X43088Y718775D01*
X43015Y718667D01*
X42944Y718556D01*
X42877Y718444D01*
X42813Y718330D01*
X42753Y718214D01*
X42696Y718096D01*
X42643Y717976D01*
X42593Y717855D01*
X42547Y717732D01*
X42505Y717609D01*
X42467Y717484D01*
X42432Y717357D01*
X42401Y717230D01*
X42373Y717102D01*
X42350Y716974D01*
X42331Y716844D01*
X42315Y716714D01*
X42303Y716584D01*
X42295Y716453D01*
X42291Y716322D01*
X42291Y716192D01*
X42295Y716061D01*
X42303Y715930D01*
X42315Y715800D01*
X42331Y715670D01*
X42350Y715540D01*
X42373Y715412D01*
X42401Y715284D01*
X42432Y715157D01*
X42467Y715030D01*
X42505Y714905D01*
X42547Y714782D01*
X42593Y714659D01*
X42643Y714538D01*
X42696Y714418D01*
X42753Y714300D01*
X42813Y714184D01*
X42877Y714070D01*
X42944Y713958D01*
X43015Y713847D01*
X43088Y713739D01*
X43165Y713633D01*
X43245Y713530D01*
X43328Y713429D01*
X43414Y713330D01*
X43503Y713234D01*
X43595Y713141D01*
X43690Y713051D01*
X43787Y712963D01*
X43887Y712878D01*
X43989Y712797D01*
X44094Y712718D01*
X44201Y712643D01*
X44310Y712571D01*
X44422Y712502D01*
X44535Y712437D01*
X44650Y712375D01*
X44767Y712316D01*
X44886Y712261D01*
X45006Y712210D01*
X45128Y712162D01*
X45251Y712118D01*
X45376Y712077D01*
X45501Y712041D01*
X45628Y712008D01*
X45756Y711979D01*
X45884Y711953D01*
X46013Y711932D01*
X46143Y711914D01*
X46273Y711901D01*
X46403Y711891D01*
X46534Y711885D01*
X46665Y711883D01*
X42291Y728071D02*
X58039Y728071D01*
X58039Y735070D01*
X51040Y735070D02*
X51040Y728071D01*
X58039Y741618D02*
X42291Y741618D01*
X58039Y741618D02*
X58039Y748617D01*
X51040Y748617D02*
X51040Y741618D01*
X58039Y334257D02*
X42291Y334257D01*
X58039Y334257D02*
X58039Y338631D01*
X58037Y338762D01*
X58031Y338893D01*
X58021Y339023D01*
X58008Y339153D01*
X57990Y339283D01*
X57969Y339412D01*
X57943Y339540D01*
X57914Y339668D01*
X57881Y339795D01*
X57845Y339920D01*
X57804Y340045D01*
X57760Y340168D01*
X57712Y340290D01*
X57661Y340410D01*
X57606Y340529D01*
X57547Y340646D01*
X57485Y340761D01*
X57420Y340874D01*
X57351Y340986D01*
X57279Y341095D01*
X57204Y341202D01*
X57125Y341307D01*
X57044Y341409D01*
X56959Y341509D01*
X56871Y341606D01*
X56781Y341701D01*
X56688Y341793D01*
X56592Y341882D01*
X56493Y341968D01*
X56392Y342051D01*
X56289Y342131D01*
X56183Y342208D01*
X56075Y342281D01*
X55964Y342352D01*
X55852Y342419D01*
X55738Y342483D01*
X55622Y342543D01*
X55504Y342600D01*
X55384Y342653D01*
X55263Y342703D01*
X55140Y342749D01*
X55017Y342791D01*
X54892Y342829D01*
X54765Y342864D01*
X54638Y342895D01*
X54510Y342923D01*
X54382Y342946D01*
X54252Y342965D01*
X54122Y342981D01*
X53992Y342993D01*
X53861Y343001D01*
X53730Y343005D01*
X53600Y343005D01*
X53469Y343001D01*
X53338Y342993D01*
X53208Y342981D01*
X53078Y342965D01*
X52948Y342946D01*
X52820Y342923D01*
X52692Y342895D01*
X52565Y342864D01*
X52438Y342829D01*
X52313Y342791D01*
X52190Y342749D01*
X52067Y342703D01*
X51946Y342653D01*
X51826Y342600D01*
X51708Y342543D01*
X51592Y342483D01*
X51478Y342419D01*
X51366Y342352D01*
X51255Y342281D01*
X51147Y342208D01*
X51041Y342131D01*
X50938Y342051D01*
X50837Y341968D01*
X50738Y341882D01*
X50642Y341793D01*
X50549Y341701D01*
X50459Y341606D01*
X50371Y341509D01*
X50286Y341409D01*
X50205Y341307D01*
X50126Y341202D01*
X50051Y341095D01*
X49979Y340986D01*
X49910Y340874D01*
X49845Y340761D01*
X49783Y340646D01*
X49724Y340529D01*
X49669Y340410D01*
X49618Y340290D01*
X49570Y340168D01*
X49526Y340045D01*
X49485Y339920D01*
X49449Y339795D01*
X49416Y339668D01*
X49387Y339540D01*
X49361Y339412D01*
X49340Y339283D01*
X49322Y339153D01*
X49309Y339023D01*
X49299Y338893D01*
X49293Y338762D01*
X49291Y338631D01*
X49290Y338631D02*
X49290Y334257D01*
X49290Y339506D02*
X42291Y343006D01*
X42291Y350335D02*
X42291Y357334D01*
X42291Y350335D02*
X58039Y350335D01*
X58039Y357334D01*
X51040Y355584D02*
X51040Y350335D01*
X42291Y368053D02*
X42293Y368170D01*
X42299Y368287D01*
X42309Y368403D01*
X42322Y368520D01*
X42340Y368635D01*
X42361Y368750D01*
X42386Y368864D01*
X42415Y368978D01*
X42448Y369090D01*
X42485Y369201D01*
X42525Y369311D01*
X42569Y369419D01*
X42616Y369526D01*
X42667Y369632D01*
X42722Y369735D01*
X42780Y369837D01*
X42841Y369936D01*
X42905Y370034D01*
X42973Y370129D01*
X43044Y370222D01*
X43118Y370313D01*
X43195Y370401D01*
X43275Y370486D01*
X43358Y370569D01*
X43443Y370649D01*
X43531Y370726D01*
X43622Y370800D01*
X43715Y370871D01*
X43810Y370939D01*
X43908Y371003D01*
X44007Y371064D01*
X44109Y371122D01*
X44212Y371177D01*
X44318Y371228D01*
X44425Y371275D01*
X44533Y371319D01*
X44643Y371359D01*
X44754Y371396D01*
X44866Y371429D01*
X44980Y371458D01*
X45094Y371483D01*
X45209Y371504D01*
X45324Y371522D01*
X45441Y371535D01*
X45557Y371545D01*
X45674Y371551D01*
X45791Y371553D01*
X42291Y368053D02*
X42293Y367876D01*
X42299Y367699D01*
X42310Y367523D01*
X42325Y367347D01*
X42344Y367171D01*
X42367Y366995D01*
X42394Y366821D01*
X42426Y366646D01*
X42462Y366473D01*
X42502Y366301D01*
X42546Y366130D01*
X42594Y365959D01*
X42646Y365790D01*
X42702Y365623D01*
X42762Y365456D01*
X42826Y365291D01*
X42894Y365128D01*
X42966Y364966D01*
X43042Y364807D01*
X43121Y364649D01*
X43205Y364493D01*
X43292Y364339D01*
X43383Y364187D01*
X43477Y364037D01*
X43575Y363890D01*
X43676Y363745D01*
X43781Y363602D01*
X43889Y363462D01*
X44000Y363325D01*
X44115Y363190D01*
X44233Y363059D01*
X44354Y362930D01*
X44478Y362804D01*
X54539Y363241D02*
X54656Y363243D01*
X54773Y363249D01*
X54889Y363259D01*
X55006Y363272D01*
X55121Y363290D01*
X55236Y363311D01*
X55350Y363336D01*
X55464Y363365D01*
X55576Y363398D01*
X55687Y363435D01*
X55797Y363475D01*
X55905Y363519D01*
X56012Y363566D01*
X56118Y363617D01*
X56221Y363672D01*
X56323Y363730D01*
X56422Y363791D01*
X56520Y363855D01*
X56615Y363923D01*
X56708Y363994D01*
X56799Y364068D01*
X56887Y364145D01*
X56972Y364225D01*
X57055Y364308D01*
X57135Y364393D01*
X57212Y364481D01*
X57286Y364572D01*
X57357Y364665D01*
X57425Y364760D01*
X57489Y364858D01*
X57550Y364957D01*
X57608Y365059D01*
X57663Y365162D01*
X57714Y365268D01*
X57761Y365375D01*
X57805Y365483D01*
X57845Y365593D01*
X57882Y365704D01*
X57915Y365816D01*
X57944Y365930D01*
X57969Y366044D01*
X57990Y366159D01*
X58008Y366274D01*
X58021Y366391D01*
X58031Y366507D01*
X58037Y366624D01*
X58039Y366741D01*
X58037Y366897D01*
X58032Y367054D01*
X58022Y367210D01*
X58009Y367366D01*
X57992Y367521D01*
X57972Y367676D01*
X57948Y367831D01*
X57920Y367985D01*
X57889Y368138D01*
X57854Y368290D01*
X57815Y368442D01*
X57772Y368592D01*
X57727Y368742D01*
X57677Y368890D01*
X57624Y369037D01*
X57568Y369183D01*
X57508Y369328D01*
X57444Y369471D01*
X57378Y369612D01*
X57308Y369752D01*
X57234Y369890D01*
X57157Y370026D01*
X57078Y370161D01*
X56994Y370293D01*
X56908Y370424D01*
X56819Y370552D01*
X56727Y370678D01*
X51477Y364992D02*
X51537Y364893D01*
X51601Y364797D01*
X51667Y364703D01*
X51736Y364611D01*
X51809Y364521D01*
X51884Y364433D01*
X51962Y364349D01*
X52043Y364266D01*
X52126Y364187D01*
X52212Y364110D01*
X52300Y364036D01*
X52391Y363964D01*
X52484Y363896D01*
X52579Y363831D01*
X52677Y363769D01*
X52776Y363710D01*
X52877Y363655D01*
X52980Y363602D01*
X53084Y363554D01*
X53190Y363508D01*
X53297Y363466D01*
X53406Y363427D01*
X53516Y363392D01*
X53627Y363361D01*
X53739Y363333D01*
X53851Y363309D01*
X53965Y363289D01*
X54079Y363272D01*
X54194Y363259D01*
X54309Y363249D01*
X54424Y363244D01*
X54539Y363242D01*
X48853Y369803D02*
X48793Y369902D01*
X48729Y369998D01*
X48663Y370092D01*
X48594Y370184D01*
X48521Y370274D01*
X48446Y370362D01*
X48368Y370446D01*
X48287Y370529D01*
X48204Y370608D01*
X48118Y370685D01*
X48030Y370759D01*
X47939Y370831D01*
X47846Y370899D01*
X47751Y370964D01*
X47653Y371026D01*
X47554Y371085D01*
X47453Y371140D01*
X47350Y371193D01*
X47246Y371242D01*
X47140Y371287D01*
X47033Y371329D01*
X46924Y371368D01*
X46814Y371403D01*
X46703Y371434D01*
X46591Y371462D01*
X46479Y371486D01*
X46365Y371506D01*
X46251Y371523D01*
X46136Y371536D01*
X46021Y371546D01*
X45906Y371551D01*
X45791Y371553D01*
X48853Y369803D02*
X51477Y364991D01*
X42291Y378471D02*
X42291Y385470D01*
X42291Y378471D02*
X58039Y378471D01*
X58039Y385470D01*
X51040Y383720D02*
X51040Y378471D01*
X58039Y394794D02*
X42291Y394794D01*
X58039Y390419D02*
X58039Y399168D01*
D12*
X205920Y822120D03*
X224640Y822120D03*
X233220Y822120D03*
D13*
X248430Y822120D03*
D12*
X271440Y822120D03*
X294840Y822120D03*
X310440Y822120D03*
X319020Y822120D03*
D13*
X334230Y822120D03*
D12*
X342420Y822120D03*
D13*
X361530Y822120D03*
X370110Y822120D03*
X385710Y822120D03*
D12*
X393900Y822120D03*
X410280Y822120D03*
D13*
X425490Y822120D03*
D14*
X440700Y822120D03*
X461760Y822120D03*
D12*
X482820Y822120D03*
D15*
X505050Y822120D03*
D13*
X519870Y822120D03*
X534690Y822120D03*
D12*
X549120Y822120D03*
D16*
X577980Y822120D03*
D15*
X593190Y822120D03*
D17*
X612300Y822120D03*
D15*
X629070Y822120D03*
D12*
X656760Y822120D03*
D13*
X671970Y822120D03*
X686790Y822120D03*
D14*
X701220Y822120D03*
D12*
X716820Y822120D03*
D18*
X725790Y822120D03*
D13*
X739830Y822120D03*
D12*
X755820Y822120D03*
D13*
X785070Y822120D03*
D14*
X800280Y822120D03*
D15*
X821730Y822120D03*
D12*
X205920Y822900D03*
X224640Y822900D03*
D18*
X233610Y822900D03*
D13*
X248430Y822900D03*
D12*
X271440Y822900D03*
X294840Y822900D03*
X310440Y822900D03*
D18*
X319410Y822900D03*
D13*
X334230Y822900D03*
D12*
X342420Y822900D03*
D13*
X361530Y822900D03*
D12*
X370500Y822900D03*
D13*
X385710Y822900D03*
D12*
X393900Y822900D03*
D18*
X410670Y822900D03*
D13*
X425490Y822900D03*
D19*
X440700Y822900D03*
X461760Y822900D03*
D12*
X482820Y822900D03*
D19*
X504660Y822900D03*
D13*
X519870Y822900D03*
X534690Y822900D03*
D12*
X549120Y822900D03*
D15*
X576810Y822900D03*
D14*
X593580Y822900D03*
D15*
X611910Y822900D03*
D14*
X629460Y822900D03*
D12*
X656760Y822900D03*
D13*
X671970Y822900D03*
X686790Y822900D03*
D19*
X701220Y822900D03*
D12*
X716820Y822900D03*
D18*
X726570Y822900D03*
D13*
X739830Y822900D03*
D12*
X755820Y822900D03*
D13*
X785070Y822900D03*
D19*
X800280Y822900D03*
X821340Y822900D03*
D12*
X205920Y823680D03*
X224640Y823680D03*
D20*
X234000Y823680D03*
D13*
X248430Y823680D03*
D12*
X271440Y823680D03*
X294840Y823680D03*
X310440Y823680D03*
D20*
X319800Y823680D03*
D13*
X334230Y823680D03*
D12*
X342420Y823680D03*
D13*
X361530Y823680D03*
D18*
X370890Y823680D03*
D13*
X385710Y823680D03*
D12*
X393900Y823680D03*
D20*
X411060Y823680D03*
D13*
X425490Y823680D03*
D21*
X440310Y823680D03*
X461370Y823680D03*
D12*
X482820Y823680D03*
D21*
X505050Y823680D03*
D13*
X519870Y823680D03*
X534690Y823680D03*
D12*
X549120Y823680D03*
D15*
X576810Y823680D03*
D14*
X593580Y823680D03*
D22*
X611910Y823680D03*
D14*
X629460Y823680D03*
D12*
X656760Y823680D03*
D13*
X671970Y823680D03*
X686790Y823680D03*
D21*
X701610Y823680D03*
D12*
X716820Y823680D03*
D18*
X727350Y823680D03*
D13*
X739830Y823680D03*
D12*
X755820Y823680D03*
D13*
X785070Y823680D03*
D19*
X800280Y823680D03*
D21*
X821730Y823680D03*
D12*
X205920Y824460D03*
X224640Y824460D03*
D23*
X234390Y824460D03*
D13*
X248430Y824460D03*
D12*
X271440Y824460D03*
X294840Y824460D03*
X310440Y824460D03*
D23*
X320190Y824460D03*
D13*
X334230Y824460D03*
D12*
X342420Y824460D03*
D13*
X361530Y824460D03*
D23*
X371670Y824460D03*
D13*
X385710Y824460D03*
D12*
X393900Y824460D03*
D23*
X411450Y824460D03*
D13*
X425490Y824460D03*
D21*
X440310Y824460D03*
X461370Y824460D03*
D12*
X482820Y824460D03*
D21*
X505050Y824460D03*
D13*
X519870Y824460D03*
X534690Y824460D03*
D12*
X549120Y824460D03*
D13*
X571350Y824460D03*
D18*
X597870Y824460D03*
D24*
X606060Y824460D03*
X617760Y824460D03*
D18*
X633750Y824460D03*
D12*
X656760Y824460D03*
D13*
X671970Y824460D03*
X686790Y824460D03*
D25*
X701220Y824460D03*
D12*
X716820Y824460D03*
D18*
X728130Y824460D03*
D13*
X739830Y824460D03*
D12*
X755820Y824460D03*
D13*
X785070Y824460D03*
D21*
X799890Y824460D03*
X821730Y824460D03*
D12*
X205920Y825240D03*
X224640Y825240D03*
D26*
X234780Y825240D03*
D13*
X248430Y825240D03*
D12*
X271440Y825240D03*
X294840Y825240D03*
X310440Y825240D03*
D26*
X320580Y825240D03*
D13*
X334230Y825240D03*
D12*
X342420Y825240D03*
D13*
X361530Y825240D03*
D26*
X372060Y825240D03*
D13*
X385710Y825240D03*
D12*
X393900Y825240D03*
D26*
X411840Y825240D03*
D13*
X425490Y825240D03*
X433290Y825240D03*
X447330Y825240D03*
X454350Y825240D03*
X468390Y825240D03*
D12*
X482820Y825240D03*
D13*
X498030Y825240D03*
X512070Y825240D03*
X519870Y825240D03*
X534690Y825240D03*
D12*
X549120Y825240D03*
D13*
X571350Y825240D03*
D12*
X597480Y825240D03*
D24*
X606060Y825240D03*
X617760Y825240D03*
D12*
X633360Y825240D03*
X656760Y825240D03*
D13*
X671970Y825240D03*
D12*
X686400Y825240D03*
X694200Y825240D03*
D13*
X708630Y825240D03*
D12*
X716820Y825240D03*
D18*
X728910Y825240D03*
D13*
X739830Y825240D03*
D12*
X755820Y825240D03*
D13*
X785070Y825240D03*
X792870Y825240D03*
X806910Y825240D03*
X814710Y825240D03*
X828750Y825240D03*
D12*
X205920Y826020D03*
X224640Y826020D03*
D17*
X235560Y826020D03*
D13*
X248430Y826020D03*
D12*
X271440Y826020D03*
X294840Y826020D03*
X310440Y826020D03*
D17*
X321360Y826020D03*
D13*
X334230Y826020D03*
D12*
X342420Y826020D03*
D13*
X361530Y826020D03*
D27*
X372450Y826020D03*
D13*
X385710Y826020D03*
D12*
X393900Y826020D03*
D27*
X412230Y826020D03*
D13*
X425490Y826020D03*
X433290Y826020D03*
X447330Y826020D03*
X454350Y826020D03*
X468390Y826020D03*
D12*
X482820Y826020D03*
D13*
X498030Y826020D03*
X512070Y826020D03*
X519870Y826020D03*
X534690Y826020D03*
D12*
X549120Y826020D03*
D13*
X571350Y826020D03*
X596310Y826020D03*
D24*
X606060Y826020D03*
X617760Y826020D03*
D13*
X632190Y826020D03*
D12*
X656760Y826020D03*
D13*
X671970Y826020D03*
X686790Y826020D03*
X693810Y826020D03*
X708630Y826020D03*
D12*
X716820Y826020D03*
D18*
X729690Y826020D03*
D13*
X739830Y826020D03*
D12*
X755820Y826020D03*
D13*
X785070Y826020D03*
X792870Y826020D03*
X806910Y826020D03*
X814710Y826020D03*
X828750Y826020D03*
D12*
X205920Y826800D03*
X224640Y826800D03*
D28*
X235950Y826800D03*
D13*
X248430Y826800D03*
D12*
X271440Y826800D03*
X294840Y826800D03*
X310440Y826800D03*
D28*
X321750Y826800D03*
D13*
X334230Y826800D03*
D12*
X342420Y826800D03*
D13*
X361530Y826800D03*
D17*
X372840Y826800D03*
D13*
X385710Y826800D03*
D12*
X393900Y826800D03*
D28*
X413010Y826800D03*
D13*
X425490Y826800D03*
X433290Y826800D03*
X447330Y826800D03*
X454350Y826800D03*
X468390Y826800D03*
D12*
X482820Y826800D03*
D13*
X498030Y826800D03*
X512070Y826800D03*
X519870Y826800D03*
X534690Y826800D03*
D12*
X549120Y826800D03*
D13*
X571350Y826800D03*
D12*
X595140Y826800D03*
D24*
X606060Y826800D03*
X617760Y826800D03*
D12*
X631020Y826800D03*
X656760Y826800D03*
D13*
X671970Y826800D03*
X686790Y826800D03*
X693810Y826800D03*
X708630Y826800D03*
D12*
X716820Y826800D03*
D18*
X730470Y826800D03*
D13*
X739830Y826800D03*
D12*
X755820Y826800D03*
D13*
X785070Y826800D03*
X792870Y826800D03*
X806910Y826800D03*
X814710Y826800D03*
X828750Y826800D03*
D12*
X205920Y827580D03*
X224640Y827580D03*
D13*
X232830Y827580D03*
D20*
X238680Y827580D03*
D13*
X248430Y827580D03*
D12*
X271440Y827580D03*
X294840Y827580D03*
X310440Y827580D03*
D13*
X318630Y827580D03*
D20*
X324480Y827580D03*
D13*
X334230Y827580D03*
D12*
X342420Y827580D03*
D13*
X361530Y827580D03*
X370110Y827580D03*
D20*
X375180Y827580D03*
D13*
X385710Y827580D03*
D12*
X393900Y827580D03*
D13*
X409890Y827580D03*
D20*
X415740Y827580D03*
D13*
X425490Y827580D03*
X433290Y827580D03*
X447330Y827580D03*
X454350Y827580D03*
X468390Y827580D03*
D12*
X482820Y827580D03*
D13*
X498030Y827580D03*
X512070Y827580D03*
X519870Y827580D03*
D12*
X534300Y827580D03*
X549120Y827580D03*
D24*
X571740Y827580D03*
D13*
X593970Y827580D03*
D24*
X606060Y827580D03*
X617760Y827580D03*
D13*
X629850Y827580D03*
D12*
X656760Y827580D03*
D13*
X671970Y827580D03*
D12*
X686400Y827580D03*
D13*
X693810Y827580D03*
X708630Y827580D03*
D12*
X716820Y827580D03*
D20*
X730860Y827580D03*
D13*
X739830Y827580D03*
D12*
X755820Y827580D03*
D13*
X785070Y827580D03*
X792870Y827580D03*
X806910Y827580D03*
X814710Y827580D03*
X828750Y827580D03*
D21*
X199290Y828360D03*
D29*
X221130Y828360D03*
D13*
X232830Y828360D03*
D20*
X239460Y828360D03*
D13*
X248430Y828360D03*
D12*
X271440Y828360D03*
X294840Y828360D03*
X310440Y828360D03*
D13*
X318630Y828360D03*
D20*
X325260Y828360D03*
D13*
X334230Y828360D03*
D12*
X342420Y828360D03*
D16*
X358020Y828360D03*
D13*
X370110Y828360D03*
D20*
X376740Y828360D03*
D13*
X385710Y828360D03*
D12*
X393900Y828360D03*
D13*
X409890Y828360D03*
D20*
X416520Y828360D03*
D13*
X425490Y828360D03*
X433290Y828360D03*
X447330Y828360D03*
X468390Y828360D03*
D12*
X482820Y828360D03*
D13*
X498030Y828360D03*
X512070Y828360D03*
D25*
X527280Y828360D03*
D12*
X549120Y828360D03*
D13*
X572130Y828360D03*
D12*
X592800Y828360D03*
D24*
X606060Y828360D03*
D30*
X611910Y828360D03*
D24*
X617760Y828360D03*
D12*
X628680Y828360D03*
X656760Y828360D03*
D25*
X679380Y828360D03*
D12*
X694200Y828360D03*
D13*
X708630Y828360D03*
D12*
X716820Y828360D03*
D19*
X733200Y828360D03*
D12*
X755820Y828360D03*
D19*
X778440Y828360D03*
D13*
X792870Y828360D03*
X806910Y828360D03*
X828750Y828360D03*
D21*
X199290Y829140D03*
D29*
X221130Y829140D03*
D13*
X232830Y829140D03*
D20*
X240240Y829140D03*
D13*
X248430Y829140D03*
D18*
X271830Y829140D03*
D12*
X294840Y829140D03*
X310440Y829140D03*
D13*
X318630Y829140D03*
D20*
X326040Y829140D03*
D13*
X334230Y829140D03*
D12*
X342420Y829140D03*
D16*
X358020Y829140D03*
D13*
X370110Y829140D03*
D20*
X377520Y829140D03*
D13*
X385710Y829140D03*
D12*
X393900Y829140D03*
D13*
X409890Y829140D03*
D20*
X417300Y829140D03*
D13*
X425490Y829140D03*
X433290Y829140D03*
X447330Y829140D03*
X468390Y829140D03*
D12*
X482820Y829140D03*
D13*
X498030Y829140D03*
X512070Y829140D03*
D25*
X527280Y829140D03*
D12*
X549120Y829140D03*
D26*
X575640Y829140D03*
D12*
X592020Y829140D03*
D24*
X606060Y829140D03*
D30*
X611910Y829140D03*
D24*
X617760Y829140D03*
D12*
X627900Y829140D03*
X656760Y829140D03*
D25*
X679380Y829140D03*
D17*
X696540Y829140D03*
D13*
X708630Y829140D03*
D12*
X716820Y829140D03*
D21*
X732810Y829140D03*
D20*
X755820Y829140D03*
D21*
X778050Y829140D03*
D13*
X792870Y829140D03*
X806910Y829140D03*
X828750Y829140D03*
D21*
X199290Y829920D03*
D29*
X221130Y829920D03*
D13*
X232830Y829920D03*
D20*
X241020Y829920D03*
D13*
X248430Y829920D03*
D23*
X271830Y829920D03*
D12*
X294840Y829920D03*
X310440Y829920D03*
D13*
X318630Y829920D03*
D20*
X326820Y829920D03*
D13*
X334230Y829920D03*
D12*
X342420Y829920D03*
D16*
X358020Y829920D03*
D13*
X370110Y829920D03*
D20*
X378300Y829920D03*
D13*
X385710Y829920D03*
D12*
X393900Y829920D03*
D13*
X409890Y829920D03*
D23*
X418470Y829920D03*
D13*
X425490Y829920D03*
X433290Y829920D03*
X447330Y829920D03*
X468390Y829920D03*
D12*
X482820Y829920D03*
D13*
X498030Y829920D03*
X512070Y829920D03*
D25*
X527280Y829920D03*
D12*
X549120Y829920D03*
D26*
X575640Y829920D03*
D13*
X590850Y829920D03*
D24*
X606060Y829920D03*
D30*
X611910Y829920D03*
D24*
X617760Y829920D03*
D13*
X626730Y829920D03*
D12*
X656760Y829920D03*
D25*
X679380Y829920D03*
D17*
X696540Y829920D03*
D13*
X708630Y829920D03*
D12*
X716820Y829920D03*
D21*
X732810Y829920D03*
D26*
X755820Y829920D03*
D21*
X778050Y829920D03*
D13*
X792870Y829920D03*
X806910Y829920D03*
X828750Y829920D03*
D21*
X199290Y830700D03*
D29*
X221130Y830700D03*
D13*
X232830Y830700D03*
D18*
X242190Y830700D03*
D13*
X248430Y830700D03*
D27*
X271830Y830700D03*
D12*
X294840Y830700D03*
X310440Y830700D03*
D13*
X318630Y830700D03*
D20*
X328380Y830700D03*
D13*
X334230Y830700D03*
D12*
X342420Y830700D03*
D16*
X358020Y830700D03*
D13*
X370110Y830700D03*
D20*
X379080Y830700D03*
D13*
X385710Y830700D03*
D12*
X393900Y830700D03*
D13*
X409890Y830700D03*
D20*
X419640Y830700D03*
D13*
X425490Y830700D03*
X433290Y830700D03*
X447330Y830700D03*
X468390Y830700D03*
D12*
X482820Y830700D03*
D13*
X498030Y830700D03*
X512070Y830700D03*
D25*
X527280Y830700D03*
D12*
X549120Y830700D03*
D24*
X572520Y830700D03*
D12*
X589680Y830700D03*
D24*
X606060Y830700D03*
X617760Y830700D03*
D12*
X625560Y830700D03*
X656760Y830700D03*
D25*
X679380Y830700D03*
D13*
X708630Y830700D03*
D12*
X716820Y830700D03*
D21*
X732810Y830700D03*
D17*
X755820Y830700D03*
D21*
X778050Y830700D03*
D13*
X792870Y830700D03*
X806910Y830700D03*
X828750Y830700D03*
X192270Y831480D03*
D12*
X205920Y831480D03*
X224640Y831480D03*
D13*
X232830Y831480D03*
D20*
X243360Y831480D03*
D13*
X248430Y831480D03*
D28*
X271830Y831480D03*
D12*
X294840Y831480D03*
X310440Y831480D03*
D13*
X318630Y831480D03*
D20*
X329160Y831480D03*
D13*
X334230Y831480D03*
D12*
X342420Y831480D03*
D13*
X361530Y831480D03*
X370110Y831480D03*
D20*
X379860Y831480D03*
D12*
X385320Y831480D03*
X393900Y831480D03*
D13*
X409890Y831480D03*
D20*
X420420Y831480D03*
D13*
X425490Y831480D03*
X433290Y831480D03*
X447330Y831480D03*
X454350Y831480D03*
X468390Y831480D03*
D12*
X482820Y831480D03*
D13*
X498030Y831480D03*
X512070Y831480D03*
X519870Y831480D03*
X534690Y831480D03*
D12*
X549120Y831480D03*
D24*
X571740Y831480D03*
X588900Y831480D03*
X606060Y831480D03*
X617760Y831480D03*
X624780Y831480D03*
D12*
X656760Y831480D03*
D13*
X671970Y831480D03*
D12*
X686400Y831480D03*
D13*
X708630Y831480D03*
D12*
X716820Y831480D03*
X726180Y831480D03*
D13*
X739830Y831480D03*
D16*
X755820Y831480D03*
D12*
X771420Y831480D03*
D13*
X785070Y831480D03*
X792870Y831480D03*
X806910Y831480D03*
X814710Y831480D03*
X828750Y831480D03*
X192270Y832260D03*
D12*
X205920Y832260D03*
X224640Y832260D03*
D13*
X232830Y832260D03*
D17*
X245700Y832260D03*
D29*
X271830Y832260D03*
D12*
X294840Y832260D03*
X310440Y832260D03*
D13*
X318630Y832260D03*
D17*
X331500Y832260D03*
D12*
X342420Y832260D03*
D13*
X361530Y832260D03*
X370110Y832260D03*
D17*
X382980Y832260D03*
D12*
X393900Y832260D03*
D13*
X409890Y832260D03*
D17*
X422760Y832260D03*
D13*
X433290Y832260D03*
X447330Y832260D03*
X454350Y832260D03*
X468390Y832260D03*
D12*
X482820Y832260D03*
D13*
X498030Y832260D03*
X512070Y832260D03*
X519870Y832260D03*
X534690Y832260D03*
D12*
X549120Y832260D03*
D24*
X571740Y832260D03*
X588120Y832260D03*
X606060Y832260D03*
X617760Y832260D03*
X624000Y832260D03*
D12*
X656760Y832260D03*
D13*
X671970Y832260D03*
X686790Y832260D03*
X708630Y832260D03*
D12*
X716820Y832260D03*
D13*
X725790Y832260D03*
X739830Y832260D03*
D31*
X755820Y832260D03*
D13*
X771030Y832260D03*
X785070Y832260D03*
X792870Y832260D03*
X806910Y832260D03*
X814710Y832260D03*
X828750Y832260D03*
X192270Y833040D03*
D12*
X205920Y833040D03*
X224640Y833040D03*
D13*
X232830Y833040D03*
D27*
X246090Y833040D03*
D20*
X268320Y833040D03*
X275340Y833040D03*
D12*
X294840Y833040D03*
X310440Y833040D03*
D13*
X318630Y833040D03*
D27*
X331890Y833040D03*
D12*
X342420Y833040D03*
D13*
X361530Y833040D03*
X370110Y833040D03*
D27*
X383370Y833040D03*
D12*
X393900Y833040D03*
D13*
X409890Y833040D03*
D27*
X423150Y833040D03*
D13*
X433290Y833040D03*
X447330Y833040D03*
X454350Y833040D03*
X468390Y833040D03*
D12*
X482820Y833040D03*
D13*
X498030Y833040D03*
X512070Y833040D03*
X519870Y833040D03*
X534690Y833040D03*
D12*
X549120Y833040D03*
D24*
X571740Y833040D03*
X588120Y833040D03*
X606060Y833040D03*
X617760Y833040D03*
X624000Y833040D03*
D12*
X656760Y833040D03*
D13*
X671970Y833040D03*
X686790Y833040D03*
X708630Y833040D03*
D12*
X716820Y833040D03*
D13*
X725790Y833040D03*
X739830Y833040D03*
D20*
X751920Y833040D03*
X759720Y833040D03*
D13*
X771030Y833040D03*
X785070Y833040D03*
X792870Y833040D03*
X806910Y833040D03*
X814710Y833040D03*
X828750Y833040D03*
D12*
X192660Y833820D03*
X205920Y833820D03*
X224640Y833820D03*
D13*
X232830Y833820D03*
D23*
X246870Y833820D03*
D20*
X267540Y833820D03*
X276120Y833820D03*
D12*
X294840Y833820D03*
X310440Y833820D03*
D13*
X318630Y833820D03*
D23*
X332670Y833820D03*
D12*
X342420Y833820D03*
D13*
X361530Y833820D03*
X370110Y833820D03*
D26*
X383760Y833820D03*
D12*
X393900Y833820D03*
D13*
X409890Y833820D03*
D23*
X423930Y833820D03*
D12*
X433680Y833820D03*
D13*
X447330Y833820D03*
D12*
X454740Y833820D03*
D13*
X468390Y833820D03*
D12*
X482820Y833820D03*
X498420Y833820D03*
D13*
X512070Y833820D03*
X519870Y833820D03*
X534690Y833820D03*
D12*
X549120Y833820D03*
D13*
X572130Y833820D03*
D24*
X588120Y833820D03*
X606060Y833820D03*
X617760Y833820D03*
X624000Y833820D03*
D12*
X656760Y833820D03*
D13*
X671970Y833820D03*
X686790Y833820D03*
X708630Y833820D03*
D12*
X716820Y833820D03*
X726180Y833820D03*
D13*
X739830Y833820D03*
D20*
X751140Y833820D03*
X760500Y833820D03*
D12*
X771420Y833820D03*
D13*
X785070Y833820D03*
D12*
X793260Y833820D03*
D13*
X806910Y833820D03*
X814710Y833820D03*
X828750Y833820D03*
D21*
X199290Y834600D03*
D32*
X218790Y834600D03*
D13*
X232830Y834600D03*
D20*
X247260Y834600D03*
X266760Y834600D03*
X276900Y834600D03*
D25*
X294840Y834600D03*
D12*
X310440Y834600D03*
D13*
X318630Y834600D03*
D20*
X333060Y834600D03*
D12*
X342420Y834600D03*
D32*
X355290Y834600D03*
D13*
X370110Y834600D03*
D23*
X384150Y834600D03*
D12*
X393900Y834600D03*
D13*
X409890Y834600D03*
D20*
X424320Y834600D03*
D21*
X440310Y834600D03*
X461370Y834600D03*
D25*
X482820Y834600D03*
D21*
X505050Y834600D03*
D13*
X519870Y834600D03*
X534690Y834600D03*
D25*
X549120Y834600D03*
D15*
X576810Y834600D03*
D31*
X592800Y834600D03*
D22*
X611910Y834600D03*
D31*
X628680Y834600D03*
D25*
X656760Y834600D03*
D13*
X671970Y834600D03*
D12*
X686400Y834600D03*
D25*
X701220Y834600D03*
D12*
X716820Y834600D03*
D21*
X732810Y834600D03*
D20*
X750360Y834600D03*
X761280Y834600D03*
D21*
X778050Y834600D03*
X799890Y834600D03*
X821730Y834600D03*
X199290Y835380D03*
D32*
X218790Y835380D03*
D13*
X232830Y835380D03*
D18*
X247650Y835380D03*
D20*
X265980Y835380D03*
X277680Y835380D03*
D25*
X294840Y835380D03*
D12*
X310440Y835380D03*
D13*
X318630Y835380D03*
D18*
X333450Y835380D03*
D12*
X342420Y835380D03*
D32*
X355290Y835380D03*
D13*
X370110Y835380D03*
D18*
X384930Y835380D03*
D12*
X393900Y835380D03*
D13*
X409890Y835380D03*
D18*
X424710Y835380D03*
D19*
X440700Y835380D03*
X461760Y835380D03*
D25*
X482820Y835380D03*
D21*
X505050Y835380D03*
D13*
X519870Y835380D03*
X534690Y835380D03*
D25*
X549120Y835380D03*
D15*
X576810Y835380D03*
D29*
X593190Y835380D03*
D14*
X612300Y835380D03*
D29*
X629070Y835380D03*
D25*
X656760Y835380D03*
D13*
X671970Y835380D03*
X686790Y835380D03*
D25*
X701220Y835380D03*
D12*
X716820Y835380D03*
D19*
X733200Y835380D03*
D20*
X749580Y835380D03*
X762060Y835380D03*
D19*
X778440Y835380D03*
X800280Y835380D03*
D21*
X821730Y835380D03*
X199290Y836160D03*
D32*
X218790Y836160D03*
D13*
X232830Y836160D03*
D12*
X248040Y836160D03*
D20*
X265200Y836160D03*
X278460Y836160D03*
D25*
X294840Y836160D03*
D12*
X310440Y836160D03*
D13*
X318630Y836160D03*
D12*
X333840Y836160D03*
X342420Y836160D03*
D32*
X355290Y836160D03*
D13*
X370110Y836160D03*
D12*
X385320Y836160D03*
X393900Y836160D03*
D13*
X409890Y836160D03*
D12*
X425100Y836160D03*
D32*
X440310Y836160D03*
X461370Y836160D03*
D25*
X482820Y836160D03*
D32*
X505050Y836160D03*
D13*
X519870Y836160D03*
X534690Y836160D03*
D25*
X549120Y836160D03*
D31*
X577200Y836160D03*
D29*
X593190Y836160D03*
D31*
X612300Y836160D03*
D29*
X629070Y836160D03*
D25*
X656760Y836160D03*
D13*
X671970Y836160D03*
X686790Y836160D03*
D21*
X700830Y836160D03*
D12*
X716820Y836160D03*
D19*
X733200Y836160D03*
D20*
X748800Y836160D03*
X762840Y836160D03*
D19*
X778440Y836160D03*
D32*
X799890Y836160D03*
X821730Y836160D03*
D33*
X326040Y846300D03*
X333840Y846300D03*
X339300Y846300D03*
D24*
X372840Y846300D03*
D13*
X391950Y846300D03*
D33*
X401700Y846300D03*
D17*
X329940Y847080D03*
D33*
X339300Y847080D03*
D19*
X351000Y847080D03*
D33*
X371280Y847080D03*
D30*
X390390Y847080D03*
D33*
X401700Y847080D03*
D30*
X326430Y847860D03*
X333450Y847860D03*
X338910Y847860D03*
D33*
X351000Y847860D03*
X371280Y847860D03*
X390000Y847860D03*
X401700Y847860D03*
D12*
X426660Y847860D03*
D32*
X451230Y847860D03*
D15*
X483990Y847860D03*
D32*
X501930Y847860D03*
D12*
X516360Y847860D03*
D13*
X524550Y847860D03*
D12*
X532740Y847860D03*
D13*
X540930Y847860D03*
D24*
X549120Y847860D03*
D13*
X557310Y847860D03*
D12*
X564720Y847860D03*
D16*
X578760Y847860D03*
D18*
X590850Y847860D03*
D12*
X605280Y847860D03*
D14*
X620100Y847860D03*
D15*
X642330Y847860D03*
D18*
X657930Y847860D03*
D13*
X671970Y847860D03*
D12*
X692640Y847860D03*
D33*
X326040Y848640D03*
X333840Y848640D03*
X338520Y848640D03*
X351000Y848640D03*
X371280Y848640D03*
X380640Y848640D03*
D30*
X384150Y848640D03*
D24*
X390000Y848640D03*
D33*
X393120Y848640D03*
X396240Y848640D03*
X401700Y848640D03*
D12*
X426660Y848640D03*
D19*
X450840Y848640D03*
D32*
X482430Y848640D03*
X501930Y848640D03*
D12*
X516360Y848640D03*
D13*
X524550Y848640D03*
D12*
X532740Y848640D03*
D13*
X540930Y848640D03*
D12*
X549120Y848640D03*
X556920Y848640D03*
X565500Y848640D03*
D28*
X578370Y848640D03*
D18*
X591630Y848640D03*
D12*
X605280Y848640D03*
D19*
X620100Y848640D03*
X641940Y848640D03*
D18*
X658710Y848640D03*
D13*
X671970Y848640D03*
D12*
X692640Y848640D03*
D33*
X326040Y849420D03*
X333840Y849420D03*
D30*
X338130Y849420D03*
D34*
X351000Y849420D03*
D33*
X371280Y849420D03*
D30*
X374010Y849420D03*
D33*
X377520Y849420D03*
D13*
X381810Y849420D03*
D33*
X384540Y849420D03*
X390000Y849420D03*
D30*
X397410Y849420D03*
D33*
X401700Y849420D03*
D12*
X426660Y849420D03*
D21*
X450450Y849420D03*
D19*
X482040Y849420D03*
D34*
X502320Y849420D03*
D12*
X516360Y849420D03*
D18*
X524550Y849420D03*
D12*
X532740Y849420D03*
D13*
X540930Y849420D03*
D12*
X549120Y849420D03*
D13*
X557310Y849420D03*
X565890Y849420D03*
D28*
X578370Y849420D03*
D18*
X592410Y849420D03*
D12*
X605280Y849420D03*
D19*
X620100Y849420D03*
X641940Y849420D03*
D18*
X659490Y849420D03*
D13*
X671970Y849420D03*
D12*
X692640Y849420D03*
D33*
X326040Y850200D03*
X333840Y850200D03*
X337740Y850200D03*
X351000Y850200D03*
X371280Y850200D03*
X373620Y850200D03*
X377520Y850200D03*
X390000Y850200D03*
X397800Y850200D03*
X401700Y850200D03*
D12*
X426660Y850200D03*
D21*
X450450Y850200D03*
X481650Y850200D03*
D32*
X501930Y850200D03*
D12*
X516360Y850200D03*
D20*
X524940Y850200D03*
D12*
X532740Y850200D03*
D13*
X540930Y850200D03*
D20*
X549120Y850200D03*
D12*
X556920Y850200D03*
X566280Y850200D03*
D17*
X577980Y850200D03*
D18*
X593190Y850200D03*
D12*
X605280Y850200D03*
D25*
X620100Y850200D03*
D21*
X642330Y850200D03*
D18*
X660270Y850200D03*
D13*
X671970Y850200D03*
D12*
X692640Y850200D03*
D33*
X326040Y850980D03*
X333840Y850980D03*
X337740Y850980D03*
X351000Y850980D03*
X371280Y850980D03*
X373620Y850980D03*
X377520Y850980D03*
X390000Y850980D03*
X393120Y850980D03*
X397020Y850980D03*
X401700Y850980D03*
D12*
X426660Y850980D03*
X443820Y850980D03*
D13*
X457470Y850980D03*
D18*
X474630Y850980D03*
D13*
X488670Y850980D03*
X508170Y850980D03*
D12*
X516360Y850980D03*
D23*
X524550Y850980D03*
D12*
X532740Y850980D03*
D13*
X540930Y850980D03*
D23*
X549510Y850980D03*
D13*
X557310Y850980D03*
D12*
X567060Y850980D03*
X579540Y850980D03*
D18*
X593970Y850980D03*
D12*
X605280Y850980D03*
D13*
X612690Y850980D03*
X627510Y850980D03*
X635310Y850980D03*
X649350Y850980D03*
D18*
X661050Y850980D03*
D13*
X671970Y850980D03*
D12*
X692640Y850980D03*
D33*
X326040Y851760D03*
X333840Y851760D03*
X336960Y851760D03*
D31*
X351000Y851760D03*
D33*
X371280Y851760D03*
X373620Y851760D03*
X377520Y851760D03*
X390000Y851760D03*
X393900Y851760D03*
X397020Y851760D03*
X401700Y851760D03*
X404040Y851760D03*
D12*
X426660Y851760D03*
D13*
X443430Y851760D03*
X457470Y851760D03*
D12*
X474240Y851760D03*
D13*
X488670Y851760D03*
X508170Y851760D03*
D12*
X516360Y851760D03*
D27*
X524550Y851760D03*
D12*
X532740Y851760D03*
D13*
X540930Y851760D03*
D26*
X549120Y851760D03*
D12*
X556920Y851760D03*
X567060Y851760D03*
D18*
X579150Y851760D03*
X594750Y851760D03*
D12*
X605280Y851760D03*
D13*
X612690Y851760D03*
X627510Y851760D03*
X635310Y851760D03*
X649350Y851760D03*
D18*
X661830Y851760D03*
D13*
X671970Y851760D03*
D12*
X692640Y851760D03*
D33*
X326040Y852540D03*
X333840Y852540D03*
X336960Y852540D03*
X345540Y852540D03*
X351000Y852540D03*
X356460Y852540D03*
X371280Y852540D03*
D18*
X375570Y852540D03*
D33*
X390000Y852540D03*
X397020Y852540D03*
X401700Y852540D03*
X404040Y852540D03*
D12*
X426660Y852540D03*
D13*
X443430Y852540D03*
X457470Y852540D03*
X473850Y852540D03*
X488670Y852540D03*
X508170Y852540D03*
D12*
X516360Y852540D03*
D27*
X524550Y852540D03*
D12*
X532740Y852540D03*
D13*
X540930Y852540D03*
D17*
X549120Y852540D03*
D13*
X557310Y852540D03*
D12*
X567840Y852540D03*
X578760Y852540D03*
D18*
X595530Y852540D03*
D12*
X605280Y852540D03*
D13*
X612690Y852540D03*
X627510Y852540D03*
X635310Y852540D03*
X649350Y852540D03*
D18*
X662610Y852540D03*
D13*
X671970Y852540D03*
D12*
X692640Y852540D03*
D17*
X329940Y853320D03*
D33*
X345540Y853320D03*
X351000Y853320D03*
D30*
X356850Y853320D03*
D33*
X371280Y853320D03*
D31*
X393900Y853320D03*
D33*
X401700Y853320D03*
D12*
X426660Y853320D03*
X443820Y853320D03*
D13*
X457470Y853320D03*
X473070Y853320D03*
X488670Y853320D03*
X508170Y853320D03*
D12*
X516360Y853320D03*
X521820Y853320D03*
X527280Y853320D03*
X532740Y853320D03*
D13*
X540930Y853320D03*
D12*
X546780Y853320D03*
X551460Y853320D03*
X556920Y853320D03*
X567840Y853320D03*
D18*
X578370Y853320D03*
X596310Y853320D03*
D12*
X605280Y853320D03*
D13*
X612690Y853320D03*
X627510Y853320D03*
X635310Y853320D03*
X649350Y853320D03*
D20*
X663000Y853320D03*
D13*
X671970Y853320D03*
D12*
X692640Y853320D03*
D31*
X351000Y854100D03*
D33*
X371280Y854100D03*
X389220Y854100D03*
X397020Y854100D03*
X401700Y854100D03*
X403260Y854100D03*
D12*
X426660Y854100D03*
D19*
X450840Y854100D03*
D13*
X473070Y854100D03*
X488670Y854100D03*
D16*
X504660Y854100D03*
D12*
X516360Y854100D03*
X521820Y854100D03*
D13*
X527670Y854100D03*
D12*
X532740Y854100D03*
D13*
X540930Y854100D03*
D12*
X546000Y854100D03*
X552240Y854100D03*
D13*
X557310Y854100D03*
D12*
X568620Y854100D03*
X577980Y854100D03*
D21*
X598650Y854100D03*
D12*
X613080Y854100D03*
D13*
X627510Y854100D03*
X635310Y854100D03*
X649350Y854100D03*
D19*
X665340Y854100D03*
D21*
X686010Y854100D03*
D33*
X345540Y854880D03*
X351000Y854880D03*
X356460Y854880D03*
D28*
X374010Y854880D03*
D33*
X389220Y854880D03*
X397020Y854880D03*
D13*
X401310Y854880D03*
D18*
X427050Y854880D03*
D19*
X450840Y854880D03*
D13*
X473070Y854880D03*
X488670Y854880D03*
D16*
X504660Y854880D03*
D12*
X516360Y854880D03*
X521040Y854880D03*
D17*
X530400Y854880D03*
D12*
X541320Y854880D03*
D13*
X545610Y854880D03*
X552630Y854880D03*
D12*
X556920Y854880D03*
D13*
X569010Y854880D03*
D12*
X577200Y854880D03*
D21*
X598650Y854880D03*
D17*
X615420Y854880D03*
D13*
X627510Y854880D03*
X635310Y854880D03*
X649350Y854880D03*
D21*
X664950Y854880D03*
X686010Y854880D03*
D33*
X325260Y855660D03*
X334620Y855660D03*
X337740Y855660D03*
X345540Y855660D03*
X351000Y855660D03*
X356460Y855660D03*
X389220Y855660D03*
X393120Y855660D03*
X397020Y855660D03*
D24*
X401700Y855660D03*
D23*
X427050Y855660D03*
D19*
X450840Y855660D03*
D13*
X473070Y855660D03*
X488670Y855660D03*
D16*
X504660Y855660D03*
D27*
X518310Y855660D03*
X530790Y855660D03*
X543270Y855660D03*
X554970Y855660D03*
D12*
X569400Y855660D03*
X577200Y855660D03*
D21*
X598650Y855660D03*
D17*
X615420Y855660D03*
D13*
X627510Y855660D03*
X635310Y855660D03*
X649350Y855660D03*
D21*
X664950Y855660D03*
X686010Y855660D03*
D16*
X329940Y856440D03*
D33*
X338520Y856440D03*
X345540Y856440D03*
X351000Y856440D03*
D30*
X356850Y856440D03*
D33*
X389220Y856440D03*
X393900Y856440D03*
X397020Y856440D03*
D30*
X402090Y856440D03*
D27*
X427050Y856440D03*
D21*
X450450Y856440D03*
D13*
X473070Y856440D03*
X488670Y856440D03*
D16*
X504660Y856440D03*
D27*
X518310Y856440D03*
X530790Y856440D03*
D26*
X542880Y856440D03*
X555360Y856440D03*
D13*
X569790Y856440D03*
D12*
X576420Y856440D03*
D21*
X598650Y856440D03*
D13*
X627510Y856440D03*
X635310Y856440D03*
X649350Y856440D03*
D21*
X664950Y856440D03*
X686010Y856440D03*
D33*
X326040Y857220D03*
X333840Y857220D03*
X339300Y857220D03*
X351000Y857220D03*
X370500Y857220D03*
D24*
X377520Y857220D03*
D33*
X389220Y857220D03*
X397020Y857220D03*
X401700Y857220D03*
D28*
X427050Y857220D03*
D12*
X443820Y857220D03*
D13*
X457470Y857220D03*
D12*
X473460Y857220D03*
D13*
X488670Y857220D03*
X508170Y857220D03*
D26*
X517920Y857220D03*
X531180Y857220D03*
D23*
X542490Y857220D03*
X555750Y857220D03*
D12*
X570180Y857220D03*
X576420Y857220D03*
D13*
X591630Y857220D03*
D12*
X605280Y857220D03*
D13*
X627510Y857220D03*
X635310Y857220D03*
X649350Y857220D03*
D12*
X658320Y857220D03*
D13*
X671970Y857220D03*
X678990Y857220D03*
D12*
X692640Y857220D03*
D33*
X326040Y858000D03*
X333060Y858000D03*
X351000Y858000D03*
D24*
X372060Y858000D03*
D33*
X375960Y858000D03*
D16*
X393900Y858000D03*
D33*
X401700Y858000D03*
D29*
X427050Y858000D03*
D13*
X443430Y858000D03*
X457470Y858000D03*
X473850Y858000D03*
X488670Y858000D03*
X508170Y858000D03*
D23*
X517530Y858000D03*
X531570Y858000D03*
X542490Y858000D03*
X555750Y858000D03*
D12*
X570960Y858000D03*
X575640Y858000D03*
D13*
X591630Y858000D03*
D12*
X605280Y858000D03*
D13*
X627510Y858000D03*
X635310Y858000D03*
X649350Y858000D03*
X657930Y858000D03*
X671970Y858000D03*
X678990Y858000D03*
D12*
X692640Y858000D03*
D33*
X326820Y858780D03*
D30*
X350610Y858780D03*
D24*
X374400Y858780D03*
D30*
X397410Y858780D03*
D18*
X402090Y858780D03*
D20*
X423540Y858780D03*
X430560Y858780D03*
D13*
X443430Y858780D03*
X457470Y858780D03*
D12*
X474240Y858780D03*
D13*
X488670Y858780D03*
X508170Y858780D03*
D23*
X517530Y858780D03*
X531570Y858780D03*
D20*
X542100Y858780D03*
X556140Y858780D03*
D27*
X572910Y858780D03*
D13*
X591630Y858780D03*
D12*
X605280Y858780D03*
D13*
X627510Y858780D03*
X635310Y858780D03*
X649350Y858780D03*
X657930Y858780D03*
X671970Y858780D03*
X678990Y858780D03*
D12*
X692640Y858780D03*
D33*
X327600Y859560D03*
X332280Y859560D03*
X336960Y859560D03*
X351000Y859560D03*
X374400Y859560D03*
D30*
X397410Y859560D03*
D33*
X401700Y859560D03*
D20*
X422760Y859560D03*
X431340Y859560D03*
D12*
X443820Y859560D03*
X457080Y859560D03*
D18*
X475410Y859560D03*
D13*
X488670Y859560D03*
X508170Y859560D03*
D20*
X517140Y859560D03*
X531960Y859560D03*
D18*
X541710Y859560D03*
D20*
X556140Y859560D03*
D26*
X573300Y859560D03*
D12*
X592020Y859560D03*
X605280Y859560D03*
X627120Y859560D03*
X635700Y859560D03*
X648960Y859560D03*
X658320Y859560D03*
D13*
X671970Y859560D03*
D12*
X679380Y859560D03*
X692640Y859560D03*
D33*
X331500Y860340D03*
D30*
X337350Y860340D03*
D33*
X351000Y860340D03*
D24*
X374400Y860340D03*
D33*
X397020Y860340D03*
X401700Y860340D03*
D20*
X421980Y860340D03*
X432120Y860340D03*
D21*
X450450Y860340D03*
X481650Y860340D03*
D32*
X501930Y860340D03*
D18*
X516750Y860340D03*
D20*
X531960Y860340D03*
D18*
X541710Y860340D03*
X556530Y860340D03*
D23*
X572910Y860340D03*
D21*
X598650Y860340D03*
D25*
X620100Y860340D03*
D21*
X642330Y860340D03*
X664950Y860340D03*
X686010Y860340D03*
D30*
X331110Y861120D03*
X338130Y861120D03*
D33*
X351000Y861120D03*
D24*
X356460Y861120D03*
D30*
X374010Y861120D03*
D17*
X392340Y861120D03*
D33*
X401700Y861120D03*
D20*
X421200Y861120D03*
X432900Y861120D03*
D19*
X450840Y861120D03*
X482040Y861120D03*
D32*
X501930Y861120D03*
D18*
X516750Y861120D03*
X532350Y861120D03*
D12*
X541320Y861120D03*
X556920Y861120D03*
D20*
X573300Y861120D03*
D21*
X598650Y861120D03*
D25*
X620100Y861120D03*
D21*
X642330Y861120D03*
D19*
X665340Y861120D03*
D21*
X686010Y861120D03*
D33*
X330720Y861900D03*
X339300Y861900D03*
D26*
X348660Y861900D03*
D33*
X373620Y861900D03*
X396240Y861900D03*
X401700Y861900D03*
D20*
X420420Y861900D03*
X433680Y861900D03*
D19*
X450840Y861900D03*
D22*
X483210Y861900D03*
D32*
X501930Y861900D03*
D12*
X516360Y861900D03*
X532740Y861900D03*
D13*
X540930Y861900D03*
D12*
X556920Y861900D03*
X573300Y861900D03*
D21*
X598650Y861900D03*
X619710Y861900D03*
D32*
X642330Y861900D03*
D19*
X665340Y861900D03*
D21*
X686010Y861900D03*
D33*
X396240Y862680D03*
D15*
X329550Y871260D03*
D14*
X351000Y871260D03*
D12*
X365820Y871260D03*
D16*
X379080Y871260D03*
D15*
X397410Y871260D03*
D12*
X412620Y871260D03*
D13*
X420810Y871260D03*
X435630Y871260D03*
D14*
X450060Y871260D03*
D13*
X473070Y871260D03*
X488670Y871260D03*
D12*
X496860Y871260D03*
D14*
X523380Y871260D03*
D32*
X541710Y871260D03*
X559650Y871260D03*
X581490Y871260D03*
D12*
X595920Y871260D03*
D13*
X604110Y871260D03*
D12*
X612300Y871260D03*
D32*
X625170Y871260D03*
D34*
X647400Y871260D03*
X668460Y871260D03*
D12*
X682500Y871260D03*
D16*
X695760Y871260D03*
D19*
X329160Y872040D03*
D21*
X350610Y872040D03*
D12*
X365820Y872040D03*
D16*
X379080Y872040D03*
D19*
X397020Y872040D03*
D12*
X412620Y872040D03*
X421200Y872040D03*
D13*
X435630Y872040D03*
D19*
X450060Y872040D03*
D12*
X473460Y872040D03*
D13*
X488670Y872040D03*
D12*
X496860Y872040D03*
D32*
X522210Y872040D03*
X541710Y872040D03*
X559650Y872040D03*
D19*
X581100Y872040D03*
D12*
X595920Y872040D03*
D13*
X604110Y872040D03*
D12*
X612300Y872040D03*
D32*
X625170Y872040D03*
D21*
X646230Y872040D03*
D19*
X667680Y872040D03*
D12*
X682500Y872040D03*
D16*
X695760Y872040D03*
D21*
X328770Y872820D03*
X350610Y872820D03*
D12*
X366600Y872820D03*
D28*
X378690Y872820D03*
D19*
X397020Y872820D03*
D12*
X412620Y872820D03*
X421200Y872820D03*
D13*
X435630Y872820D03*
D21*
X449670Y872820D03*
D18*
X473850Y872820D03*
D13*
X488670Y872820D03*
D12*
X496860Y872820D03*
D21*
X521430Y872820D03*
D32*
X541710Y872820D03*
D34*
X560040Y872820D03*
D21*
X580710Y872820D03*
D12*
X595920Y872820D03*
D18*
X604110Y872820D03*
D12*
X612300Y872820D03*
D34*
X625560Y872820D03*
D21*
X646230Y872820D03*
X667290Y872820D03*
D12*
X683280Y872820D03*
D28*
X695370Y872820D03*
D21*
X328770Y873600D03*
X350610Y873600D03*
D13*
X366990Y873600D03*
D28*
X378690Y873600D03*
D21*
X397410Y873600D03*
D12*
X412620Y873600D03*
X421200Y873600D03*
D13*
X435630Y873600D03*
D21*
X449670Y873600D03*
D23*
X474630Y873600D03*
D13*
X488670Y873600D03*
D12*
X496860Y873600D03*
D21*
X521430Y873600D03*
D32*
X541710Y873600D03*
X559650Y873600D03*
D21*
X580710Y873600D03*
D12*
X595920Y873600D03*
D20*
X604500Y873600D03*
D12*
X612300Y873600D03*
D32*
X625170Y873600D03*
D21*
X646230Y873600D03*
X667290Y873600D03*
D13*
X683670Y873600D03*
D28*
X695370Y873600D03*
D13*
X321750Y874380D03*
X335790Y874380D03*
X343590Y874380D03*
X357630Y874380D03*
D12*
X367380Y874380D03*
D18*
X380250Y874380D03*
D13*
X390390Y874380D03*
X404430Y874380D03*
D12*
X412620Y874380D03*
D13*
X420810Y874380D03*
X435630Y874380D03*
X442650Y874380D03*
X456690Y874380D03*
D26*
X475020Y874380D03*
D13*
X488670Y874380D03*
D12*
X496860Y874380D03*
X514020Y874380D03*
D13*
X528450Y874380D03*
D12*
X547560Y874380D03*
D13*
X565890Y874380D03*
D12*
X574080Y874380D03*
D13*
X587730Y874380D03*
D12*
X595920Y874380D03*
D23*
X604110Y874380D03*
D12*
X612300Y874380D03*
D13*
X631410Y874380D03*
X639210Y874380D03*
X660270Y874380D03*
D12*
X684060Y874380D03*
D18*
X696930Y874380D03*
D13*
X321750Y875160D03*
X335790Y875160D03*
X343590Y875160D03*
X357630Y875160D03*
D12*
X368160Y875160D03*
X379860Y875160D03*
D13*
X390390Y875160D03*
X404430Y875160D03*
D12*
X412620Y875160D03*
X421200Y875160D03*
D13*
X435630Y875160D03*
X442650Y875160D03*
X456690Y875160D03*
D27*
X475410Y875160D03*
D13*
X488670Y875160D03*
D12*
X496860Y875160D03*
X513240Y875160D03*
D13*
X528450Y875160D03*
D12*
X547560Y875160D03*
D13*
X565890Y875160D03*
X573690Y875160D03*
X587730Y875160D03*
D12*
X595920Y875160D03*
D27*
X604110Y875160D03*
D12*
X612300Y875160D03*
D13*
X631410Y875160D03*
X639210Y875160D03*
X660270Y875160D03*
D12*
X684840Y875160D03*
X696540Y875160D03*
D13*
X321750Y875940D03*
X335790Y875940D03*
X343590Y875940D03*
X357630Y875940D03*
D12*
X368160Y875940D03*
X379860Y875940D03*
D13*
X390390Y875940D03*
X404430Y875940D03*
D12*
X412620Y875940D03*
X421200Y875940D03*
D13*
X435630Y875940D03*
X442650Y875940D03*
X456690Y875940D03*
D17*
X475800Y875940D03*
D13*
X488670Y875940D03*
D12*
X496860Y875940D03*
D13*
X512850Y875940D03*
X528450Y875940D03*
D12*
X547560Y875940D03*
D13*
X565890Y875940D03*
X573690Y875940D03*
X587730Y875940D03*
D12*
X595920Y875940D03*
D27*
X604110Y875940D03*
D12*
X612300Y875940D03*
D13*
X631410Y875940D03*
X639210Y875940D03*
X660270Y875940D03*
D12*
X684840Y875940D03*
X696540Y875940D03*
D13*
X321750Y876720D03*
X335790Y876720D03*
X343590Y876720D03*
X357630Y876720D03*
D12*
X368940Y876720D03*
X379080Y876720D03*
D13*
X390390Y876720D03*
X404430Y876720D03*
D12*
X412620Y876720D03*
X421200Y876720D03*
D13*
X435630Y876720D03*
X442650Y876720D03*
X456690Y876720D03*
X473070Y876720D03*
D20*
X478140Y876720D03*
D13*
X488670Y876720D03*
D12*
X496860Y876720D03*
D13*
X512850Y876720D03*
X528450Y876720D03*
D12*
X547560Y876720D03*
D13*
X565890Y876720D03*
D12*
X574080Y876720D03*
D13*
X587730Y876720D03*
D12*
X595920Y876720D03*
X601380Y876720D03*
X606840Y876720D03*
X612300Y876720D03*
D13*
X631410Y876720D03*
X639210Y876720D03*
X660270Y876720D03*
D12*
X685620Y876720D03*
X695760Y876720D03*
D13*
X321750Y877500D03*
X335790Y877500D03*
X343590Y877500D03*
X357630Y877500D03*
D12*
X368940Y877500D03*
D18*
X378690Y877500D03*
D13*
X404430Y877500D03*
D12*
X412620Y877500D03*
D25*
X428220Y877500D03*
D13*
X456690Y877500D03*
X473070Y877500D03*
D20*
X478920Y877500D03*
D13*
X488670Y877500D03*
D12*
X496860Y877500D03*
D13*
X512850Y877500D03*
X528450Y877500D03*
D29*
X544050Y877500D03*
D13*
X565890Y877500D03*
D19*
X581100Y877500D03*
D12*
X595920Y877500D03*
X601380Y877500D03*
D13*
X607230Y877500D03*
D12*
X612300Y877500D03*
D16*
X627900Y877500D03*
D32*
X645450Y877500D03*
D19*
X666900Y877500D03*
D12*
X685620Y877500D03*
X694980Y877500D03*
D13*
X321750Y878280D03*
X335790Y878280D03*
D17*
X346320Y878280D03*
D13*
X357630Y878280D03*
D12*
X369720Y878280D03*
X378300Y878280D03*
D13*
X404430Y878280D03*
D12*
X412620Y878280D03*
D25*
X428220Y878280D03*
D13*
X456690Y878280D03*
X473070Y878280D03*
D20*
X480480Y878280D03*
D13*
X488670Y878280D03*
D12*
X496860Y878280D03*
D13*
X512850Y878280D03*
X528450Y878280D03*
D29*
X544050Y878280D03*
D13*
X565890Y878280D03*
D19*
X581100Y878280D03*
D12*
X595920Y878280D03*
X600600Y878280D03*
D17*
X609960Y878280D03*
D16*
X627900Y878280D03*
D19*
X645840Y878280D03*
D21*
X667290Y878280D03*
D12*
X686400Y878280D03*
X694980Y878280D03*
D13*
X321750Y879060D03*
X335790Y879060D03*
D17*
X346320Y879060D03*
D13*
X357630Y879060D03*
X370110Y879060D03*
D12*
X377520Y879060D03*
D13*
X404430Y879060D03*
D12*
X412620Y879060D03*
D25*
X428220Y879060D03*
D13*
X456690Y879060D03*
X473070Y879060D03*
D20*
X481260Y879060D03*
D13*
X488670Y879060D03*
D12*
X496860Y879060D03*
D13*
X512850Y879060D03*
X528450Y879060D03*
D29*
X544050Y879060D03*
D13*
X565890Y879060D03*
D19*
X581100Y879060D03*
D27*
X597870Y879060D03*
X610350Y879060D03*
D16*
X627900Y879060D03*
D21*
X646230Y879060D03*
D19*
X667680Y879060D03*
D13*
X686790Y879060D03*
D12*
X694200Y879060D03*
D13*
X321750Y879840D03*
X335790Y879840D03*
X357630Y879840D03*
D12*
X370500Y879840D03*
X377520Y879840D03*
D13*
X404430Y879840D03*
D12*
X412620Y879840D03*
D25*
X428220Y879840D03*
D13*
X456690Y879840D03*
X473070Y879840D03*
D20*
X482040Y879840D03*
D13*
X488670Y879840D03*
D12*
X496860Y879840D03*
D13*
X512850Y879840D03*
X528450Y879840D03*
D29*
X544050Y879840D03*
D13*
X565890Y879840D03*
D21*
X580710Y879840D03*
D26*
X597480Y879840D03*
D27*
X610350Y879840D03*
D16*
X627900Y879840D03*
D13*
X653250Y879840D03*
X674310Y879840D03*
D12*
X687180Y879840D03*
X694200Y879840D03*
D13*
X321750Y880620D03*
X335790Y880620D03*
X357630Y880620D03*
X370890Y880620D03*
D12*
X376740Y880620D03*
D13*
X390390Y880620D03*
X404430Y880620D03*
D12*
X412620Y880620D03*
D13*
X420810Y880620D03*
X435630Y880620D03*
X442650Y880620D03*
X456690Y880620D03*
X473070Y880620D03*
D18*
X483210Y880620D03*
D12*
X488280Y880620D03*
X496860Y880620D03*
D13*
X512850Y880620D03*
X528450Y880620D03*
D12*
X547560Y880620D03*
D13*
X565890Y880620D03*
D12*
X574080Y880620D03*
D13*
X587730Y880620D03*
D26*
X597480Y880620D03*
X610740Y880620D03*
D13*
X631410Y880620D03*
X653250Y880620D03*
X674310Y880620D03*
X687570Y880620D03*
D12*
X693420Y880620D03*
D13*
X321750Y881400D03*
X335790Y881400D03*
X357630Y881400D03*
D12*
X371280Y881400D03*
D18*
X376350Y881400D03*
D13*
X390390Y881400D03*
X404430Y881400D03*
D12*
X412620Y881400D03*
X421200Y881400D03*
D13*
X435630Y881400D03*
X442650Y881400D03*
X456690Y881400D03*
X473070Y881400D03*
D17*
X485940Y881400D03*
D12*
X496860Y881400D03*
X513240Y881400D03*
D13*
X528450Y881400D03*
D12*
X547560Y881400D03*
D13*
X565890Y881400D03*
X573690Y881400D03*
X587730Y881400D03*
D23*
X597090Y881400D03*
X611130Y881400D03*
D13*
X631410Y881400D03*
X653250Y881400D03*
X674310Y881400D03*
D12*
X687960Y881400D03*
D18*
X693030Y881400D03*
D13*
X321750Y882180D03*
X335790Y882180D03*
X357630Y882180D03*
D27*
X374010Y882180D03*
D13*
X390390Y882180D03*
X404430Y882180D03*
D12*
X412620Y882180D03*
X421200Y882180D03*
D13*
X435630Y882180D03*
X442650Y882180D03*
X456690Y882180D03*
X473070Y882180D03*
D27*
X486330Y882180D03*
D12*
X496860Y882180D03*
X514020Y882180D03*
D13*
X528450Y882180D03*
D12*
X547560Y882180D03*
D13*
X565890Y882180D03*
X573690Y882180D03*
X587730Y882180D03*
D23*
X597090Y882180D03*
X611130Y882180D03*
D13*
X631410Y882180D03*
X653250Y882180D03*
X674310Y882180D03*
D27*
X690690Y882180D03*
D12*
X322140Y882960D03*
D13*
X335790Y882960D03*
X357630Y882960D03*
D26*
X373620Y882960D03*
D13*
X390390Y882960D03*
D12*
X404040Y882960D03*
X412620Y882960D03*
X421200Y882960D03*
D13*
X435630Y882960D03*
D12*
X443040Y882960D03*
D13*
X456690Y882960D03*
X473070Y882960D03*
D26*
X486720Y882960D03*
D12*
X496860Y882960D03*
D20*
X514800Y882960D03*
D13*
X528450Y882960D03*
D12*
X547560Y882960D03*
D13*
X565890Y882960D03*
D12*
X574080Y882960D03*
D13*
X587730Y882960D03*
D20*
X596700Y882960D03*
X611520Y882960D03*
D13*
X631410Y882960D03*
D12*
X652860Y882960D03*
D13*
X674310Y882960D03*
D26*
X690300Y882960D03*
D21*
X328770Y883740D03*
X350610Y883740D03*
D23*
X374010Y883740D03*
D21*
X397410Y883740D03*
D12*
X412620Y883740D03*
D13*
X420810Y883740D03*
X435630Y883740D03*
D21*
X449670Y883740D03*
D13*
X473070Y883740D03*
D23*
X487110Y883740D03*
D12*
X496860Y883740D03*
D21*
X521430Y883740D03*
D32*
X541710Y883740D03*
D13*
X565890Y883740D03*
D21*
X580710Y883740D03*
D18*
X596310Y883740D03*
D20*
X611520Y883740D03*
D32*
X625170Y883740D03*
D21*
X646230Y883740D03*
X667290Y883740D03*
D23*
X690690Y883740D03*
D19*
X329160Y884520D03*
D21*
X350610Y884520D03*
D20*
X373620Y884520D03*
D21*
X397410Y884520D03*
D12*
X412620Y884520D03*
X421200Y884520D03*
D13*
X435630Y884520D03*
D19*
X450060Y884520D03*
D13*
X473070Y884520D03*
D20*
X487500Y884520D03*
D12*
X496860Y884520D03*
D19*
X521820Y884520D03*
D32*
X541710Y884520D03*
D13*
X565890Y884520D03*
D21*
X580710Y884520D03*
D18*
X596310Y884520D03*
X611910Y884520D03*
D32*
X625170Y884520D03*
D21*
X646230Y884520D03*
X667290Y884520D03*
D20*
X690300Y884520D03*
D34*
X329160Y885300D03*
D19*
X350220Y885300D03*
D18*
X374010Y885300D03*
D32*
X397410Y885300D03*
D12*
X412620Y885300D03*
X421200Y885300D03*
D13*
X435630Y885300D03*
D32*
X449670Y885300D03*
D13*
X473070Y885300D03*
D12*
X488280Y885300D03*
X496860Y885300D03*
D34*
X522600Y885300D03*
D32*
X541710Y885300D03*
D13*
X565890Y885300D03*
D19*
X581100Y885300D03*
D12*
X595920Y885300D03*
X612300Y885300D03*
D32*
X625170Y885300D03*
D19*
X645840Y885300D03*
X666900Y885300D03*
D18*
X690690Y885300D03*
D14*
X361920Y894660D03*
D12*
X384540Y894660D03*
D18*
X401310Y894660D03*
D13*
X414570Y894660D03*
D14*
X429780Y894660D03*
D12*
X450840Y894660D03*
D13*
X473850Y894660D03*
X489450Y894660D03*
D12*
X497640Y894660D03*
D15*
X524550Y894660D03*
D32*
X542490Y894660D03*
D13*
X556530Y894660D03*
X572130Y894660D03*
D14*
X587340Y894660D03*
D12*
X602160Y894660D03*
D32*
X618150Y894660D03*
X636870Y894660D03*
D14*
X662220Y894660D03*
D19*
X361920Y895440D03*
D12*
X384540Y895440D03*
D18*
X402090Y895440D03*
D13*
X414570Y895440D03*
D19*
X429780Y895440D03*
D12*
X450840Y895440D03*
D18*
X474630Y895440D03*
D13*
X489450Y895440D03*
D12*
X497640Y895440D03*
D32*
X522990Y895440D03*
X542490Y895440D03*
D18*
X557310Y895440D03*
D13*
X572130Y895440D03*
D21*
X586950Y895440D03*
D12*
X602160Y895440D03*
D21*
X617370Y895440D03*
D32*
X636870Y895440D03*
X661050Y895440D03*
D21*
X361530Y896220D03*
D12*
X384540Y896220D03*
D18*
X402870Y896220D03*
D13*
X414570Y896220D03*
D19*
X429780Y896220D03*
D12*
X450840Y896220D03*
D20*
X475020Y896220D03*
D13*
X489450Y896220D03*
D12*
X497640Y896220D03*
D19*
X522600Y896220D03*
D34*
X542880Y896220D03*
D20*
X557700Y896220D03*
D13*
X572130Y896220D03*
D21*
X586950Y896220D03*
D12*
X602160Y896220D03*
D21*
X617370Y896220D03*
D32*
X636870Y896220D03*
D19*
X660660Y896220D03*
D21*
X361530Y897000D03*
D12*
X384540Y897000D03*
D18*
X403650Y897000D03*
D13*
X414570Y897000D03*
D21*
X429390Y897000D03*
D12*
X450840Y897000D03*
D23*
X475410Y897000D03*
D13*
X489450Y897000D03*
D12*
X497640Y897000D03*
D21*
X522210Y897000D03*
D32*
X542490Y897000D03*
D23*
X558090Y897000D03*
D13*
X572130Y897000D03*
D21*
X586950Y897000D03*
D12*
X602160Y897000D03*
D21*
X617370Y897000D03*
D32*
X636870Y897000D03*
D21*
X660270Y897000D03*
D13*
X354510Y897780D03*
X368550Y897780D03*
D12*
X384540Y897780D03*
D18*
X404430Y897780D03*
D13*
X414570Y897780D03*
X422370Y897780D03*
X436410Y897780D03*
D12*
X450840Y897780D03*
D26*
X475800Y897780D03*
D13*
X489450Y897780D03*
D12*
X497640Y897780D03*
D18*
X515190Y897780D03*
D13*
X529230Y897780D03*
X548730Y897780D03*
D26*
X558480Y897780D03*
D13*
X572130Y897780D03*
X579930Y897780D03*
X593970Y897780D03*
D12*
X602160Y897780D03*
D13*
X610350Y897780D03*
X643110Y897780D03*
D12*
X652860Y897780D03*
D13*
X667290Y897780D03*
X354510Y898560D03*
X368550Y898560D03*
D12*
X384540Y898560D03*
D18*
X405210Y898560D03*
D13*
X414570Y898560D03*
X422370Y898560D03*
X436410Y898560D03*
D12*
X450840Y898560D03*
D17*
X476580Y898560D03*
D13*
X489450Y898560D03*
D12*
X497640Y898560D03*
X514800Y898560D03*
D13*
X529230Y898560D03*
X548730Y898560D03*
D17*
X559260Y898560D03*
D13*
X572130Y898560D03*
X579930Y898560D03*
X593970Y898560D03*
D12*
X602160Y898560D03*
D13*
X610350Y898560D03*
X643110Y898560D03*
D12*
X652080Y898560D03*
D13*
X667290Y898560D03*
X354510Y899340D03*
X368550Y899340D03*
D12*
X384540Y899340D03*
D18*
X405990Y899340D03*
D13*
X414570Y899340D03*
X422370Y899340D03*
X436410Y899340D03*
D12*
X450840Y899340D03*
D28*
X476970Y899340D03*
D13*
X489450Y899340D03*
D12*
X497640Y899340D03*
D13*
X514410Y899340D03*
X529230Y899340D03*
X548730Y899340D03*
D28*
X559650Y899340D03*
D13*
X572130Y899340D03*
X579930Y899340D03*
X593970Y899340D03*
D12*
X602160Y899340D03*
D13*
X610350Y899340D03*
X643110Y899340D03*
X651690Y899340D03*
X667290Y899340D03*
X354510Y900120D03*
X368550Y900120D03*
D12*
X384540Y900120D03*
D18*
X406770Y900120D03*
D13*
X414570Y900120D03*
X422370Y900120D03*
X436410Y900120D03*
D12*
X450840Y900120D03*
X474240Y900120D03*
D20*
X479700Y900120D03*
D13*
X489450Y900120D03*
D12*
X497640Y900120D03*
D13*
X513630Y900120D03*
X529230Y900120D03*
X548730Y900120D03*
D12*
X556920Y900120D03*
D20*
X562380Y900120D03*
D13*
X572130Y900120D03*
X579930Y900120D03*
X593970Y900120D03*
D12*
X602160Y900120D03*
D13*
X610350Y900120D03*
X643110Y900120D03*
X651690Y900120D03*
X667290Y900120D03*
X354510Y900900D03*
X368550Y900900D03*
D12*
X384540Y900900D03*
D18*
X407550Y900900D03*
X413790Y900900D03*
D13*
X422370Y900900D03*
X436410Y900900D03*
D12*
X450840Y900900D03*
D13*
X473850Y900900D03*
D20*
X480480Y900900D03*
D13*
X489450Y900900D03*
D12*
X497640Y900900D03*
D13*
X513630Y900900D03*
X529230Y900900D03*
D16*
X545220Y900900D03*
D13*
X556530Y900900D03*
D20*
X563160Y900900D03*
D13*
X572130Y900900D03*
X579930Y900900D03*
X593970Y900900D03*
D12*
X602160Y900900D03*
D19*
X616980Y900900D03*
D16*
X639600Y900900D03*
D13*
X651690Y900900D03*
X667290Y900900D03*
X354510Y901680D03*
X368550Y901680D03*
D20*
X384540Y901680D03*
D16*
X411060Y901680D03*
D13*
X422370Y901680D03*
X436410Y901680D03*
D12*
X450840Y901680D03*
D13*
X473850Y901680D03*
D20*
X481260Y901680D03*
D13*
X489450Y901680D03*
D12*
X497640Y901680D03*
D13*
X513630Y901680D03*
X529230Y901680D03*
D16*
X545220Y901680D03*
D13*
X556530Y901680D03*
D20*
X563940Y901680D03*
D13*
X572130Y901680D03*
D17*
X582660Y901680D03*
D13*
X593970Y901680D03*
D12*
X602160Y901680D03*
D21*
X617370Y901680D03*
D16*
X639600Y901680D03*
D13*
X651690Y901680D03*
X667290Y901680D03*
X354510Y902460D03*
X368550Y902460D03*
D26*
X384540Y902460D03*
D28*
X411450Y902460D03*
D13*
X422370Y902460D03*
X436410Y902460D03*
D12*
X450840Y902460D03*
D13*
X473850Y902460D03*
D20*
X482040Y902460D03*
D13*
X489450Y902460D03*
D12*
X497640Y902460D03*
D13*
X513630Y902460D03*
X529230Y902460D03*
D16*
X545220Y902460D03*
D13*
X556530Y902460D03*
D20*
X564720Y902460D03*
D13*
X572130Y902460D03*
D17*
X582660Y902460D03*
D13*
X593970Y902460D03*
D12*
X602160Y902460D03*
D21*
X617370Y902460D03*
D16*
X639600Y902460D03*
D13*
X651690Y902460D03*
X667290Y902460D03*
X354510Y903240D03*
X368550Y903240D03*
D17*
X384540Y903240D03*
X411840Y903240D03*
D13*
X422370Y903240D03*
X436410Y903240D03*
D12*
X450840Y903240D03*
D13*
X473850Y903240D03*
D20*
X483600Y903240D03*
D13*
X489450Y903240D03*
D12*
X497640Y903240D03*
D13*
X513630Y903240D03*
X529230Y903240D03*
D16*
X545220Y903240D03*
D13*
X556530Y903240D03*
D20*
X566280Y903240D03*
D13*
X572130Y903240D03*
X593970Y903240D03*
D12*
X602160Y903240D03*
X624000Y903240D03*
D16*
X639600Y903240D03*
D13*
X651690Y903240D03*
X667290Y903240D03*
X354510Y904020D03*
X368550Y904020D03*
D16*
X384540Y904020D03*
D28*
X411450Y904020D03*
D13*
X422370Y904020D03*
X436410Y904020D03*
D12*
X450840Y904020D03*
D13*
X473850Y904020D03*
D20*
X484380Y904020D03*
D13*
X489450Y904020D03*
D12*
X497640Y904020D03*
X514020Y904020D03*
D13*
X529230Y904020D03*
X548730Y904020D03*
X556530Y904020D03*
D20*
X567060Y904020D03*
D13*
X572130Y904020D03*
X593970Y904020D03*
D12*
X602160Y904020D03*
D13*
X624390Y904020D03*
X643110Y904020D03*
X651690Y904020D03*
X667290Y904020D03*
X354510Y904800D03*
X368550Y904800D03*
D31*
X384540Y904800D03*
D20*
X408720Y904800D03*
D13*
X414570Y904800D03*
X422370Y904800D03*
X436410Y904800D03*
D12*
X450840Y904800D03*
D13*
X473850Y904800D03*
D17*
X486720Y904800D03*
D12*
X497640Y904800D03*
D13*
X514410Y904800D03*
X529230Y904800D03*
X548730Y904800D03*
X556530Y904800D03*
D17*
X569400Y904800D03*
D13*
X593970Y904800D03*
D12*
X602160Y904800D03*
D13*
X624390Y904800D03*
X643110Y904800D03*
D12*
X652080Y904800D03*
D13*
X667290Y904800D03*
X354510Y905580D03*
X368550Y905580D03*
D20*
X380640Y905580D03*
X388440Y905580D03*
X407160Y905580D03*
D13*
X414570Y905580D03*
X422370Y905580D03*
X436410Y905580D03*
D12*
X450840Y905580D03*
D13*
X473850Y905580D03*
D27*
X487110Y905580D03*
D12*
X497640Y905580D03*
X514800Y905580D03*
D13*
X529230Y905580D03*
X548730Y905580D03*
X556530Y905580D03*
D26*
X570180Y905580D03*
D13*
X593970Y905580D03*
D12*
X602160Y905580D03*
D13*
X624390Y905580D03*
X643110Y905580D03*
D12*
X652860Y905580D03*
D13*
X667290Y905580D03*
D12*
X354900Y906360D03*
D13*
X368550Y906360D03*
D20*
X379860Y906360D03*
X389220Y906360D03*
X406380Y906360D03*
D13*
X414570Y906360D03*
D12*
X422760Y906360D03*
D13*
X436410Y906360D03*
D12*
X450840Y906360D03*
D13*
X473850Y906360D03*
D23*
X487890Y906360D03*
D12*
X497640Y906360D03*
D18*
X515970Y906360D03*
D13*
X529230Y906360D03*
X548730Y906360D03*
X556530Y906360D03*
D23*
X570570Y906360D03*
D13*
X593970Y906360D03*
D12*
X602160Y906360D03*
X624000Y906360D03*
D13*
X643110Y906360D03*
D20*
X653640Y906360D03*
D13*
X667290Y906360D03*
D21*
X361530Y907140D03*
D20*
X379080Y907140D03*
X390000Y907140D03*
X404820Y907140D03*
D13*
X414570Y907140D03*
D21*
X429390Y907140D03*
D25*
X450840Y907140D03*
D13*
X473850Y907140D03*
D20*
X488280Y907140D03*
D12*
X497640Y907140D03*
D21*
X522210Y907140D03*
D32*
X542490Y907140D03*
D13*
X556530Y907140D03*
D20*
X570960Y907140D03*
D21*
X586950Y907140D03*
D12*
X602160Y907140D03*
D21*
X617370Y907140D03*
D32*
X636870Y907140D03*
D21*
X660270Y907140D03*
D19*
X361920Y907920D03*
D20*
X378300Y907920D03*
X390780Y907920D03*
X404040Y907920D03*
D13*
X414570Y907920D03*
D21*
X429390Y907920D03*
D25*
X450840Y907920D03*
D13*
X473850Y907920D03*
D18*
X488670Y907920D03*
D12*
X497640Y907920D03*
D19*
X522600Y907920D03*
D32*
X542490Y907920D03*
D13*
X556530Y907920D03*
D18*
X571350Y907920D03*
D21*
X586950Y907920D03*
D12*
X602160Y907920D03*
D21*
X617370Y907920D03*
D32*
X636870Y907920D03*
D19*
X660660Y907920D03*
D34*
X361920Y908700D03*
D20*
X377520Y908700D03*
X391560Y908700D03*
X402480Y908700D03*
D13*
X414570Y908700D03*
D32*
X429390Y908700D03*
D25*
X450840Y908700D03*
D13*
X473850Y908700D03*
D12*
X489060Y908700D03*
X497640Y908700D03*
D22*
X523770Y908700D03*
D32*
X542490Y908700D03*
D13*
X556530Y908700D03*
D12*
X571740Y908700D03*
D19*
X586560Y908700D03*
D12*
X602160Y908700D03*
D19*
X616980Y908700D03*
D32*
X636870Y908700D03*
D34*
X661440Y908700D03*
D35*
X260692Y376252D02*
X252903Y376252D01*
X256797Y380146D02*
X256797Y372357D01*
X253192Y513252D02*
X245403Y513252D01*
D36*
X264765Y410845D02*
X265908Y410845D01*
X264765Y410845D02*
X264765Y407035D01*
X267051Y407035D01*
X267128Y407037D01*
X267205Y407043D01*
X267282Y407053D01*
X267358Y407066D01*
X267433Y407084D01*
X267507Y407105D01*
X267580Y407130D01*
X267652Y407159D01*
X267722Y407191D01*
X267791Y407226D01*
X267857Y407266D01*
X267922Y407308D01*
X267984Y407354D01*
X268044Y407403D01*
X268101Y407454D01*
X268156Y407509D01*
X268207Y407566D01*
X268256Y407626D01*
X268302Y407688D01*
X268344Y407753D01*
X268384Y407819D01*
X268419Y407888D01*
X268451Y407958D01*
X268480Y408030D01*
X268505Y408103D01*
X268526Y408177D01*
X268544Y408252D01*
X268557Y408328D01*
X268567Y408405D01*
X268573Y408482D01*
X268575Y408559D01*
X268575Y412369D01*
X268573Y412446D01*
X268567Y412523D01*
X268557Y412600D01*
X268544Y412676D01*
X268526Y412751D01*
X268505Y412825D01*
X268480Y412898D01*
X268451Y412970D01*
X268419Y413040D01*
X268384Y413109D01*
X268344Y413175D01*
X268302Y413240D01*
X268256Y413302D01*
X268207Y413362D01*
X268156Y413419D01*
X268101Y413474D01*
X268044Y413525D01*
X267984Y413574D01*
X267922Y413620D01*
X267857Y413662D01*
X267791Y413702D01*
X267722Y413737D01*
X267652Y413769D01*
X267580Y413798D01*
X267507Y413823D01*
X267433Y413844D01*
X267358Y413862D01*
X267282Y413875D01*
X267205Y413885D01*
X267128Y413891D01*
X267051Y413893D01*
X264765Y413893D01*
X258920Y413894D02*
X258838Y413892D01*
X258757Y413886D01*
X258676Y413877D01*
X258595Y413863D01*
X258516Y413846D01*
X258437Y413825D01*
X258359Y413800D01*
X258283Y413771D01*
X258208Y413739D01*
X258134Y413703D01*
X258063Y413664D01*
X257993Y413622D01*
X257925Y413576D01*
X257860Y413527D01*
X257797Y413475D01*
X257737Y413420D01*
X257679Y413362D01*
X257624Y413302D01*
X257572Y413239D01*
X257523Y413174D01*
X257477Y413106D01*
X257435Y413037D01*
X257396Y412965D01*
X257360Y412891D01*
X257328Y412816D01*
X257299Y412740D01*
X257274Y412662D01*
X257253Y412583D01*
X257236Y412504D01*
X257222Y412423D01*
X257213Y412342D01*
X257207Y412261D01*
X257205Y412179D01*
X258920Y413893D02*
X259012Y413891D01*
X259104Y413885D01*
X259196Y413876D01*
X259288Y413862D01*
X259378Y413845D01*
X259468Y413824D01*
X259557Y413799D01*
X259645Y413770D01*
X259732Y413738D01*
X259817Y413702D01*
X259900Y413663D01*
X259982Y413620D01*
X260062Y413574D01*
X260140Y413524D01*
X260216Y413472D01*
X260289Y413416D01*
X260360Y413357D01*
X260429Y413295D01*
X260495Y413230D01*
X260558Y413163D01*
X260618Y413093D01*
X260676Y413021D01*
X260730Y412946D01*
X260781Y412869D01*
X260829Y412790D01*
X260873Y412709D01*
X260914Y412626D01*
X260952Y412542D01*
X260986Y412456D01*
X261016Y412369D01*
X257777Y410845D02*
X257718Y410904D01*
X257662Y410965D01*
X257609Y411028D01*
X257558Y411094D01*
X257511Y411162D01*
X257467Y411232D01*
X257426Y411304D01*
X257388Y411378D01*
X257354Y411453D01*
X257323Y411530D01*
X257296Y411608D01*
X257272Y411688D01*
X257251Y411768D01*
X257235Y411849D01*
X257222Y411931D01*
X257212Y412013D01*
X257207Y412096D01*
X257205Y412179D01*
X257777Y410845D02*
X261015Y407035D01*
X257205Y407035D01*
X18275Y244097D02*
X18275Y243024D01*
X18276Y243024D02*
X18278Y242959D01*
X18284Y242895D01*
X18294Y242831D01*
X18307Y242767D01*
X18325Y242705D01*
X18346Y242644D01*
X18370Y242584D01*
X18399Y242526D01*
X18431Y242469D01*
X18466Y242415D01*
X18504Y242363D01*
X18546Y242313D01*
X18590Y242266D01*
X18637Y242222D01*
X18687Y242180D01*
X18739Y242142D01*
X18793Y242107D01*
X18850Y242075D01*
X18908Y242046D01*
X18968Y242022D01*
X19029Y242001D01*
X19091Y241983D01*
X19155Y241970D01*
X19219Y241960D01*
X19283Y241954D01*
X19348Y241952D01*
X22029Y241952D01*
X22094Y241954D01*
X22158Y241960D01*
X22222Y241970D01*
X22286Y241983D01*
X22348Y242001D01*
X22409Y242022D01*
X22469Y242046D01*
X22527Y242075D01*
X22584Y242107D01*
X22638Y242142D01*
X22690Y242180D01*
X22740Y242222D01*
X22787Y242266D01*
X22831Y242313D01*
X22873Y242363D01*
X22911Y242415D01*
X22946Y242469D01*
X22978Y242526D01*
X23007Y242584D01*
X23031Y242644D01*
X23052Y242705D01*
X23070Y242767D01*
X23083Y242831D01*
X23093Y242895D01*
X23099Y242959D01*
X23101Y243024D01*
X23101Y244097D01*
X18275Y246552D02*
X18275Y247893D01*
X18277Y247964D01*
X18283Y248036D01*
X18292Y248106D01*
X18305Y248176D01*
X18322Y248246D01*
X18343Y248314D01*
X18367Y248381D01*
X18395Y248447D01*
X18426Y248511D01*
X18461Y248574D01*
X18499Y248634D01*
X18540Y248693D01*
X18584Y248749D01*
X18631Y248803D01*
X18680Y248854D01*
X18733Y248902D01*
X18788Y248948D01*
X18845Y248990D01*
X18905Y249030D01*
X18966Y249066D01*
X19030Y249099D01*
X19095Y249128D01*
X19161Y249154D01*
X19229Y249177D01*
X19298Y249196D01*
X19368Y249211D01*
X19438Y249222D01*
X19509Y249230D01*
X19580Y249234D01*
X19652Y249234D01*
X19723Y249230D01*
X19794Y249222D01*
X19864Y249211D01*
X19934Y249196D01*
X20003Y249177D01*
X20071Y249154D01*
X20137Y249128D01*
X20202Y249099D01*
X20266Y249066D01*
X20327Y249030D01*
X20387Y248990D01*
X20444Y248948D01*
X20499Y248902D01*
X20552Y248854D01*
X20601Y248803D01*
X20648Y248749D01*
X20692Y248693D01*
X20733Y248634D01*
X20771Y248574D01*
X20806Y248511D01*
X20837Y248447D01*
X20865Y248381D01*
X20889Y248314D01*
X20910Y248246D01*
X20927Y248176D01*
X20940Y248106D01*
X20949Y248036D01*
X20955Y247964D01*
X20957Y247893D01*
X23101Y248161D02*
X23101Y246552D01*
X23101Y248161D02*
X23099Y248226D01*
X23093Y248290D01*
X23083Y248354D01*
X23070Y248418D01*
X23052Y248480D01*
X23031Y248541D01*
X23007Y248601D01*
X22978Y248659D01*
X22946Y248716D01*
X22911Y248770D01*
X22873Y248822D01*
X22831Y248872D01*
X22787Y248919D01*
X22740Y248963D01*
X22690Y249005D01*
X22638Y249043D01*
X22584Y249078D01*
X22527Y249110D01*
X22469Y249139D01*
X22409Y249163D01*
X22348Y249184D01*
X22286Y249202D01*
X22222Y249215D01*
X22158Y249225D01*
X22094Y249231D01*
X22029Y249233D01*
X21964Y249231D01*
X21900Y249225D01*
X21836Y249215D01*
X21772Y249202D01*
X21710Y249184D01*
X21649Y249163D01*
X21589Y249139D01*
X21531Y249110D01*
X21474Y249078D01*
X21420Y249043D01*
X21368Y249005D01*
X21318Y248963D01*
X21271Y248919D01*
X21227Y248872D01*
X21185Y248822D01*
X21147Y248770D01*
X21112Y248716D01*
X21080Y248659D01*
X21051Y248601D01*
X21027Y248541D01*
X21006Y248480D01*
X20988Y248418D01*
X20975Y248354D01*
X20965Y248290D01*
X20959Y248226D01*
X20957Y248161D01*
X20956Y248161D02*
X20956Y247089D01*
X23102Y253513D02*
X23100Y253581D01*
X23094Y253648D01*
X23085Y253715D01*
X23072Y253782D01*
X23055Y253847D01*
X23034Y253912D01*
X23010Y253975D01*
X22982Y254037D01*
X22951Y254097D01*
X22917Y254155D01*
X22879Y254211D01*
X22839Y254266D01*
X22795Y254317D01*
X22748Y254366D01*
X22699Y254413D01*
X22648Y254457D01*
X22593Y254497D01*
X22537Y254535D01*
X22479Y254569D01*
X22419Y254600D01*
X22357Y254628D01*
X22294Y254652D01*
X22229Y254673D01*
X22164Y254690D01*
X22097Y254703D01*
X22030Y254712D01*
X21963Y254718D01*
X21895Y254720D01*
X23101Y253513D02*
X23099Y253435D01*
X23093Y253357D01*
X23083Y253280D01*
X23070Y253203D01*
X23052Y253127D01*
X23031Y253052D01*
X23006Y252978D01*
X22977Y252906D01*
X22945Y252835D01*
X22909Y252766D01*
X22870Y252698D01*
X22827Y252633D01*
X22781Y252570D01*
X22732Y252509D01*
X22680Y252451D01*
X22625Y252396D01*
X22568Y252343D01*
X22508Y252294D01*
X22445Y252247D01*
X22380Y252204D01*
X22314Y252164D01*
X22245Y252127D01*
X22174Y252094D01*
X22102Y252064D01*
X22029Y252038D01*
X20957Y254318D02*
X21006Y254367D01*
X21058Y254414D01*
X21113Y254457D01*
X21170Y254498D01*
X21229Y254536D01*
X21290Y254570D01*
X21353Y254601D01*
X21417Y254629D01*
X21483Y254653D01*
X21549Y254673D01*
X21617Y254690D01*
X21686Y254703D01*
X21755Y254712D01*
X21825Y254718D01*
X21895Y254720D01*
X20956Y254318D02*
X18275Y252039D01*
X18275Y254720D01*
D37*
X789940Y393700D02*
X789958Y395196D01*
X790013Y396691D01*
X790105Y398184D01*
X790234Y399675D01*
X790398Y401162D01*
X790600Y402645D01*
X790837Y404122D01*
X791111Y405593D01*
X791421Y407056D01*
X791767Y408512D01*
X792148Y409959D01*
X792565Y411396D01*
X793017Y412822D01*
X793503Y414237D01*
X794025Y415639D01*
X794580Y417028D01*
X795170Y418404D01*
X795793Y419764D01*
X796449Y421108D01*
X797138Y422436D01*
X797859Y423747D01*
X798613Y425040D01*
X799398Y426313D01*
X800214Y427568D01*
X801060Y428801D01*
X801936Y430014D01*
X802842Y431205D01*
X803777Y432373D01*
X804741Y433517D01*
X805732Y434638D01*
X806750Y435734D01*
X807795Y436805D01*
X808866Y437850D01*
X809962Y438868D01*
X811083Y439859D01*
X812227Y440823D01*
X813395Y441758D01*
X814586Y442664D01*
X815799Y443540D01*
X817032Y444386D01*
X818287Y445202D01*
X819560Y445987D01*
X820853Y446741D01*
X822164Y447462D01*
X823492Y448151D01*
X824836Y448807D01*
X826196Y449430D01*
X827572Y450020D01*
X828961Y450575D01*
X830363Y451097D01*
X831778Y451583D01*
X833204Y452035D01*
X834641Y452452D01*
X836088Y452833D01*
X837544Y453179D01*
X839007Y453489D01*
X840478Y453763D01*
X841955Y454000D01*
X843438Y454202D01*
X844925Y454366D01*
X846416Y454495D01*
X847909Y454587D01*
X849404Y454642D01*
X850900Y454660D01*
X852396Y454642D01*
X853891Y454587D01*
X855384Y454495D01*
X856875Y454366D01*
X858362Y454202D01*
X859845Y454000D01*
X861322Y453763D01*
X862793Y453489D01*
X864256Y453179D01*
X865712Y452833D01*
X867159Y452452D01*
X868596Y452035D01*
X870022Y451583D01*
X871437Y451097D01*
X872839Y450575D01*
X874228Y450020D01*
X875604Y449430D01*
X876964Y448807D01*
X878308Y448151D01*
X879636Y447462D01*
X880947Y446741D01*
X882240Y445987D01*
X883513Y445202D01*
X884768Y444386D01*
X886001Y443540D01*
X887214Y442664D01*
X888405Y441758D01*
X889573Y440823D01*
X890717Y439859D01*
X891838Y438868D01*
X892934Y437850D01*
X894005Y436805D01*
X895050Y435734D01*
X896068Y434638D01*
X897059Y433517D01*
X898023Y432373D01*
X898958Y431205D01*
X899864Y430014D01*
X900740Y428801D01*
X901586Y427568D01*
X902402Y426313D01*
X903187Y425040D01*
X903941Y423747D01*
X904662Y422436D01*
X905351Y421108D01*
X906007Y419764D01*
X906630Y418404D01*
X907220Y417028D01*
X907775Y415639D01*
X908297Y414237D01*
X908783Y412822D01*
X909235Y411396D01*
X909652Y409959D01*
X910033Y408512D01*
X910379Y407056D01*
X910689Y405593D01*
X910963Y404122D01*
X911200Y402645D01*
X911402Y401162D01*
X911566Y399675D01*
X911695Y398184D01*
X911787Y396691D01*
X911842Y395196D01*
X911860Y393700D01*
X911842Y392204D01*
X911787Y390709D01*
X911695Y389216D01*
X911566Y387725D01*
X911402Y386238D01*
X911200Y384755D01*
X910963Y383278D01*
X910689Y381807D01*
X910379Y380344D01*
X910033Y378888D01*
X909652Y377441D01*
X909235Y376004D01*
X908783Y374578D01*
X908297Y373163D01*
X907775Y371761D01*
X907220Y370372D01*
X906630Y368996D01*
X906007Y367636D01*
X905351Y366292D01*
X904662Y364964D01*
X903941Y363653D01*
X903187Y362360D01*
X902402Y361087D01*
X901586Y359832D01*
X900740Y358599D01*
X899864Y357386D01*
X898958Y356195D01*
X898023Y355027D01*
X897059Y353883D01*
X896068Y352762D01*
X895050Y351666D01*
X894005Y350595D01*
X892934Y349550D01*
X891838Y348532D01*
X890717Y347541D01*
X889573Y346577D01*
X888405Y345642D01*
X887214Y344736D01*
X886001Y343860D01*
X884768Y343014D01*
X883513Y342198D01*
X882240Y341413D01*
X880947Y340659D01*
X879636Y339938D01*
X878308Y339249D01*
X876964Y338593D01*
X875604Y337970D01*
X874228Y337380D01*
X872839Y336825D01*
X871437Y336303D01*
X870022Y335817D01*
X868596Y335365D01*
X867159Y334948D01*
X865712Y334567D01*
X864256Y334221D01*
X862793Y333911D01*
X861322Y333637D01*
X859845Y333400D01*
X858362Y333198D01*
X856875Y333034D01*
X855384Y332905D01*
X853891Y332813D01*
X852396Y332758D01*
X850900Y332740D01*
X849404Y332758D01*
X847909Y332813D01*
X846416Y332905D01*
X844925Y333034D01*
X843438Y333198D01*
X841955Y333400D01*
X840478Y333637D01*
X839007Y333911D01*
X837544Y334221D01*
X836088Y334567D01*
X834641Y334948D01*
X833204Y335365D01*
X831778Y335817D01*
X830363Y336303D01*
X828961Y336825D01*
X827572Y337380D01*
X826196Y337970D01*
X824836Y338593D01*
X823492Y339249D01*
X822164Y339938D01*
X820853Y340659D01*
X819560Y341413D01*
X818287Y342198D01*
X817032Y343014D01*
X815799Y343860D01*
X814586Y344736D01*
X813395Y345642D01*
X812227Y346577D01*
X811083Y347541D01*
X809962Y348532D01*
X808866Y349550D01*
X807795Y350595D01*
X806750Y351666D01*
X805732Y352762D01*
X804741Y353883D01*
X803777Y355027D01*
X802842Y356195D01*
X801936Y357386D01*
X801060Y358599D01*
X800214Y359832D01*
X799398Y361087D01*
X798613Y362360D01*
X797859Y363653D01*
X797138Y364964D01*
X796449Y366292D01*
X795793Y367636D01*
X795170Y368996D01*
X794580Y370372D01*
X794025Y371761D01*
X793503Y373163D01*
X793017Y374578D01*
X792565Y376004D01*
X792148Y377441D01*
X791767Y378888D01*
X791421Y380344D01*
X791111Y381807D01*
X790837Y383278D01*
X790600Y384755D01*
X790398Y386238D01*
X790234Y387725D01*
X790105Y389216D01*
X790013Y390709D01*
X789958Y392204D01*
X789940Y393700D01*
D36*
X857815Y427375D02*
X857817Y427275D01*
X857823Y427176D01*
X857833Y427076D01*
X857846Y426978D01*
X857864Y426879D01*
X857885Y426782D01*
X857910Y426686D01*
X857939Y426590D01*
X857972Y426496D01*
X858008Y426403D01*
X858048Y426312D01*
X858092Y426222D01*
X858139Y426134D01*
X858189Y426048D01*
X858243Y425964D01*
X858300Y425882D01*
X858360Y425803D01*
X858424Y425725D01*
X858490Y425651D01*
X858559Y425579D01*
X858631Y425510D01*
X858705Y425444D01*
X858783Y425380D01*
X858862Y425320D01*
X858944Y425263D01*
X859028Y425209D01*
X859114Y425159D01*
X859202Y425112D01*
X859292Y425068D01*
X859383Y425028D01*
X859476Y424992D01*
X859570Y424959D01*
X859666Y424930D01*
X859762Y424905D01*
X859859Y424884D01*
X859958Y424866D01*
X860056Y424853D01*
X860156Y424843D01*
X860255Y424837D01*
X860355Y424835D01*
X860496Y424837D01*
X860637Y424842D01*
X860778Y424852D01*
X860919Y424865D01*
X861059Y424881D01*
X861199Y424902D01*
X861338Y424926D01*
X861477Y424954D01*
X861614Y424985D01*
X861751Y425020D01*
X861887Y425058D01*
X862022Y425100D01*
X862155Y425146D01*
X862288Y425195D01*
X862419Y425248D01*
X862548Y425304D01*
X862677Y425363D01*
X862803Y425426D01*
X862928Y425492D01*
X863051Y425561D01*
X863172Y425634D01*
X863291Y425710D01*
X863409Y425789D01*
X863524Y425870D01*
X863636Y425955D01*
X863747Y426043D01*
X863855Y426134D01*
X863961Y426227D01*
X864064Y426324D01*
X864165Y426423D01*
X863848Y433725D02*
X863846Y433825D01*
X863840Y433924D01*
X863830Y434024D01*
X863817Y434122D01*
X863799Y434221D01*
X863778Y434318D01*
X863753Y434414D01*
X863724Y434510D01*
X863691Y434604D01*
X863655Y434697D01*
X863615Y434788D01*
X863571Y434878D01*
X863524Y434966D01*
X863474Y435052D01*
X863420Y435136D01*
X863363Y435218D01*
X863303Y435297D01*
X863239Y435375D01*
X863173Y435449D01*
X863104Y435521D01*
X863032Y435590D01*
X862958Y435656D01*
X862880Y435720D01*
X862801Y435780D01*
X862719Y435837D01*
X862635Y435891D01*
X862549Y435941D01*
X862461Y435988D01*
X862371Y436032D01*
X862280Y436072D01*
X862187Y436108D01*
X862093Y436141D01*
X861997Y436170D01*
X861901Y436195D01*
X861804Y436216D01*
X861705Y436234D01*
X861607Y436247D01*
X861507Y436257D01*
X861408Y436263D01*
X861308Y436265D01*
X861308Y436266D02*
X861175Y436264D01*
X861042Y436259D01*
X860909Y436249D01*
X860776Y436236D01*
X860644Y436219D01*
X860512Y436199D01*
X860381Y436175D01*
X860251Y436147D01*
X860121Y436116D01*
X859993Y436081D01*
X859865Y436042D01*
X859739Y436000D01*
X859614Y435954D01*
X859490Y435905D01*
X859367Y435853D01*
X859246Y435797D01*
X859127Y435737D01*
X859009Y435675D01*
X858894Y435609D01*
X858780Y435540D01*
X858668Y435467D01*
X858558Y435392D01*
X858450Y435313D01*
X862578Y431502D02*
X862662Y431554D01*
X862745Y431609D01*
X862825Y431668D01*
X862903Y431729D01*
X862978Y431793D01*
X863051Y431861D01*
X863122Y431931D01*
X863189Y432003D01*
X863254Y432078D01*
X863316Y432156D01*
X863375Y432236D01*
X863431Y432318D01*
X863483Y432402D01*
X863532Y432488D01*
X863578Y432576D01*
X863621Y432666D01*
X863660Y432757D01*
X863695Y432850D01*
X863727Y432944D01*
X863755Y433039D01*
X863780Y433135D01*
X863800Y433232D01*
X863818Y433330D01*
X863831Y433428D01*
X863840Y433527D01*
X863846Y433626D01*
X863848Y433725D01*
X859085Y429598D02*
X859001Y429546D01*
X858918Y429491D01*
X858838Y429432D01*
X858760Y429371D01*
X858685Y429307D01*
X858612Y429239D01*
X858541Y429169D01*
X858474Y429097D01*
X858409Y429022D01*
X858347Y428944D01*
X858288Y428864D01*
X858232Y428782D01*
X858180Y428698D01*
X858131Y428612D01*
X858085Y428524D01*
X858042Y428434D01*
X858003Y428343D01*
X857968Y428250D01*
X857936Y428156D01*
X857908Y428061D01*
X857883Y427965D01*
X857863Y427868D01*
X857845Y427770D01*
X857832Y427672D01*
X857823Y427573D01*
X857817Y427474D01*
X857815Y427375D01*
X859085Y429598D02*
X862578Y431503D01*
X852545Y436265D02*
X852545Y424835D01*
X852545Y436265D02*
X849370Y436265D01*
X849259Y436263D01*
X849149Y436257D01*
X849038Y436248D01*
X848928Y436234D01*
X848819Y436217D01*
X848710Y436196D01*
X848602Y436171D01*
X848495Y436142D01*
X848389Y436110D01*
X848284Y436074D01*
X848181Y436034D01*
X848079Y435991D01*
X847978Y435944D01*
X847879Y435893D01*
X847783Y435840D01*
X847688Y435783D01*
X847595Y435722D01*
X847504Y435659D01*
X847415Y435592D01*
X847329Y435522D01*
X847246Y435449D01*
X847164Y435374D01*
X847086Y435296D01*
X847011Y435214D01*
X846938Y435131D01*
X846868Y435045D01*
X846801Y434956D01*
X846738Y434865D01*
X846677Y434772D01*
X846620Y434678D01*
X846567Y434581D01*
X846516Y434482D01*
X846469Y434381D01*
X846426Y434279D01*
X846386Y434176D01*
X846350Y434071D01*
X846318Y433965D01*
X846289Y433858D01*
X846264Y433750D01*
X846243Y433641D01*
X846226Y433532D01*
X846212Y433422D01*
X846203Y433311D01*
X846197Y433201D01*
X846195Y433090D01*
X846197Y432979D01*
X846203Y432869D01*
X846212Y432758D01*
X846226Y432648D01*
X846243Y432539D01*
X846264Y432430D01*
X846289Y432322D01*
X846318Y432215D01*
X846350Y432109D01*
X846386Y432004D01*
X846426Y431901D01*
X846469Y431799D01*
X846516Y431698D01*
X846567Y431599D01*
X846620Y431503D01*
X846677Y431408D01*
X846738Y431315D01*
X846801Y431224D01*
X846868Y431135D01*
X846938Y431049D01*
X847011Y430966D01*
X847086Y430884D01*
X847164Y430806D01*
X847246Y430731D01*
X847329Y430658D01*
X847415Y430588D01*
X847504Y430521D01*
X847595Y430458D01*
X847688Y430397D01*
X847783Y430340D01*
X847879Y430287D01*
X847978Y430236D01*
X848079Y430189D01*
X848181Y430146D01*
X848284Y430106D01*
X848389Y430070D01*
X848495Y430038D01*
X848602Y430009D01*
X848710Y429984D01*
X848819Y429963D01*
X848928Y429946D01*
X849038Y429932D01*
X849149Y429923D01*
X849259Y429917D01*
X849370Y429915D01*
X852545Y429915D01*
X841686Y433725D02*
X838511Y436265D01*
X838511Y424835D01*
X841686Y424835D02*
X835336Y424835D01*
M02*
