G04 EAGLE Gerber RS-274X export*
G75*
%MOMM*%
%FSLAX34Y34*%
%LPD*%
%INSolderpaste Top*%
%IPPOS*%
%AMOC8*
5,1,8,0,0,1.08239X$1,22.5*%
G01*
%ADD10C,0.080000*%
%ADD11R,1.100000X1.000000*%
%ADD12R,1.000000X1.100000*%
%ADD13R,1.143000X0.381000*%
%ADD14R,1.000000X1.800000*%
%ADD15R,1.100000X1.200000*%
%ADD16R,1.520281X1.520281*%
%ADD17R,0.230000X0.800000*%
%ADD18R,0.800000X0.230000*%
%ADD19R,0.300000X0.660000*%
%ADD20R,1.400000X0.700000*%
%ADD21R,0.800000X1.200000*%
%ADD22R,0.630000X0.830000*%
%ADD23R,0.800000X0.900000*%
%ADD24C,0.300000*%
%ADD25R,1.500000X0.700000*%
%ADD26R,0.800000X1.000000*%
%ADD27R,1.400000X0.350000*%
%ADD28R,1.900000X1.800000*%
%ADD29R,1.900000X1.900000*%
%ADD30R,1.600000X2.100000*%
%ADD31R,1.500000X0.650000*%
%ADD32R,1.701800X0.609600*%
%ADD33R,0.700000X0.700000*%
%ADD34C,0.200000*%
%ADD35R,0.914400X2.286000*%
%ADD36R,1.350000X0.750000*%
%ADD37R,1.800000X0.600000*%
%ADD38R,0.900000X1.300000*%

G36*
X51012Y375123D02*
X51012Y375123D01*
X51006Y375131D01*
X51014Y375136D01*
X51014Y382636D01*
X50978Y382684D01*
X50970Y382678D01*
X50965Y382686D01*
X35965Y382686D01*
X35869Y382686D01*
X35854Y382674D01*
X35844Y382679D01*
X35769Y382634D01*
X35617Y382550D01*
X35461Y382474D01*
X35302Y382407D01*
X35220Y382376D01*
X35220Y382375D01*
X35219Y382376D01*
X35118Y382334D01*
X34910Y382257D01*
X34701Y382191D01*
X34488Y382135D01*
X34380Y382111D01*
X34379Y382110D01*
X34378Y382111D01*
X34291Y382087D01*
X34117Y382047D01*
X33942Y382015D01*
X33765Y381993D01*
X33675Y381984D01*
X33673Y381983D01*
X33672Y381984D01*
X33584Y381970D01*
X33408Y381950D01*
X33232Y381938D01*
X33054Y381934D01*
X32966Y381936D01*
X32918Y381901D01*
X32919Y381898D01*
X32917Y381897D01*
X32922Y381891D01*
X32915Y381886D01*
X32915Y375136D01*
X32951Y375089D01*
X32959Y375095D01*
X32965Y375087D01*
X50965Y375087D01*
X51012Y375123D01*
G37*
G36*
X35965Y350587D02*
X35965Y350587D01*
X50965Y350587D01*
X51012Y350623D01*
X51006Y350631D01*
X51014Y350636D01*
X51014Y358136D01*
X50978Y358184D01*
X50970Y358178D01*
X50965Y358186D01*
X32965Y358186D01*
X32917Y358150D01*
X32923Y358142D01*
X32915Y358136D01*
X32915Y351386D01*
X32951Y351339D01*
X32959Y351345D01*
X32966Y351337D01*
X33054Y351339D01*
X33232Y351335D01*
X33408Y351323D01*
X33584Y351302D01*
X33672Y351289D01*
X33674Y351290D01*
X33675Y351288D01*
X33765Y351280D01*
X33942Y351257D01*
X34117Y351226D01*
X34291Y351186D01*
X34378Y351162D01*
X34380Y351163D01*
X34380Y351162D01*
X34488Y351138D01*
X34701Y351082D01*
X34910Y351016D01*
X35118Y350939D01*
X35219Y350897D01*
X35220Y350898D01*
X35220Y350897D01*
X35302Y350866D01*
X35461Y350799D01*
X35617Y350723D01*
X35769Y350639D01*
X35844Y350594D01*
X35863Y350596D01*
X35869Y350587D01*
X35965Y350587D01*
G37*
D10*
X277419Y322843D02*
X272839Y328397D01*
X278393Y332977D01*
X282973Y327423D01*
X277419Y322843D01*
X276792Y323603D02*
X278341Y323603D01*
X279262Y324363D02*
X276166Y324363D01*
X275539Y325123D02*
X280184Y325123D01*
X281105Y325883D02*
X274912Y325883D01*
X274285Y326643D02*
X282027Y326643D01*
X282949Y327403D02*
X273659Y327403D01*
X273032Y328163D02*
X282363Y328163D01*
X281736Y328923D02*
X273477Y328923D01*
X274398Y329683D02*
X281109Y329683D01*
X280483Y330443D02*
X275320Y330443D01*
X276242Y331203D02*
X279856Y331203D01*
X279229Y331963D02*
X277163Y331963D01*
X278085Y332723D02*
X278602Y332723D01*
X282380Y316823D02*
X286960Y311269D01*
X282380Y316823D02*
X287934Y321403D01*
X292514Y315849D01*
X286960Y311269D01*
X286333Y312029D02*
X287882Y312029D01*
X288803Y312789D02*
X285707Y312789D01*
X285080Y313549D02*
X289725Y313549D01*
X290646Y314309D02*
X284453Y314309D01*
X283826Y315069D02*
X291568Y315069D01*
X292490Y315829D02*
X283200Y315829D01*
X282573Y316589D02*
X291904Y316589D01*
X291277Y317349D02*
X283018Y317349D01*
X283939Y318109D02*
X290650Y318109D01*
X290024Y318869D02*
X284861Y318869D01*
X285783Y319629D02*
X289397Y319629D01*
X288770Y320389D02*
X286704Y320389D01*
X287626Y321149D02*
X288143Y321149D01*
X222631Y267504D02*
X227211Y261950D01*
X221657Y257370D01*
X217077Y262924D01*
X222631Y267504D01*
X222579Y258130D02*
X221030Y258130D01*
X220404Y258890D02*
X223500Y258890D01*
X224422Y259650D02*
X219777Y259650D01*
X219150Y260410D02*
X225343Y260410D01*
X226265Y261170D02*
X218523Y261170D01*
X217897Y261930D02*
X227187Y261930D01*
X226601Y262690D02*
X217270Y262690D01*
X217715Y263450D02*
X225974Y263450D01*
X225347Y264210D02*
X218636Y264210D01*
X219558Y264970D02*
X224721Y264970D01*
X224094Y265730D02*
X220480Y265730D01*
X221401Y266490D02*
X223467Y266490D01*
X222840Y267250D02*
X222323Y267250D01*
X217670Y273524D02*
X213090Y279078D01*
X217670Y273524D02*
X212116Y268944D01*
X207536Y274498D01*
X213090Y279078D01*
X213038Y269704D02*
X211489Y269704D01*
X210863Y270464D02*
X213959Y270464D01*
X214881Y271224D02*
X210236Y271224D01*
X209609Y271984D02*
X215802Y271984D01*
X216724Y272744D02*
X208982Y272744D01*
X208356Y273504D02*
X217646Y273504D01*
X217060Y274264D02*
X207729Y274264D01*
X208174Y275024D02*
X216433Y275024D01*
X215806Y275784D02*
X209095Y275784D01*
X210017Y276544D02*
X215180Y276544D01*
X214553Y277304D02*
X210939Y277304D01*
X211860Y278064D02*
X213926Y278064D01*
X213299Y278824D02*
X212782Y278824D01*
X157327Y213630D02*
X161907Y208076D01*
X156353Y203496D01*
X151773Y209050D01*
X157327Y213630D01*
X157275Y204256D02*
X155726Y204256D01*
X155100Y205016D02*
X158196Y205016D01*
X159118Y205776D02*
X154473Y205776D01*
X153846Y206536D02*
X160039Y206536D01*
X160961Y207296D02*
X153219Y207296D01*
X152593Y208056D02*
X161883Y208056D01*
X161297Y208816D02*
X151966Y208816D01*
X152411Y209576D02*
X160670Y209576D01*
X160043Y210336D02*
X153332Y210336D01*
X154254Y211096D02*
X159417Y211096D01*
X158790Y211856D02*
X155176Y211856D01*
X156097Y212616D02*
X158163Y212616D01*
X157536Y213376D02*
X157019Y213376D01*
X152366Y219651D02*
X147786Y225205D01*
X152366Y219651D02*
X146812Y215071D01*
X142232Y220625D01*
X147786Y225205D01*
X147734Y215831D02*
X146185Y215831D01*
X145559Y216591D02*
X148655Y216591D01*
X149577Y217351D02*
X144932Y217351D01*
X144305Y218111D02*
X150498Y218111D01*
X151420Y218871D02*
X143678Y218871D01*
X143052Y219631D02*
X152342Y219631D01*
X151756Y220391D02*
X142425Y220391D01*
X142870Y221151D02*
X151129Y221151D01*
X150502Y221911D02*
X143791Y221911D01*
X144713Y222671D02*
X149876Y222671D01*
X149249Y223431D02*
X145635Y223431D01*
X146556Y224191D02*
X148622Y224191D01*
X147995Y224951D02*
X147478Y224951D01*
X76903Y166751D02*
X81483Y161197D01*
X76903Y166751D02*
X82457Y171331D01*
X87037Y165777D01*
X81483Y161197D01*
X80856Y161957D02*
X82405Y161957D01*
X83326Y162717D02*
X80230Y162717D01*
X79603Y163477D02*
X84248Y163477D01*
X85169Y164237D02*
X78976Y164237D01*
X78349Y164997D02*
X86091Y164997D01*
X87013Y165757D02*
X77723Y165757D01*
X77096Y166517D02*
X86427Y166517D01*
X85800Y167277D02*
X77541Y167277D01*
X78462Y168037D02*
X85173Y168037D01*
X84547Y168797D02*
X79384Y168797D01*
X80306Y169557D02*
X83920Y169557D01*
X83293Y170317D02*
X81227Y170317D01*
X82149Y171077D02*
X82666Y171077D01*
X86445Y155177D02*
X91025Y149623D01*
X86445Y155177D02*
X91999Y159757D01*
X96579Y154203D01*
X91025Y149623D01*
X90398Y150383D02*
X91947Y150383D01*
X92868Y151143D02*
X89772Y151143D01*
X89145Y151903D02*
X93790Y151903D01*
X94711Y152663D02*
X88518Y152663D01*
X87891Y153423D02*
X95633Y153423D01*
X96555Y154183D02*
X87265Y154183D01*
X86638Y154943D02*
X95969Y154943D01*
X95342Y155703D02*
X87083Y155703D01*
X88004Y156463D02*
X94715Y156463D01*
X94089Y157223D02*
X88926Y157223D01*
X89848Y157983D02*
X93462Y157983D01*
X92835Y158743D02*
X90769Y158743D01*
X91691Y159503D02*
X92208Y159503D01*
X496900Y238970D02*
X504100Y238970D01*
X496900Y238970D02*
X496900Y246170D01*
X504100Y246170D01*
X504100Y238970D01*
X504100Y239730D02*
X496900Y239730D01*
X496900Y240490D02*
X504100Y240490D01*
X504100Y241250D02*
X496900Y241250D01*
X496900Y242010D02*
X504100Y242010D01*
X504100Y242770D02*
X496900Y242770D01*
X496900Y243530D02*
X504100Y243530D01*
X504100Y244290D02*
X496900Y244290D01*
X496900Y245050D02*
X504100Y245050D01*
X504100Y245810D02*
X496900Y245810D01*
X511900Y238970D02*
X519100Y238970D01*
X511900Y238970D02*
X511900Y246170D01*
X519100Y246170D01*
X519100Y238970D01*
X519100Y239730D02*
X511900Y239730D01*
X511900Y240490D02*
X519100Y240490D01*
X519100Y241250D02*
X511900Y241250D01*
X511900Y242010D02*
X519100Y242010D01*
X519100Y242770D02*
X511900Y242770D01*
X511900Y243530D02*
X519100Y243530D01*
X519100Y244290D02*
X511900Y244290D01*
X511900Y245050D02*
X519100Y245050D01*
X519100Y245810D02*
X511900Y245810D01*
X504100Y175470D02*
X496900Y175470D01*
X496900Y182670D01*
X504100Y182670D01*
X504100Y175470D01*
X504100Y176230D02*
X496900Y176230D01*
X496900Y176990D02*
X504100Y176990D01*
X504100Y177750D02*
X496900Y177750D01*
X496900Y178510D02*
X504100Y178510D01*
X504100Y179270D02*
X496900Y179270D01*
X496900Y180030D02*
X504100Y180030D01*
X504100Y180790D02*
X496900Y180790D01*
X496900Y181550D02*
X504100Y181550D01*
X504100Y182310D02*
X496900Y182310D01*
X511900Y175470D02*
X519100Y175470D01*
X511900Y175470D02*
X511900Y182670D01*
X519100Y182670D01*
X519100Y175470D01*
X519100Y176230D02*
X511900Y176230D01*
X511900Y176990D02*
X519100Y176990D01*
X519100Y177750D02*
X511900Y177750D01*
X511900Y178510D02*
X519100Y178510D01*
X519100Y179270D02*
X511900Y179270D01*
X511900Y180030D02*
X519100Y180030D01*
X519100Y180790D02*
X511900Y180790D01*
X511900Y181550D02*
X519100Y181550D01*
X519100Y182310D02*
X511900Y182310D01*
X511900Y119170D02*
X519100Y119170D01*
X519100Y111970D01*
X511900Y111970D01*
X511900Y119170D01*
X511900Y112730D02*
X519100Y112730D01*
X519100Y113490D02*
X511900Y113490D01*
X511900Y114250D02*
X519100Y114250D01*
X519100Y115010D02*
X511900Y115010D01*
X511900Y115770D02*
X519100Y115770D01*
X519100Y116530D02*
X511900Y116530D01*
X511900Y117290D02*
X519100Y117290D01*
X519100Y118050D02*
X511900Y118050D01*
X511900Y118810D02*
X519100Y118810D01*
X504100Y119170D02*
X496900Y119170D01*
X504100Y119170D02*
X504100Y111970D01*
X496900Y111970D01*
X496900Y119170D01*
X496900Y112730D02*
X504100Y112730D01*
X504100Y113490D02*
X496900Y113490D01*
X496900Y114250D02*
X504100Y114250D01*
X504100Y115010D02*
X496900Y115010D01*
X496900Y115770D02*
X504100Y115770D01*
X504100Y116530D02*
X496900Y116530D01*
X496900Y117290D02*
X504100Y117290D01*
X504100Y118050D02*
X496900Y118050D01*
X496900Y118810D02*
X504100Y118810D01*
X504100Y48470D02*
X496900Y48470D01*
X496900Y55670D01*
X504100Y55670D01*
X504100Y48470D01*
X504100Y49230D02*
X496900Y49230D01*
X496900Y49990D02*
X504100Y49990D01*
X504100Y50750D02*
X496900Y50750D01*
X496900Y51510D02*
X504100Y51510D01*
X504100Y52270D02*
X496900Y52270D01*
X496900Y53030D02*
X504100Y53030D01*
X504100Y53790D02*
X496900Y53790D01*
X496900Y54550D02*
X504100Y54550D01*
X504100Y55310D02*
X496900Y55310D01*
X511900Y48470D02*
X519100Y48470D01*
X511900Y48470D02*
X511900Y55670D01*
X519100Y55670D01*
X519100Y48470D01*
X519100Y49230D02*
X511900Y49230D01*
X511900Y49990D02*
X519100Y49990D01*
X519100Y50750D02*
X511900Y50750D01*
X511900Y51510D02*
X519100Y51510D01*
X519100Y52270D02*
X511900Y52270D01*
X511900Y53030D02*
X519100Y53030D01*
X519100Y53790D02*
X511900Y53790D01*
X511900Y54550D02*
X519100Y54550D01*
X519100Y55310D02*
X511900Y55310D01*
X733027Y327423D02*
X737607Y332977D01*
X743161Y328397D01*
X738581Y322843D01*
X733027Y327423D01*
X737659Y323603D02*
X739208Y323603D01*
X739834Y324363D02*
X736738Y324363D01*
X735816Y325123D02*
X740461Y325123D01*
X741088Y325883D02*
X734895Y325883D01*
X733973Y326643D02*
X741715Y326643D01*
X742341Y327403D02*
X733051Y327403D01*
X733637Y328163D02*
X742968Y328163D01*
X742523Y328923D02*
X734264Y328923D01*
X734891Y329683D02*
X741602Y329683D01*
X740680Y330443D02*
X735517Y330443D01*
X736144Y331203D02*
X739758Y331203D01*
X738837Y331963D02*
X736771Y331963D01*
X737398Y332723D02*
X737915Y332723D01*
X728066Y321403D02*
X723486Y315849D01*
X728066Y321403D02*
X733620Y316823D01*
X729040Y311269D01*
X723486Y315849D01*
X728118Y312029D02*
X729667Y312029D01*
X730293Y312789D02*
X727197Y312789D01*
X726275Y313549D02*
X730920Y313549D01*
X731547Y314309D02*
X725354Y314309D01*
X724432Y315069D02*
X732174Y315069D01*
X732800Y315829D02*
X723510Y315829D01*
X724096Y316589D02*
X733427Y316589D01*
X732982Y317349D02*
X724723Y317349D01*
X725350Y318109D02*
X732061Y318109D01*
X731139Y318869D02*
X725976Y318869D01*
X726603Y319629D02*
X730217Y319629D01*
X729296Y320389D02*
X727230Y320389D01*
X727857Y321149D02*
X728374Y321149D01*
X798356Y273524D02*
X802936Y279078D01*
X808490Y274498D01*
X803910Y268944D01*
X798356Y273524D01*
X802988Y269704D02*
X804537Y269704D01*
X805163Y270464D02*
X802067Y270464D01*
X801145Y271224D02*
X805790Y271224D01*
X806417Y271984D02*
X800224Y271984D01*
X799302Y272744D02*
X807044Y272744D01*
X807670Y273504D02*
X798380Y273504D01*
X798966Y274264D02*
X808297Y274264D01*
X807852Y275024D02*
X799593Y275024D01*
X800220Y275784D02*
X806931Y275784D01*
X806009Y276544D02*
X800846Y276544D01*
X801473Y277304D02*
X805087Y277304D01*
X804166Y278064D02*
X802100Y278064D01*
X802727Y278824D02*
X803244Y278824D01*
X793395Y267504D02*
X788815Y261950D01*
X793395Y267504D02*
X798949Y262924D01*
X794369Y257370D01*
X788815Y261950D01*
X793447Y258130D02*
X794996Y258130D01*
X795622Y258890D02*
X792526Y258890D01*
X791604Y259650D02*
X796249Y259650D01*
X796876Y260410D02*
X790683Y260410D01*
X789761Y261170D02*
X797503Y261170D01*
X798129Y261930D02*
X788839Y261930D01*
X789425Y262690D02*
X798756Y262690D01*
X798311Y263450D02*
X790052Y263450D01*
X790679Y264210D02*
X797390Y264210D01*
X796468Y264970D02*
X791305Y264970D01*
X791932Y265730D02*
X795546Y265730D01*
X794625Y266490D02*
X792559Y266490D01*
X793186Y267250D02*
X793703Y267250D01*
X864252Y209050D02*
X859672Y203496D01*
X854118Y208076D01*
X858698Y213630D01*
X864252Y209050D01*
X860299Y204256D02*
X858750Y204256D01*
X857829Y205016D02*
X860925Y205016D01*
X861552Y205776D02*
X856907Y205776D01*
X855986Y206536D02*
X862179Y206536D01*
X862806Y207296D02*
X855064Y207296D01*
X854142Y208056D02*
X863432Y208056D01*
X864059Y208816D02*
X854728Y208816D01*
X855355Y209576D02*
X863614Y209576D01*
X862693Y210336D02*
X855982Y210336D01*
X856608Y211096D02*
X861771Y211096D01*
X860849Y211856D02*
X857235Y211856D01*
X857862Y212616D02*
X859928Y212616D01*
X859006Y213376D02*
X858489Y213376D01*
X869213Y215071D02*
X873793Y220625D01*
X869213Y215071D02*
X863659Y219651D01*
X868239Y225205D01*
X873793Y220625D01*
X869840Y215831D02*
X868291Y215831D01*
X867370Y216591D02*
X870466Y216591D01*
X871093Y217351D02*
X866448Y217351D01*
X865527Y218111D02*
X871720Y218111D01*
X872347Y218871D02*
X864605Y218871D01*
X863683Y219631D02*
X872973Y219631D01*
X873600Y220391D02*
X864269Y220391D01*
X864896Y221151D02*
X873155Y221151D01*
X872234Y221911D02*
X865523Y221911D01*
X866149Y222671D02*
X871312Y222671D01*
X870390Y223431D02*
X866776Y223431D01*
X867403Y224191D02*
X869469Y224191D01*
X868547Y224951D02*
X868030Y224951D01*
X933543Y171331D02*
X928963Y165777D01*
X933543Y171331D02*
X939097Y166751D01*
X934517Y161197D01*
X928963Y165777D01*
X933595Y161957D02*
X935144Y161957D01*
X935770Y162717D02*
X932674Y162717D01*
X931752Y163477D02*
X936397Y163477D01*
X937024Y164237D02*
X930831Y164237D01*
X929909Y164997D02*
X937651Y164997D01*
X938277Y165757D02*
X928987Y165757D01*
X929573Y166517D02*
X938904Y166517D01*
X938459Y167277D02*
X930200Y167277D01*
X930827Y168037D02*
X937538Y168037D01*
X936616Y168797D02*
X931453Y168797D01*
X932080Y169557D02*
X935694Y169557D01*
X934773Y170317D02*
X932707Y170317D01*
X933334Y171077D02*
X933851Y171077D01*
X924001Y159757D02*
X919421Y154203D01*
X924001Y159757D02*
X929555Y155177D01*
X924975Y149623D01*
X919421Y154203D01*
X924053Y150383D02*
X925602Y150383D01*
X926228Y151143D02*
X923132Y151143D01*
X922210Y151903D02*
X926855Y151903D01*
X927482Y152663D02*
X921289Y152663D01*
X920367Y153423D02*
X928109Y153423D01*
X928735Y154183D02*
X919445Y154183D01*
X920031Y154943D02*
X929362Y154943D01*
X928917Y155703D02*
X920658Y155703D01*
X921285Y156463D02*
X927996Y156463D01*
X927074Y157223D02*
X921911Y157223D01*
X922538Y157983D02*
X926152Y157983D01*
X925231Y158743D02*
X923165Y158743D01*
X923792Y159503D02*
X924309Y159503D01*
X743161Y687603D02*
X738581Y693157D01*
X743161Y687603D02*
X737607Y683023D01*
X733027Y688577D01*
X738581Y693157D01*
X738529Y683783D02*
X736980Y683783D01*
X736354Y684543D02*
X739450Y684543D01*
X740372Y685303D02*
X735727Y685303D01*
X735100Y686063D02*
X741293Y686063D01*
X742215Y686823D02*
X734473Y686823D01*
X733847Y687583D02*
X743137Y687583D01*
X742551Y688343D02*
X733220Y688343D01*
X733665Y689103D02*
X741924Y689103D01*
X741297Y689863D02*
X734586Y689863D01*
X735508Y690623D02*
X740671Y690623D01*
X740044Y691383D02*
X736430Y691383D01*
X737351Y692143D02*
X739417Y692143D01*
X738790Y692903D02*
X738273Y692903D01*
X733620Y699177D02*
X729040Y704731D01*
X733620Y699177D02*
X728066Y694597D01*
X723486Y700151D01*
X729040Y704731D01*
X728988Y695357D02*
X727439Y695357D01*
X726813Y696117D02*
X729909Y696117D01*
X730831Y696877D02*
X726186Y696877D01*
X725559Y697637D02*
X731752Y697637D01*
X732674Y698397D02*
X724932Y698397D01*
X724306Y699157D02*
X733596Y699157D01*
X733010Y699917D02*
X723679Y699917D01*
X724124Y700677D02*
X732383Y700677D01*
X731756Y701437D02*
X725045Y701437D01*
X725967Y702197D02*
X731130Y702197D01*
X730503Y702957D02*
X726889Y702957D01*
X727810Y703717D02*
X729876Y703717D01*
X729249Y704477D02*
X728732Y704477D01*
X788815Y754025D02*
X793395Y748471D01*
X788815Y754025D02*
X794369Y758605D01*
X798949Y753051D01*
X793395Y748471D01*
X792768Y749231D02*
X794317Y749231D01*
X795238Y749991D02*
X792142Y749991D01*
X791515Y750751D02*
X796160Y750751D01*
X797081Y751511D02*
X790888Y751511D01*
X790261Y752271D02*
X798003Y752271D01*
X798925Y753031D02*
X789635Y753031D01*
X789008Y753791D02*
X798339Y753791D01*
X797712Y754551D02*
X789453Y754551D01*
X790374Y755311D02*
X797085Y755311D01*
X796459Y756071D02*
X791296Y756071D01*
X792218Y756831D02*
X795832Y756831D01*
X795205Y757591D02*
X793139Y757591D01*
X794061Y758351D02*
X794578Y758351D01*
X798356Y742450D02*
X802936Y736896D01*
X798356Y742450D02*
X803910Y747030D01*
X808490Y741476D01*
X802936Y736896D01*
X802309Y737656D02*
X803858Y737656D01*
X804779Y738416D02*
X801683Y738416D01*
X801056Y739176D02*
X805701Y739176D01*
X806622Y739936D02*
X800429Y739936D01*
X799802Y740696D02*
X807544Y740696D01*
X808466Y741456D02*
X799176Y741456D01*
X798549Y742216D02*
X807880Y742216D01*
X807253Y742976D02*
X798994Y742976D01*
X799915Y743736D02*
X806626Y743736D01*
X806000Y744496D02*
X800837Y744496D01*
X801759Y745256D02*
X805373Y745256D01*
X804746Y746016D02*
X802680Y746016D01*
X803602Y746776D02*
X804119Y746776D01*
X858698Y802344D02*
X854118Y807898D01*
X859672Y812478D01*
X864252Y806924D01*
X858698Y802344D01*
X858071Y803104D02*
X859620Y803104D01*
X860541Y803864D02*
X857445Y803864D01*
X856818Y804624D02*
X861463Y804624D01*
X862384Y805384D02*
X856191Y805384D01*
X855564Y806144D02*
X863306Y806144D01*
X864228Y806904D02*
X854938Y806904D01*
X854311Y807664D02*
X863642Y807664D01*
X863015Y808424D02*
X854756Y808424D01*
X855677Y809184D02*
X862388Y809184D01*
X861762Y809944D02*
X856599Y809944D01*
X857521Y810704D02*
X861135Y810704D01*
X860508Y811464D02*
X858442Y811464D01*
X859364Y812224D02*
X859881Y812224D01*
X863659Y796324D02*
X868239Y790770D01*
X863659Y796324D02*
X869213Y800904D01*
X873793Y795350D01*
X868239Y790770D01*
X867612Y791530D02*
X869161Y791530D01*
X870082Y792290D02*
X866986Y792290D01*
X866359Y793050D02*
X871004Y793050D01*
X871925Y793810D02*
X865732Y793810D01*
X865105Y794570D02*
X872847Y794570D01*
X873769Y795330D02*
X864479Y795330D01*
X863852Y796090D02*
X873183Y796090D01*
X872556Y796850D02*
X864297Y796850D01*
X865218Y797610D02*
X871929Y797610D01*
X871303Y798370D02*
X866140Y798370D01*
X867062Y799130D02*
X870676Y799130D01*
X870049Y799890D02*
X867983Y799890D01*
X868905Y800650D02*
X869422Y800650D01*
X934517Y854803D02*
X939097Y849249D01*
X933543Y844669D01*
X928963Y850223D01*
X934517Y854803D01*
X934465Y845429D02*
X932916Y845429D01*
X932290Y846189D02*
X935386Y846189D01*
X936308Y846949D02*
X931663Y846949D01*
X931036Y847709D02*
X937229Y847709D01*
X938151Y848469D02*
X930409Y848469D01*
X929783Y849229D02*
X939073Y849229D01*
X938487Y849989D02*
X929156Y849989D01*
X929601Y850749D02*
X937860Y850749D01*
X937233Y851509D02*
X930522Y851509D01*
X931444Y852269D02*
X936607Y852269D01*
X935980Y853029D02*
X932366Y853029D01*
X933287Y853789D02*
X935353Y853789D01*
X934726Y854549D02*
X934209Y854549D01*
X929555Y860823D02*
X924975Y866377D01*
X929555Y860823D02*
X924001Y856243D01*
X919421Y861797D01*
X924975Y866377D01*
X924923Y857003D02*
X923374Y857003D01*
X922748Y857763D02*
X925844Y857763D01*
X926766Y858523D02*
X922121Y858523D01*
X921494Y859283D02*
X927687Y859283D01*
X928609Y860043D02*
X920867Y860043D01*
X920241Y860803D02*
X929531Y860803D01*
X928945Y861563D02*
X919614Y861563D01*
X920059Y862323D02*
X928318Y862323D01*
X927691Y863083D02*
X920980Y863083D01*
X921902Y863843D02*
X927065Y863843D01*
X926438Y864603D02*
X922824Y864603D01*
X923745Y865363D02*
X925811Y865363D01*
X925184Y866123D02*
X924667Y866123D01*
X504100Y833330D02*
X496900Y833330D01*
X496900Y840530D01*
X504100Y840530D01*
X504100Y833330D01*
X504100Y834090D02*
X496900Y834090D01*
X496900Y834850D02*
X504100Y834850D01*
X504100Y835610D02*
X496900Y835610D01*
X496900Y836370D02*
X504100Y836370D01*
X504100Y837130D02*
X496900Y837130D01*
X496900Y837890D02*
X504100Y837890D01*
X504100Y838650D02*
X496900Y838650D01*
X496900Y839410D02*
X504100Y839410D01*
X504100Y840170D02*
X496900Y840170D01*
X511900Y833330D02*
X519100Y833330D01*
X511900Y833330D02*
X511900Y840530D01*
X519100Y840530D01*
X519100Y833330D01*
X519100Y834090D02*
X511900Y834090D01*
X511900Y834850D02*
X519100Y834850D01*
X519100Y835610D02*
X511900Y835610D01*
X511900Y836370D02*
X519100Y836370D01*
X519100Y837130D02*
X511900Y837130D01*
X511900Y837890D02*
X519100Y837890D01*
X519100Y838650D02*
X511900Y838650D01*
X511900Y839410D02*
X519100Y839410D01*
X519100Y840170D02*
X511900Y840170D01*
X504100Y769830D02*
X496900Y769830D01*
X496900Y777030D01*
X504100Y777030D01*
X504100Y769830D01*
X504100Y770590D02*
X496900Y770590D01*
X496900Y771350D02*
X504100Y771350D01*
X504100Y772110D02*
X496900Y772110D01*
X496900Y772870D02*
X504100Y772870D01*
X504100Y773630D02*
X496900Y773630D01*
X496900Y774390D02*
X504100Y774390D01*
X504100Y775150D02*
X496900Y775150D01*
X496900Y775910D02*
X504100Y775910D01*
X504100Y776670D02*
X496900Y776670D01*
X511900Y769830D02*
X519100Y769830D01*
X511900Y769830D02*
X511900Y777030D01*
X519100Y777030D01*
X519100Y769830D01*
X519100Y770590D02*
X511900Y770590D01*
X511900Y771350D02*
X519100Y771350D01*
X519100Y772110D02*
X511900Y772110D01*
X511900Y772870D02*
X519100Y772870D01*
X519100Y773630D02*
X511900Y773630D01*
X511900Y774390D02*
X519100Y774390D01*
X519100Y775150D02*
X511900Y775150D01*
X511900Y775910D02*
X519100Y775910D01*
X519100Y776670D02*
X511900Y776670D01*
X504100Y896830D02*
X496900Y896830D01*
X496900Y904030D01*
X504100Y904030D01*
X504100Y896830D01*
X504100Y897590D02*
X496900Y897590D01*
X496900Y898350D02*
X504100Y898350D01*
X504100Y899110D02*
X496900Y899110D01*
X496900Y899870D02*
X504100Y899870D01*
X504100Y900630D02*
X496900Y900630D01*
X496900Y901390D02*
X504100Y901390D01*
X504100Y902150D02*
X496900Y902150D01*
X496900Y902910D02*
X504100Y902910D01*
X504100Y903670D02*
X496900Y903670D01*
X511900Y896830D02*
X519100Y896830D01*
X511900Y896830D02*
X511900Y904030D01*
X519100Y904030D01*
X519100Y896830D01*
X519100Y897590D02*
X511900Y897590D01*
X511900Y898350D02*
X519100Y898350D01*
X519100Y899110D02*
X511900Y899110D01*
X511900Y899870D02*
X519100Y899870D01*
X519100Y900630D02*
X511900Y900630D01*
X511900Y901390D02*
X519100Y901390D01*
X519100Y902150D02*
X511900Y902150D01*
X511900Y902910D02*
X519100Y902910D01*
X519100Y903670D02*
X511900Y903670D01*
X504100Y960330D02*
X496900Y960330D01*
X496900Y967530D01*
X504100Y967530D01*
X504100Y960330D01*
X504100Y961090D02*
X496900Y961090D01*
X496900Y961850D02*
X504100Y961850D01*
X504100Y962610D02*
X496900Y962610D01*
X496900Y963370D02*
X504100Y963370D01*
X504100Y964130D02*
X496900Y964130D01*
X496900Y964890D02*
X504100Y964890D01*
X504100Y965650D02*
X496900Y965650D01*
X496900Y966410D02*
X504100Y966410D01*
X504100Y967170D02*
X496900Y967170D01*
X511900Y960330D02*
X519100Y960330D01*
X511900Y960330D02*
X511900Y967530D01*
X519100Y967530D01*
X519100Y960330D01*
X519100Y961090D02*
X511900Y961090D01*
X511900Y961850D02*
X519100Y961850D01*
X519100Y962610D02*
X511900Y962610D01*
X511900Y963370D02*
X519100Y963370D01*
X519100Y964130D02*
X511900Y964130D01*
X511900Y964890D02*
X519100Y964890D01*
X519100Y965650D02*
X511900Y965650D01*
X511900Y966410D02*
X519100Y966410D01*
X519100Y967170D02*
X511900Y967170D01*
X282973Y688577D02*
X278393Y683023D01*
X272839Y687603D01*
X277419Y693157D01*
X282973Y688577D01*
X279020Y683783D02*
X277471Y683783D01*
X276550Y684543D02*
X279646Y684543D01*
X280273Y685303D02*
X275628Y685303D01*
X274707Y686063D02*
X280900Y686063D01*
X281527Y686823D02*
X273785Y686823D01*
X272863Y687583D02*
X282153Y687583D01*
X282780Y688343D02*
X273449Y688343D01*
X274076Y689103D02*
X282335Y689103D01*
X281414Y689863D02*
X274703Y689863D01*
X275329Y690623D02*
X280492Y690623D01*
X279570Y691383D02*
X275956Y691383D01*
X276583Y692143D02*
X278649Y692143D01*
X277727Y692903D02*
X277210Y692903D01*
X287934Y694597D02*
X292514Y700151D01*
X287934Y694597D02*
X282380Y699177D01*
X286960Y704731D01*
X292514Y700151D01*
X288561Y695357D02*
X287012Y695357D01*
X286091Y696117D02*
X289187Y696117D01*
X289814Y696877D02*
X285169Y696877D01*
X284248Y697637D02*
X290441Y697637D01*
X291068Y698397D02*
X283326Y698397D01*
X282404Y699157D02*
X291694Y699157D01*
X292321Y699917D02*
X282990Y699917D01*
X283617Y700677D02*
X291876Y700677D01*
X290955Y701437D02*
X284244Y701437D01*
X284870Y702197D02*
X290033Y702197D01*
X289111Y702957D02*
X285497Y702957D01*
X286124Y703717D02*
X288190Y703717D01*
X287268Y704477D02*
X286751Y704477D01*
X217670Y742450D02*
X213090Y736896D01*
X207536Y741476D01*
X212116Y747030D01*
X217670Y742450D01*
X213717Y737656D02*
X212168Y737656D01*
X211247Y738416D02*
X214343Y738416D01*
X214970Y739176D02*
X210325Y739176D01*
X209404Y739936D02*
X215597Y739936D01*
X216224Y740696D02*
X208482Y740696D01*
X207560Y741456D02*
X216850Y741456D01*
X217477Y742216D02*
X208146Y742216D01*
X208773Y742976D02*
X217032Y742976D01*
X216111Y743736D02*
X209400Y743736D01*
X210026Y744496D02*
X215189Y744496D01*
X214267Y745256D02*
X210653Y745256D01*
X211280Y746016D02*
X213346Y746016D01*
X212424Y746776D02*
X211907Y746776D01*
X222631Y748471D02*
X227211Y754025D01*
X222631Y748471D02*
X217077Y753051D01*
X221657Y758605D01*
X227211Y754025D01*
X223258Y749231D02*
X221709Y749231D01*
X220788Y749991D02*
X223884Y749991D01*
X224511Y750751D02*
X219866Y750751D01*
X218945Y751511D02*
X225138Y751511D01*
X225765Y752271D02*
X218023Y752271D01*
X217101Y753031D02*
X226391Y753031D01*
X227018Y753791D02*
X217687Y753791D01*
X218314Y754551D02*
X226573Y754551D01*
X225652Y755311D02*
X218941Y755311D01*
X219567Y756071D02*
X224730Y756071D01*
X223808Y756831D02*
X220194Y756831D01*
X220821Y757591D02*
X222887Y757591D01*
X221965Y758351D02*
X221448Y758351D01*
X152366Y796324D02*
X147786Y790770D01*
X142232Y795350D01*
X146812Y800904D01*
X152366Y796324D01*
X148413Y791530D02*
X146864Y791530D01*
X145943Y792290D02*
X149039Y792290D01*
X149666Y793050D02*
X145021Y793050D01*
X144100Y793810D02*
X150293Y793810D01*
X150920Y794570D02*
X143178Y794570D01*
X142256Y795330D02*
X151546Y795330D01*
X152173Y796090D02*
X142842Y796090D01*
X143469Y796850D02*
X151728Y796850D01*
X150807Y797610D02*
X144096Y797610D01*
X144722Y798370D02*
X149885Y798370D01*
X148963Y799130D02*
X145349Y799130D01*
X145976Y799890D02*
X148042Y799890D01*
X147120Y800650D02*
X146603Y800650D01*
X157327Y802344D02*
X161907Y807898D01*
X157327Y802344D02*
X151773Y806924D01*
X156353Y812478D01*
X161907Y807898D01*
X157954Y803104D02*
X156405Y803104D01*
X155484Y803864D02*
X158580Y803864D01*
X159207Y804624D02*
X154562Y804624D01*
X153641Y805384D02*
X159834Y805384D01*
X160461Y806144D02*
X152719Y806144D01*
X151797Y806904D02*
X161087Y806904D01*
X161714Y807664D02*
X152383Y807664D01*
X153010Y808424D02*
X161269Y808424D01*
X160348Y809184D02*
X153637Y809184D01*
X154263Y809944D02*
X159426Y809944D01*
X158504Y810704D02*
X154890Y810704D01*
X155517Y811464D02*
X157583Y811464D01*
X156661Y812224D02*
X156144Y812224D01*
X87037Y850223D02*
X82457Y844669D01*
X76903Y849249D01*
X81483Y854803D01*
X87037Y850223D01*
X83084Y845429D02*
X81535Y845429D01*
X80614Y846189D02*
X83710Y846189D01*
X84337Y846949D02*
X79692Y846949D01*
X78771Y847709D02*
X84964Y847709D01*
X85591Y848469D02*
X77849Y848469D01*
X76927Y849229D02*
X86217Y849229D01*
X86844Y849989D02*
X77513Y849989D01*
X78140Y850749D02*
X86399Y850749D01*
X85478Y851509D02*
X78767Y851509D01*
X79393Y852269D02*
X84556Y852269D01*
X83634Y853029D02*
X80020Y853029D01*
X80647Y853789D02*
X82713Y853789D01*
X81791Y854549D02*
X81274Y854549D01*
X91999Y856243D02*
X96579Y861797D01*
X91999Y856243D02*
X86445Y860823D01*
X91025Y866377D01*
X96579Y861797D01*
X92626Y857003D02*
X91077Y857003D01*
X90156Y857763D02*
X93252Y857763D01*
X93879Y858523D02*
X89234Y858523D01*
X88313Y859283D02*
X94506Y859283D01*
X95133Y860043D02*
X87391Y860043D01*
X86469Y860803D02*
X95759Y860803D01*
X96386Y861563D02*
X87055Y861563D01*
X87682Y862323D02*
X95941Y862323D01*
X95020Y863083D02*
X88309Y863083D01*
X88935Y863843D02*
X94098Y863843D01*
X93176Y864603D02*
X89562Y864603D01*
X90189Y865363D02*
X92255Y865363D01*
X91333Y866123D02*
X90816Y866123D01*
D11*
X108700Y696800D03*
X125700Y696800D03*
D12*
X135025Y581775D03*
X135025Y564775D03*
D13*
X184103Y576225D03*
X184103Y582575D03*
X184103Y588925D03*
X184103Y595275D03*
X184103Y601625D03*
X184103Y607975D03*
X184103Y569875D03*
X184103Y563525D03*
X184103Y557175D03*
X184103Y550825D03*
X237697Y582575D03*
X237697Y576225D03*
X237697Y569875D03*
X237697Y563525D03*
X237697Y557175D03*
X237697Y550825D03*
X237697Y588925D03*
X237697Y595275D03*
X237697Y601625D03*
X237697Y607975D03*
D11*
X108400Y659800D03*
X125400Y659800D03*
X107400Y637200D03*
X124400Y637200D03*
X107700Y618100D03*
X124700Y618100D03*
X108100Y679100D03*
X125100Y679100D03*
X124428Y598466D03*
X107428Y598466D03*
D14*
X102400Y726100D03*
X130400Y726100D03*
D15*
X280835Y263292D03*
X298335Y239792D03*
X280835Y239792D03*
X298335Y263292D03*
D11*
X281306Y223714D03*
X298306Y223714D03*
D12*
X263020Y245115D03*
X263020Y262115D03*
D11*
X454588Y177800D03*
X437588Y177800D03*
X437588Y193675D03*
X454588Y193675D03*
D12*
X269237Y195319D03*
X269237Y178319D03*
X299884Y195676D03*
X299884Y178676D03*
D11*
G36*
X325083Y148899D02*
X332860Y156676D01*
X339931Y149605D01*
X332154Y141828D01*
X325083Y148899D01*
G37*
G36*
X313062Y136878D02*
X320839Y144655D01*
X327910Y137584D01*
X320133Y129807D01*
X313062Y136878D01*
G37*
X298313Y279063D03*
X281313Y279063D03*
D12*
X320863Y195525D03*
X320863Y178525D03*
X390944Y195730D03*
X390944Y178730D03*
X375603Y195667D03*
X375603Y178667D03*
D11*
X324875Y322263D03*
X341875Y322263D03*
X390333Y342749D03*
X407333Y342749D03*
D12*
X439738Y266138D03*
X439738Y283138D03*
D16*
X358597Y275313D03*
X358597Y253813D03*
X380097Y253813D03*
X380097Y275313D03*
D17*
X347347Y235063D03*
X351347Y235063D03*
X355347Y235063D03*
X359347Y235063D03*
X363347Y235063D03*
X367347Y235063D03*
X371347Y235063D03*
X375347Y235063D03*
X379347Y235063D03*
X383347Y235063D03*
X387347Y235063D03*
X391347Y235063D03*
D18*
X398847Y242563D03*
X398847Y246563D03*
X398847Y250563D03*
X398847Y254563D03*
X398847Y258563D03*
X398847Y262563D03*
X398847Y266563D03*
X398847Y270563D03*
X398847Y274563D03*
X398847Y278563D03*
X398847Y282563D03*
X398847Y286563D03*
D17*
X391347Y294063D03*
X387347Y294063D03*
X383347Y294063D03*
X379347Y294063D03*
X375347Y294063D03*
X371347Y294063D03*
X367347Y294063D03*
X363347Y294063D03*
X359347Y294063D03*
X355347Y294063D03*
X351347Y294063D03*
X347347Y294063D03*
D18*
X339847Y286563D03*
X339847Y282563D03*
X339847Y278563D03*
X339847Y274563D03*
X339847Y270563D03*
X339847Y266563D03*
X339847Y262563D03*
X339847Y258563D03*
X339847Y254563D03*
X339847Y250563D03*
X339847Y246563D03*
X339847Y242563D03*
D12*
X284296Y178399D03*
X284296Y195399D03*
D11*
X191950Y480132D03*
X208950Y480132D03*
D12*
X155385Y418817D03*
X155385Y401817D03*
D19*
X137045Y415857D03*
X130545Y397457D03*
X124045Y397457D03*
X137045Y397457D03*
X130545Y415857D03*
X124045Y415857D03*
D11*
X88338Y354013D03*
X105338Y354013D03*
D20*
X420130Y214615D03*
X420130Y231615D03*
D11*
X454588Y214313D03*
X437588Y214313D03*
X454588Y230188D03*
X437588Y230188D03*
D21*
X187800Y701600D03*
X205800Y701600D03*
D11*
X253438Y639763D03*
X270438Y639763D03*
D22*
X168600Y719100D03*
X145600Y719100D03*
D11*
X107600Y747600D03*
X124600Y747600D03*
D23*
X146500Y734300D03*
X165500Y734300D03*
X156000Y755300D03*
D24*
X290188Y635508D02*
X297188Y635508D01*
X290188Y635508D02*
X290188Y642508D01*
X297188Y642508D01*
X297188Y635508D01*
X297188Y638358D02*
X290188Y638358D01*
X290188Y641208D02*
X297188Y641208D01*
X297188Y617968D02*
X290188Y617968D01*
X290188Y624968D01*
X297188Y624968D01*
X297188Y617968D01*
X297188Y620818D02*
X290188Y620818D01*
X290188Y623668D02*
X297188Y623668D01*
D11*
X253438Y622300D03*
X270438Y622300D03*
X341875Y354013D03*
X324875Y354013D03*
X341875Y338138D03*
X324875Y338138D03*
D12*
X151738Y581775D03*
X151738Y564775D03*
D11*
X126438Y354013D03*
X143438Y354013D03*
X143438Y376238D03*
X126438Y376238D03*
X121213Y436563D03*
X104213Y436563D03*
D19*
X100995Y416358D03*
X94495Y397958D03*
X87995Y397958D03*
X100995Y397958D03*
X94495Y416358D03*
X87995Y416358D03*
D11*
X105338Y376238D03*
X88338Y376238D03*
D25*
X51600Y785000D03*
X51600Y755000D03*
X51600Y740000D03*
D26*
X44600Y799000D03*
X23600Y799000D03*
X44600Y726000D03*
X23600Y726000D03*
D27*
X60900Y676900D03*
X60900Y650900D03*
X60900Y670400D03*
X60900Y663900D03*
X60900Y657400D03*
D28*
X34400Y701900D03*
X34400Y625900D03*
D29*
X34400Y675900D03*
X34400Y651900D03*
D30*
X59800Y694900D03*
X59800Y632900D03*
D31*
X224700Y640470D03*
X224700Y653170D03*
X224700Y665870D03*
X224700Y678570D03*
X170700Y678570D03*
X170700Y665870D03*
X170700Y653170D03*
X170700Y640470D03*
D32*
X347006Y481529D03*
X347006Y468829D03*
X347006Y456129D03*
X347006Y443429D03*
X412030Y443429D03*
X412030Y456129D03*
X412030Y468829D03*
X412030Y481529D03*
D11*
X413313Y508000D03*
X396313Y508000D03*
D12*
X77788Y312175D03*
X77788Y329175D03*
D11*
X59300Y220980D03*
X42300Y220980D03*
D12*
X95250Y312175D03*
X95250Y329175D03*
X112078Y311858D03*
X112078Y328858D03*
D23*
X841600Y341800D03*
X860600Y341800D03*
X851100Y362800D03*
D11*
X824100Y341800D03*
X807100Y341800D03*
D12*
X850938Y402052D03*
X850938Y385052D03*
D33*
X80503Y268120D03*
X80503Y255120D03*
X67503Y255120D03*
X67503Y268120D03*
D34*
X86003Y278620D02*
X86003Y284620D01*
X82003Y284620D02*
X82003Y278620D01*
X78003Y278620D02*
X78003Y284620D01*
X74003Y284620D02*
X74003Y278620D01*
X70003Y278620D02*
X70003Y284620D01*
X66003Y284620D02*
X66003Y278620D01*
X62003Y278620D02*
X62003Y284620D01*
X57003Y273620D02*
X51003Y273620D01*
X51003Y269620D02*
X57003Y269620D01*
X57003Y265620D02*
X51003Y265620D01*
X51003Y261620D02*
X57003Y261620D01*
X57003Y257620D02*
X51003Y257620D01*
X51003Y253620D02*
X57003Y253620D01*
X57003Y249620D02*
X51003Y249620D01*
X62003Y244620D02*
X62003Y238620D01*
X66003Y238620D02*
X66003Y244620D01*
X70003Y244620D02*
X70003Y238620D01*
X74003Y238620D02*
X74003Y244620D01*
X78003Y244620D02*
X78003Y238620D01*
X82003Y238620D02*
X82003Y244620D01*
X86003Y244620D02*
X86003Y238620D01*
X91003Y249620D02*
X97003Y249620D01*
X97003Y253620D02*
X91003Y253620D01*
X91003Y257620D02*
X97003Y257620D01*
X97003Y261620D02*
X91003Y261620D01*
X91003Y265620D02*
X97003Y265620D01*
X97003Y269620D02*
X91003Y269620D01*
X91003Y273620D02*
X97003Y273620D01*
D11*
X51363Y298450D03*
X34363Y298450D03*
D35*
X488950Y478790D03*
X501650Y478790D03*
X514350Y478790D03*
X527050Y478790D03*
D36*
X67702Y508000D03*
X105702Y508000D03*
X910298Y508000D03*
X948298Y508000D03*
D11*
X191817Y502336D03*
X208817Y502336D03*
D12*
X514325Y447500D03*
X514325Y430500D03*
D11*
X121213Y454025D03*
X104213Y454025D03*
X930323Y444148D03*
X947323Y444148D03*
D37*
X41965Y366636D03*
D38*
X22465Y348136D03*
X22465Y385136D03*
D11*
X479180Y446227D03*
X496180Y446227D03*
D10*
X924010Y551120D02*
X924010Y558320D01*
X932930Y558320D01*
X932930Y551120D01*
X924010Y551120D01*
X924010Y551880D02*
X932930Y551880D01*
X932930Y552640D02*
X924010Y552640D01*
X924010Y553400D02*
X932930Y553400D01*
X932930Y554160D02*
X924010Y554160D01*
X924010Y554920D02*
X932930Y554920D01*
X932930Y555680D02*
X924010Y555680D01*
X924010Y556440D02*
X932930Y556440D01*
X932930Y557200D02*
X924010Y557200D01*
X924010Y557960D02*
X932930Y557960D01*
X924010Y539320D02*
X924010Y532120D01*
X924010Y539320D02*
X932930Y539320D01*
X932930Y532120D01*
X924010Y532120D01*
X924010Y532880D02*
X932930Y532880D01*
X932930Y533640D02*
X924010Y533640D01*
X924010Y534400D02*
X932930Y534400D01*
X932930Y535160D02*
X924010Y535160D01*
X924010Y535920D02*
X932930Y535920D01*
X932930Y536680D02*
X924010Y536680D01*
X924010Y537440D02*
X932930Y537440D01*
X932930Y538200D02*
X924010Y538200D01*
X924010Y538960D02*
X932930Y538960D01*
X906310Y541620D02*
X906310Y548820D01*
X915230Y548820D01*
X915230Y541620D01*
X906310Y541620D01*
X906310Y542380D02*
X915230Y542380D01*
X915230Y543140D02*
X906310Y543140D01*
X906310Y543900D02*
X915230Y543900D01*
X915230Y544660D02*
X906310Y544660D01*
X906310Y545420D02*
X915230Y545420D01*
X915230Y546180D02*
X906310Y546180D01*
X906310Y546940D02*
X915230Y546940D01*
X915230Y547700D02*
X906310Y547700D01*
X906310Y548460D02*
X915230Y548460D01*
X74590Y561260D02*
X74590Y568460D01*
X83510Y568460D01*
X83510Y561260D01*
X74590Y561260D01*
X74590Y562020D02*
X83510Y562020D01*
X83510Y562780D02*
X74590Y562780D01*
X74590Y563540D02*
X83510Y563540D01*
X83510Y564300D02*
X74590Y564300D01*
X74590Y565060D02*
X83510Y565060D01*
X83510Y565820D02*
X74590Y565820D01*
X74590Y566580D02*
X83510Y566580D01*
X83510Y567340D02*
X74590Y567340D01*
X74590Y568100D02*
X83510Y568100D01*
X74590Y549460D02*
X74590Y542260D01*
X74590Y549460D02*
X83510Y549460D01*
X83510Y542260D01*
X74590Y542260D01*
X74590Y543020D02*
X83510Y543020D01*
X83510Y543780D02*
X74590Y543780D01*
X74590Y544540D02*
X83510Y544540D01*
X83510Y545300D02*
X74590Y545300D01*
X74590Y546060D02*
X83510Y546060D01*
X83510Y546820D02*
X74590Y546820D01*
X74590Y547580D02*
X83510Y547580D01*
X83510Y548340D02*
X74590Y548340D01*
X74590Y549100D02*
X83510Y549100D01*
X56890Y551760D02*
X56890Y558960D01*
X65810Y558960D01*
X65810Y551760D01*
X56890Y551760D01*
X56890Y552520D02*
X65810Y552520D01*
X65810Y553280D02*
X56890Y553280D01*
X56890Y554040D02*
X65810Y554040D01*
X65810Y554800D02*
X56890Y554800D01*
X56890Y555560D02*
X65810Y555560D01*
X65810Y556320D02*
X56890Y556320D01*
X56890Y557080D02*
X65810Y557080D01*
X65810Y557840D02*
X56890Y557840D01*
X56890Y558600D02*
X65810Y558600D01*
D11*
X930620Y467220D03*
X947620Y467220D03*
X951680Y535860D03*
X968680Y535860D03*
X94460Y546000D03*
X111460Y546000D03*
X121600Y470340D03*
X104600Y470340D03*
M02*
