#pragma once

#include "pitches.h"
#include "audio.h"

const tone_t button_down[] = {
    {NOTE_C6, 200},
};

const tone_t button_left[] = {
    {NOTE_D6, 200},
};

const tone_t button_up[] = {
    {NOTE_E6, 200},
};

const tone_t button_right[] = {
    {NOTE_F6, 200},
};

const tone_t button_select[] = {
    {NOTE_G6, 200},
};

const tone_t stage_complete[] = {
    {659,105},
    {554,105},
    {659,110},
    {554,110},
    {659,110},
    {554,110},
    {659,110},
    {554,110},
    {740,110},
    {622,110},
    {622,110},
    {740,110},
    {622,110},
    {740,110},
    {740,110},
    {622,110},
    {587,110},
    {494,110},
    {587,110},
    {494,110},
    {494,110},
    {587,110},
    {494,110},
    {587,110},
    {330,110},
    {440,110},
    {494,110},
    {349,110},
    {587,110},
    {440,110},
    {659,1713},
};

const tone_t rick[] = {
  {NOTE_C5,180},
  {NOTE_D5,180},
  {NOTE_F5,180},
  {NOTE_D5,180},
  {NOTE_A5,540},
  {NOTE_A5,540},
  {NOTE_G5,1080},
  {NOTE_C5,180},
  {NOTE_D5,180},
  {NOTE_F5,180},
  {NOTE_D5,180},
  {NOTE_G5,540},
  {NOTE_G5,540},
  {NOTE_F5,540},
  {NOTE_E5,180},
  {NOTE_D5,360},
  {NOTE_C5,180},
  {NOTE_D5,180},
  {NOTE_F5,180},
  {NOTE_D5,180},
  {NOTE_F5,720},
  {NOTE_G5,360},
  {NOTE_E5,540},
  {NOTE_D5,180},
  {NOTE_C5,360},
  {NOTE_C5,360},
  {NOTE_C5,360},
  {NOTE_G5,720},
  {NOTE_F5,1440},
  {NOTE_C5,180},
  {NOTE_D5,180},
  {NOTE_F5,180},
  {NOTE_D5,180},
  {NOTE_A5,540},
  {NOTE_A5,540},
  {NOTE_G5,1080},
  {NOTE_C5,180},
  {NOTE_D5,180},
  {NOTE_F5,180},
  {NOTE_D5,180},
  {NOTE_C6,720},
  {NOTE_E5,360},
  {NOTE_F5,540},
  {NOTE_E5,180},
  {NOTE_D5,360},
  {NOTE_C5,180},
  {NOTE_D5,180},
  {NOTE_F5,180},
  {NOTE_D5,180},
  {NOTE_F5,720},
  {NOTE_G5,360},
  {NOTE_E5,540},
  {NOTE_D5,180},
  {NOTE_C5,720},
  {NOTE_C5,360},
  {NOTE_G5,720},
  {NOTE_F5,1080}
};
