M48
;GenerationSoftware,Autodesk,EAGLE,9.6.2*%
;CreationDate,2023-04-07T17:24:26Z*%
FMAT,2
ICI,OFF
METRIC,TZ,000.000
T5C0.350
T4C0.900
T3C1.000
T2C2.286
T1C4.318
%
G90
M71
T1
X81280Y97472
X20320Y97472
T2
X22860Y12700
X78740Y12700
X78740Y88823
X22860Y88900
T3
X82590Y39370
X87590Y39370
X26320Y39170
X26320Y51870
T4
X3296Y38789
X3296Y34539
X3410Y74750
X3410Y77750
T5
X26874Y22424
X6509Y37243
X6509Y35370
X4666Y23552
X31027Y26422
X2857Y9525
X4128Y9525
X5398Y9525
X6667Y9525
X7937Y9525
X9208Y9525
X10478Y9525
X11747Y9525
X13017Y9525
X14287Y9525
X15557Y9525
X16828Y9525
X18098Y9525
X19368Y9525
X3492Y10795
X4763Y10795
X6032Y10795
X7302Y10795
X8573Y10795
X9843Y10795
X11112Y10795
X12382Y10795
X13652Y10795
X14922Y10795
X16192Y10795
X17463Y10795
X18733Y10795
X20003Y10795
X20638Y9525
X21907Y9525
X23177Y9525
X24447Y9525
X25717Y9525
X26987Y9525
X28257Y9525
X32067Y9525
X33338Y9525
X34608Y9525
X35878Y9525
X37148Y9525
X34608Y9525
X35878Y9525
X37148Y9525
X38418Y9525
X39688Y9525
X40958Y9525
X42228Y9525
X43498Y9525
X44767Y9525
X46037Y9525
X47307Y9525
X48577Y9525
X21273Y10795
X22542Y10795
X23812Y10795
X25082Y10795
X26352Y10795
X27622Y10795
X28892Y10795
X31432Y10795
X32702Y10795
X33973Y10795
X35243Y10795
X36513Y10795
X37783Y10795
X39053Y10795
X40323Y10795
X41593Y10795
X42863Y10795
X44132Y10795
X45402Y10795
X46672Y10795
X47942Y10795
X32226Y12065
X29210Y12224
X30004Y13652
X31274Y14922
X33496Y13176
X34766Y14446
X35719Y15716
X36195Y17304
X32544Y16034
X33814Y17304
X36195Y20479
X34131Y20479
X34290Y31115
X40640Y35560
X22542Y31909
X35403Y27789
X9525Y20161
X10319Y28734
X34131Y22384
X37624Y16669
X39053Y16669
X46672Y23019
X46672Y21431
X43974Y29527
X26829Y27940
X36354Y44291
X36195Y19526
X34131Y19526
X30616Y29877
X19730Y55051
X29684Y30626
X22482Y57442
X38771Y22489
X7369Y36132
X42508Y36220
X89854Y67423
X74502Y56335
X51117Y34131
X44569Y34773
X38424Y43127
X32812Y40744
X34215Y41670
X38975Y44676
X35084Y42333
X36195Y48101
X17341Y42753
X13611Y42753
X16510Y58257
X14573Y70612
X8625Y22673
X11906Y26511
X8118Y21590
X11633Y25329
X31650Y29738
X12915Y32067
X48260Y30321
X43550Y35537
X73635Y55369
X84108Y75141
X90891Y44336
X21013Y41316
X29383Y38308
X39846Y33212
X15399Y45244
X78715Y34251
X35328Y33814
X6527Y31309
X41560Y24739
X7473Y74841
X3048Y20828
X29995Y71460
X51534Y80292
X31175Y31543
X51572Y29441
X52625Y81204
X28991Y33766
X51609Y16593
X13778Y20320
X81867Y75550
X31432Y42069
X23450Y76918
X51521Y86835
X89132Y81365
X15557Y22701
X88988Y20268
X50050Y13017
X18825Y78264
X24765Y31432
X48266Y18840
X10884Y23251
X13169Y18938
X56891Y15479
X31142Y37433
X72900Y57419
X83008Y42304
X32163Y24710
X32163Y26546
X33153Y29174
X42344Y26656
X48419Y32544
X12382Y31186
X32999Y22564
X40164Y19526
X16380Y46098
X20310Y45444
X41028Y31122
X30498Y34242
X21138Y33384
X7020Y42510
X26347Y23326
X38498Y24921
X36930Y24940
X35373Y24971
X36921Y26092
X38471Y26194
X35372Y26024
X38513Y27802
X36904Y27777
X8005Y25521
X8087Y26783
X6774Y26786
X6716Y25507
X17463Y27781
M30